<?xml version="1.0" encoding="UTF-8"?>
<svg enable-background="new 0 0 393.47 112.02" version="1.1" viewBox="0 0 393.47 112.02" xml:space="preserve" xmlns="http://www.w3.org/2000/svg">
<style type="text/css">
	.st0{fill:#231F20;}
	.st1{fill:#FFFFFF;}
	.st2{fill:#D51C56;}
	.st3{fill:#FFFDFD;}
	.st4{fill:#F0BCD3;}
	.st5{fill:none;stroke:#D51C56;stroke-width:0.4256;stroke-miterlimit:10;}
	.st6{fill:#4A4A4A;}
</style>

	
		
			
				<path class="st0" d="m14.54 30.04c0-1.36-0.08-2.44-0.23-3.24s-0.37-1.43-0.64-1.89c-0.28-0.45-0.62-0.75-1.02-0.91-0.4-0.15-0.88-0.23-1.43-0.23-0.5 0-0.79-0.26-0.87-0.79s0.24-0.79 0.94-0.79h18.71c2.87 0 5.26 0.45 7.17 1.36s3.37 2.05 4.38 3.43 1.58 2.88 1.74 4.49c0.15 1.61-0.11 3.13-0.79 4.57-0.68 1.43-1.75 2.67-3.21 3.7s-3.3 1.62-5.51 1.77c2.77 0.15 5.04 0.87 6.83 2.15 1.78 1.28 3.07 2.87 3.85 4.75 0.78 1.89 1.08 3.9 0.91 6.04-0.18 2.14-0.87 4.11-2.08 5.92s-2.91 3.32-5.09 4.53c-2.19 1.21-4.89 1.81-8.11 1.81h-18.8c-0.71 0-1.02-0.26-0.94-0.79s0.36-0.79 0.87-0.79c0.55 0 1.03-0.06 1.43-0.19s0.74-0.4 1.02-0.83 0.49-1.04 0.64-1.85c0.15-0.8 0.23-1.89 0.23-3.24v-28.98zm12.68 10.94c1.51 0 2.78-0.43 3.81-1.28s1.82-1.91 2.38-3.17c0.55-1.26 0.84-2.64 0.87-4.15 0.02-1.51-0.21-2.89-0.72-4.15-0.5-1.26-1.28-2.31-2.34-3.17-1.06-0.85-2.39-1.28-4-1.28h-3.62v17.21h3.62zm-3.63 24.22h3.32c2.16 0 3.95-0.55 5.36-1.66s2.45-2.5 3.13-4.19c0.68-1.68 1.01-3.51 0.98-5.47s-0.4-3.79-1.13-5.47-1.79-3.08-3.17-4.19-3.11-1.66-5.17-1.66h-3.32v22.64z"/>
			
		
	
	
		
			
				<path class="st0" d="m60.57 59.09c0 2.37 0.28 3.98 0.83 4.83 0.55 0.86 1.38 1.28 2.49 1.28 0.5 0 0.75 0.25 0.75 0.75s-0.28 0.75-0.83 0.75h-15.54c-0.55 0-0.83-0.25-0.83-0.75s0.25-0.75 0.75-0.75c0.55 0 1.03-0.09 1.43-0.26 0.4-0.18 0.74-0.49 1.02-0.94s0.49-1.07 0.64-1.85 0.23-1.8 0.23-3.06v-12.83c0-2.46-0.28-4.07-0.83-4.83-0.55-0.75-1.38-1.13-2.49-1.13-0.5 0-0.79-0.23-0.87-0.68s0.24-0.75 0.94-0.91l10.49-2.11c0.85-0.2 1.37-0.25 1.55-0.15s0.26 0.63 0.26 1.58v21.06zm-9.81-32.6c0-1.61 0.48-2.83 1.43-3.66 0.96-0.83 2.11-1.25 3.47-1.25s2.51 0.48 3.47 1.43c0.96 0.96 1.43 2.11 1.43 3.47s-0.48 2.52-1.43 3.47c-0.96 0.96-2.11 1.43-3.47 1.43s-2.52-0.48-3.47-1.43-1.43-2.1-1.43-3.46z"/>
			
		
	
	
		
			
				<path class="st0" d="m107.88 31.39c-2.21 0-4.18 0.52-5.89 1.55s-3.21 2.32-4.49 3.85c-1.28 1.54-2.36 3.18-3.24 4.94s-1.57 3.35-2.08 4.75l-10.03 28.15c-0.2 0.55-0.53 1.23-0.98 2.04-0.45 0.8-1.05 1.6-1.77 2.38-0.73 0.78-1.56 1.45-2.49 2s-1.97 0.83-3.13 0.83c-1.06 0-1.92-0.35-2.6-1.06s-1.07-1.47-1.17-2.3 0.14-1.61 0.72-2.34 1.6-1.14 3.06-1.24c0.4 0 0.96-0.04 1.66-0.11 0.7-0.08 1.46-0.29 2.26-0.64s1.59-0.88 2.34-1.58c0.75-0.71 1.38-1.69 1.89-2.94l1.51-3.85-1.96 0.83c-0.91 0.4-1.64 0.3-2.19-0.3s-0.98-1.28-1.28-2.04l-5.36-14.64c-0.81-2.16-1.48-3.96-2.04-5.4-0.55-1.43-1.07-2.57-1.55-3.4s-0.94-1.42-1.4-1.77c-0.45-0.35-0.96-0.53-1.51-0.53-0.5 0-0.75-0.26-0.75-0.79s0.28-0.79 0.83-0.79h14.72c0.55 0 0.83 0.26 0.83 0.79s-0.25 0.79-0.75 0.79c-0.55 0-0.98 0.15-1.28 0.45s-0.43 0.87-0.38 1.7 0.29 1.96 0.72 3.4c0.43 1.43 1.09 3.26 2 5.47l3.77 9.21 4.53-12.38c0.35-1.01 0.84-2.33 1.47-3.96s1.35-3.37 2.15-5.21 1.71-3.68 2.72-5.55c1.01-1.86 2.09-3.55 3.24-5.06 1.16-1.51 2.4-2.73 3.74-3.66 1.33-0.93 2.73-1.4 4.19-1.4 1.66 0 2.89 0.52 3.7 1.55 0.8 1.03 1.21 2.15 1.21 3.36s-0.4 2.33-1.21 3.36c-0.83 1.03-2.07 1.54-3.73 1.54z"/>
			
		
	
	
		
			
				<path class="st0" d="m98 51.54c0-3.27 0.62-5.99 1.85-8.15s2.77-3.84 4.6-5.02c1.84-1.18 3.82-1.91 5.96-2.19s4.12-0.14 5.96 0.41 3.37 1.46 4.6 2.72 1.85 2.84 1.85 4.75c0 1.21-0.35 2.42-1.06 3.62-0.7 1.21-1.7 2.33-2.98 3.36s-2.8 1.94-4.57 2.72c-1.76 0.78-3.67 1.35-5.74 1.7 0.85 2.52 2.01 4.35 3.47 5.51s2.95 1.76 4.49 1.81c1.53 0.05 2.99-0.43 4.38-1.43 1.38-1.01 2.43-2.41 3.13-4.23 0.25-0.55 0.57-0.78 0.94-0.68 0.38 0.1 0.49 0.45 0.34 1.06-0.6 2.47-1.7 4.47-3.28 6-1.58 1.54-3.38 2.59-5.4 3.17-2.01 0.58-4.11 0.69-6.3 0.34s-4.19-1.16-6-2.42-3.31-2.98-4.49-5.17c-1.16-2.18-1.75-4.81-1.75-7.88zm20.3-7.92c0-1.31-0.28-2.43-0.83-3.36s-1.23-1.61-2.04-2.04-1.7-0.6-2.68-0.53c-0.98 0.08-1.87 0.47-2.68 1.17s-1.48 1.72-2.04 3.06c-0.55 1.33-0.83 3.03-0.83 5.09 0 2.67 0.28 5.03 0.83 7.09 3.32-0.8 5.86-2.15 7.62-4.04 1.77-1.88 2.65-4.03 2.65-6.44z"/>
			
		
	
	
		
			
				<path class="st0" d="m222.06 65.13c0.55 0.05 1.03-0.08 1.43-0.38s0.74-0.87 1.02-1.7 0.49-1.96 0.64-3.4c0.15-1.43 0.23-3.28 0.23-5.55v-23.91c0-2.41-0.28-3.95-0.83-4.6s-1.38-0.98-2.49-0.98c-0.5 0-0.79-0.26-0.87-0.79s0.24-0.79 0.94-0.79h15.54c0.7 0 1.02 0.26 0.94 0.79s-0.37 0.79-0.87 0.79c-1.11 0-1.94 0.38-2.49 1.13s-0.83 2.26-0.83 4.53v14.63l14.11-16.53c0.65-0.8 1.07-1.47 1.25-2s0.2-0.94 0.08-1.25c-0.13-0.3-0.37-0.51-0.72-0.64s-0.75-0.19-1.21-0.19c-0.45 0-0.68-0.24-0.68-0.72s0.25-0.72 0.75-0.72h9.28c0.5 0 0.75 0.24 0.75 0.72s-0.25 0.72-0.75 0.72c-0.86 0-1.77 0.24-2.75 0.72s-2.05 1.37-3.21 2.68l-9.21 10.72 11.09 20.98c0.65 1.31 1.19 2.34 1.62 3.09s0.79 1.33 1.09 1.73 0.59 0.67 0.87 0.79c0.28 0.13 0.64 0.19 1.09 0.19 0.55 0 0.82 0.25 0.79 0.75s-0.31 0.75-0.87 0.75h-15.39c-0.55 0-0.82-0.26-0.79-0.79s0.31-0.79 0.87-0.79c0.9 0 1.42-0.54 1.55-1.62s-0.24-2.45-1.09-4.11l-6.94-13.21-1.57 1.83v6.04c0 4.33 0.28 7.28 0.83 8.87s1.38 2.33 2.49 2.23c0.25 0 0.45 0.08 0.6 0.23s0.24 0.33 0.26 0.53-0.04 0.39-0.19 0.57-0.4 0.26-0.75 0.26h-15.54c-0.35 0-0.6-0.09-0.76-0.26-0.15-0.18-0.21-0.36-0.19-0.57 0.03-0.2 0.11-0.38 0.26-0.53 0.16-0.17 0.36-0.24 0.62-0.24z"/>
			
		
	
	
		
			
				<path class="st0" d="m287.41 51.54c0 3.47-0.72 6.36-2.15 8.68-1.43 2.31-3.22 4.05-5.36 5.21s-4.45 1.74-6.94 1.74-4.81-0.58-6.94-1.74c-2.14-1.16-3.92-2.89-5.36-5.21-1.43-2.31-2.15-5.21-2.15-8.68s0.72-6.36 2.15-8.68c1.43-2.31 3.22-4.05 5.36-5.21s4.45-1.74 6.94-1.74 4.8 0.58 6.94 1.74 3.92 2.89 5.36 5.21c1.43 2.32 2.15 5.21 2.15 8.68zm-9.14 0c0-4.58-0.55-8.02-1.66-10.34-1.11-2.31-2.33-3.47-3.66-3.47s-2.55 1.15-3.66 3.43c-1.11 2.29-1.66 5.75-1.66 10.38 0 4.68 0.55 8.18 1.66 10.49s2.33 3.47 3.66 3.47 2.55-1.17 3.66-3.51 1.66-5.82 1.66-10.45z"/>
			
		
	
	
		
			
				<path class="st0" d="m318.04 31.39c-1.56 0-2.96 0.35-4.19 1.06s-2.31 1.62-3.24 2.75-1.75 2.4-2.45 3.81c-0.71 1.41-1.31 2.78-1.81 4.11s-0.93 2.58-1.28 3.73c-0.35 1.16-0.68 2.06-0.98 2.72v6.04c0 2.16 0.08 3.87 0.23 5.13s0.36 2.21 0.64 2.87c0.28 0.65 0.62 1.07 1.02 1.25s0.88 0.26 1.43 0.26c0.5 0 0.79 0.26 0.87 0.79s-0.24 0.79-0.94 0.79h-15.54c-0.71 0-1.02-0.26-0.94-0.79s0.36-0.79 0.87-0.79c0.55 0 1.03-0.08 1.43-0.23s0.74-0.54 1.02-1.17 0.49-1.57 0.64-2.83 0.23-2.99 0.23-5.21v-4.3c0-2.26-0.08-4.12-0.23-5.58s-0.37-2.6-0.64-3.43c-0.28-0.83-0.62-1.4-1.02-1.7s-0.88-0.43-1.43-0.38c-0.25 0.05-0.45 0.01-0.6-0.11-0.15-0.13-0.24-0.29-0.26-0.49-0.03-0.2 0.04-0.39 0.19-0.57s0.4-0.31 0.75-0.42l10.49-2.11c0.85-0.2 1.37-0.25 1.55-0.15s0.26 0.63 0.26 1.58v7.47c0.25-1.01 0.57-2.3 0.94-3.89 0.38-1.58 0.84-3.26 1.4-5.02 0.55-1.76 1.19-3.53 1.92-5.32 0.73-1.78 1.57-3.4 2.53-4.83s2.03-2.6 3.21-3.51 2.5-1.36 3.96-1.36c1.66 0 2.91 0.52 3.73 1.55 0.83 1.03 1.23 2.15 1.21 3.36-0.03 1.21-0.45 2.33-1.28 3.36s-2.08 1.56-3.69 1.56z"/>
			
		
	
	
		
			
				<path class="st0" d="m341.81 53.43c0 2.26 0.08 4.04 0.23 5.32s0.36 2.25 0.64 2.91c0.28 0.65 0.62 1.06 1.02 1.21s0.88 0.18 1.43 0.08c0.5-0.05 0.79 0.16 0.87 0.64s-0.24 0.79-0.94 0.94l-10.49 2.11c-0.86 0.2-1.37 0.25-1.55 0.15s-0.26-0.63-0.26-1.58v-3.4c-0.75 1.16-1.74 2.15-2.94 2.98-1.21 0.83-2.52 1.46-3.92 1.89-1.41 0.43-2.83 0.59-4.26 0.49s-2.73-0.51-3.89-1.25c-1.16-0.73-2.1-1.81-2.83-3.24s-1.09-3.31-1.09-5.62v-5.58c0-2.26-0.08-4.12-0.23-5.58s-0.37-2.6-0.64-3.43c-0.28-0.83-0.62-1.4-1.02-1.7s-0.88-0.43-1.43-0.38c-0.25 0.05-0.45 0.01-0.6-0.11s-0.24-0.29-0.26-0.49c-0.03-0.2 0.04-0.39 0.19-0.57s0.4-0.31 0.75-0.41l10.49-2.11c0.85-0.2 1.37-0.25 1.55-0.15s0.26 0.63 0.26 1.58v18.94c0 1.76 0.2 3.14 0.6 4.15s0.92 1.7 1.55 2.08 1.33 0.5 2.11 0.38c0.78-0.13 1.53-0.4 2.26-0.83s1.4-0.96 2-1.58c0.6-0.63 1.06-1.27 1.36-1.92v-7.85c0-2.26-0.08-4.12-0.23-5.58s-0.37-2.6-0.64-3.43c-0.28-0.83-0.62-1.4-1.02-1.7s-0.88-0.43-1.43-0.38c-0.25 0.05-0.45 0.01-0.6-0.11s-0.24-0.29-0.26-0.49c-0.03-0.2 0.04-0.39 0.19-0.57s0.4-0.31 0.75-0.41l10.47-2.15c0.85-0.2 1.37-0.25 1.55-0.15s0.26 0.63 0.26 1.58v15.32z"/>
			
		
	
	
		
			
				<path class="st0" d="m379.01 55.62c0 2.16 0.06 3.87 0.19 5.13s0.33 2.21 0.6 2.87c0.28 0.65 0.62 1.07 1.02 1.25s0.88 0.26 1.43 0.26c0.5 0 0.79 0.26 0.87 0.79s-0.24 0.79-0.94 0.79h-15.54c-0.71 0-1.02-0.26-0.94-0.79s0.36-0.79 0.87-0.79c0.55 0 1.03-0.08 1.43-0.23s0.74-0.53 1.02-1.13 0.49-1.53 0.64-2.79 0.23-3.02 0.23-5.28v-9.51c0-2.67-0.43-4.48-1.28-5.43-0.86-0.96-1.85-1.36-2.98-1.21s-2.23 0.68-3.28 1.58c-1.06 0.91-1.81 1.84-2.26 2.79v11.7c0 2.16 0.08 3.87 0.23 5.13s0.36 2.21 0.64 2.87c0.28 0.65 0.62 1.07 1.02 1.25s0.88 0.26 1.43 0.26c0.5 0 0.79 0.26 0.87 0.79s-0.24 0.79-0.94 0.79h-15.55c-0.7 0-1.02-0.26-0.94-0.79s0.36-0.79 0.87-0.79c0.55 0 1.03-0.08 1.43-0.23s0.74-0.53 1.02-1.13 0.49-1.53 0.64-2.79 0.23-3.02 0.23-5.28v-4.3c0-2.26-0.08-4.12-0.23-5.58s-0.37-2.6-0.64-3.43c-0.28-0.83-0.62-1.4-1.02-1.7s-0.88-0.43-1.43-0.38c-0.25 0.05-0.45 0.01-0.6-0.11-0.15-0.13-0.24-0.29-0.26-0.49-0.03-0.2 0.04-0.39 0.19-0.57s0.4-0.31 0.75-0.42l10.49-2.11c0.85-0.2 1.37-0.25 1.55-0.15s0.26 0.63 0.26 1.58v3.4c0.75-1.16 1.74-2.15 2.94-2.98 1.21-0.83 2.52-1.46 3.92-1.89s2.83-0.59 4.26-0.49 2.73 0.52 3.89 1.25 2.1 1.82 2.83 3.28 1.09 3.32 1.09 5.58v9.43z"/>
			
		
	


	
		
			
				
					
						<path class="st1" d="m171.25 75.15-0.51-0.06c-5.21-2.24-10.67-4.81-15.29-8.36-0.08-0.06-0.17-0.13-0.25-0.2l-0.21-0.17c-3.55-2.77-6.75-5.86-9.53-9.19l-0.29-0.35c-0.58-0.7-1.13-1.41-1.66-2.12-0.12-0.15-0.22-0.29-0.32-0.45-1.34-1.84-2.56-3.77-3.61-5.7l-0.16-0.29 0.41-0.38-0.48 0.25c-6.63-12.49-6.15-24.71 1.24-31.88 3.7-3.59 7.88-5.31 12.42-5.11 8.86 0.39 16.29 7.85 17.99 9.69 1.7-1.83 9.13-9.3 17.99-9.69 4.54-0.19 8.71 1.52 12.4 5.11 0.85 0.83 1.6 1.7 2.22 2.61 0.08 0.1 0.18 0.25 0.27 0.39l0.1 0.15c0.92 1.41 1.66 2.95 2.2 4.6l0.1 0.31c0.05 0.17 0.09 0.29 0.12 0.41 0.95 3.33 1.13 7.02 0.51 10.99-0.01 0.21-0.05 0.41-0.09 0.61-0.12 0.71-0.26 1.38-0.42 2.05-0.03 0.14-0.06 0.28-0.1 0.42l-0.01 0.04c-3.7 14.94-16.76 28.5-34.94 36.28l-0.1 0.04zm-24.92-18.63c2.73 3.26 5.86 6.28 9.32 8.99 0.08 0.06 0.16 0.12 0.23 0.19 0.07 0.06 0.14 0.11 0.22 0.17 4.5 3.46 9.84 5.98 14.96 8.18 17.51-7.53 30.59-21.1 34.17-35.43l0.02-0.07c0.04-0.15 0.07-0.29 0.11-0.43 0.15-0.65 0.28-1.3 0.39-1.94 0.05-0.25 0.08-0.4 0.08-0.51l0.01-0.08c0.6-3.82 0.44-7.38-0.48-10.57-0.03-0.11-0.06-0.22-0.1-0.33l-0.11-0.35c-0.51-1.56-1.2-3.01-2.07-4.33l-0.11-0.16c-0.07-0.11-0.14-0.23-0.23-0.33-0.61-0.88-1.31-1.7-2.11-2.48-3.47-3.37-7.37-4.98-11.6-4.81-9.42 0.41-17.49 9.61-17.57 9.7l-0.16 0.19h-0.61l-0.16-0.19c-0.08-0.09-8.15-9.29-17.57-9.7-4.24-0.18-8.14 1.43-11.62 4.81-7.03 6.83-7.42 18.55-1.03 30.6l-0.41 0.36 0.48-0.25 0.15 0.28c1.03 1.9 2.22 3.79 3.56 5.62 0.1 0.16 0.18 0.27 0.29 0.4 0.53 0.71 1.08 1.41 1.64 2.1l0.31 0.37z"/>
					
				
			
		
	
	
		
			
				
					
						<path class="st2" d="m205.78 37.53c0 0.18-0.05 0.36-0.09 0.56-0.11 0.61-0.24 1.22-0.39 1.83-0.03 0.14-0.07 0.28-0.11 0.41-3.27 12.46-15.14 26.28-34.13 33.94l-0.26-0.12c-5.6-2.27-10.45-5.1-14.77-8.23-0.16-0.11-0.29-0.23-0.45-0.34-3.56-2.62-6.65-5.47-9.28-8.44l-0.01-0.01c-0.09-0.1-0.18-0.21-0.27-0.31-0.56-0.65-1.1-1.3-1.62-1.95-0.11-0.14-0.2-0.25-0.29-0.38-1.34-1.73-2.51-3.49-3.53-5.26-0.07-0.11-0.13-0.23-0.19-0.34-0.01-0.01-0.01-0.02-0.02-0.04-6.2-11.01-6.16-22.29 1.12-28.95 13.75-12.58 29.48 4.57 29.48 4.57h0.11s15.73-17.15 29.45-4.57c0.79 0.72 1.51 1.51 2.12 2.34 0.13 0.16 0.25 0.34 0.36 0.49 0.89 1.28 1.59 2.66 2.1 4.13l0.09 0.27c0.01 0.02 0.01 0.04 0.02 0.05 0.04 0.11 0.07 0.21 0.1 0.32 0.91 3.07 1.05 6.46 0.46 10.03z"/>
					
				
			
		
	
	
		
			
				<polygon class="st2" points="168.92 35.92 169.8 35.98 169.97 36.48 169.28 36.52 168.88 36"/>
			
		
	
	
		
			
				<polygon class="st2" points="169.87 34.49 169.8 35.65 170.29 35.57 170.63 35.16"/>
			
		
	
	
		
			
				<polygon class="st2" points="171.36 35.1 170.56 35.79 170.72 36.32 171.23 36.12"/>
			
		
	
	
		
			
				<path class="st3" d="m205.78 37.53c0 0.18-0.05 0.36-0.09 0.56-0.11 0.61-0.24 1.22-0.39 1.83-0.03 0.14-0.07 0.28-0.11 0.41l-0.13 0.03c-0.05 0.01-0.09 0.02-0.14 0.03s-0.09 0.02-0.14 0.03c-0.12 0.03-0.25 0.05-0.37 0.08-1 0.21-2.38 0.51-2.96 0.6l-0.03 0.01c-0.45 0.07-1.24 0.19-2.27 0.19-0.49 0-1.02-0.03-1.6-0.1-0.2 0.68-1.38 1.29-3.84 1.99-0.33 0.08-0.64 0.12-0.91 0.12-1.61 0-2.29-1.23-2.46-1.62-0.11-0.01-0.23-0.01-0.35-0.02l-0.15-0.01c-1.04-0.09-1.98-0.53-2.75-1.08-0.14 0.31-0.34 0.54-0.6 0.69-0.24 0.13-0.5 0.18-0.76 0.18-0.82 0-1.64-0.49-1.68-0.52l-0.05-0.03c-0.79-0.66-1.41-1.34-1.9-2.01-0.07 0.02-0.14 0.04-0.19 0.06-1.01 0.26-2.35 0.54-3.58 0.54-0.38 0-0.75-0.03-1.09-0.08h-0.01c-0.99-0.23-1.62-0.59-1.95-1.13-0.02-0.04-0.05-0.08-0.07-0.12l-0.03-0.06c-0.02-0.04-0.04-0.08-0.05-0.12-0.01-0.02-0.02-0.05-0.02-0.07-0.01-0.02-0.01-0.03-0.01-0.05-0.01-0.02-0.01-0.04-0.02-0.06-0.01-0.06-0.03-0.11-0.03-0.17 0-0.02-0.01-0.05-0.01-0.07 0-0.04-0.01-0.07-0.01-0.11-0.03-0.46 0.09-0.93 0.19-1.34l0.04-0.14c0.01-0.03 0.02-0.06 0.03-0.08 0.01-0.01 0.01-0.02 0.02-0.04 0.01-0.01 0.01-0.02 0.02-0.03s0.01-0.02 0.02-0.04 0.02-0.04 0.04-0.06l0.02-0.02c0.01-0.01 0.02-0.03 0.03-0.04 0.2-0.24 0.55-0.46 1.01-0.66 0.03-0.01 0.07-0.03 0.1-0.04 0.04-0.02 0.08-0.03 0.12-0.05 0.03-0.01 0.06-0.02 0.09-0.04 0.06-0.02 0.13-0.05 0.19-0.07 0.42-0.15 0.91-0.28 1.44-0.4 0.06-0.02 0.13-0.03 0.19-0.04 0.07-0.02 0.15-0.03 0.22-0.05 0.09-0.02 0.17-0.04 0.26-0.06 0.12-0.02 0.23-0.05 0.35-0.07 0.1-0.02 0.19-0.04 0.29-0.06 0.22-0.04 0.44-0.08 0.66-0.13 0.27-1.23 1-2.25 2.15-3.02-0.63 0.29-1.25 0.65-1.99 1.07-0.63 0.37-1.33 0.77-2.18 1.22-0.2 0.1-0.4 0.21-0.61 0.31-0.12 0.06-0.23 0.12-0.36 0.18-0.04 0.02-0.09 0.04-0.13 0.07-0.83 0.4-1.56 0.68-2.2 0.83h-0.01c-0.36 0.08-0.7 0.12-1 0.12-0.06 0-0.11 0-0.16-0.01-0.68-0.04-1.19-0.3-1.53-0.79l-0.02-0.03c-0.4-0.85 0.79-1.67 1.85-2.4 0.15-0.1 0.3-0.2 0.43-0.3 0.23-0.17 0.45-0.36 0.63-0.58 2.38-2.77 6.54-4.93 7.86-5.34l0.02-0.01h0.02c2.13-0.18 4.18-0.48 6.35-0.8 1.58-0.23 3.2-0.47 4.88-0.66h0.02 0.13c5.17 0 9.03 2.03 10.59 3l0.09 0.27c-0.04 0.02-0.04 0.03 0.02 0.05 0.04 0.11 0.07 0.21 0.1 0.32 0.92 3.08 1.06 6.47 0.47 10.04z"/>
			
		
	
	
		
			
				<path class="st3" d="m185.69 44.37c-0.42 0.79-1.5 1.35-3.19 1.67-1.91 0.36-4.08 0.78-5.93 1.15-1.32 0.31-2.3 0.5-2.32 0.5l-0.01-0.04c-0.75 0.15-1.35 0.27-1.72 0.36-0.3 0.07-0.82 0.12-1.49 0.2-2.54 0.29-7.26 0.83-9.03 2.74-0.12 0.19-0.24 0.37-0.35 0.55-0.99 1.55-1.48 2.4-0.76 3.21 0.21 0.24 0.73 0.55 1.34 0.91 2.07 1.24 5.53 3.32 4.89 7.11 0.03 0.22 0.12 1.2-0.44 1.47-0.09 0.04-0.19 0.07-0.3 0.07-0.48 0-1.14-0.45-2.03-1.38l-0.3-0.25c-2.54-2.13-4.94-4.15-10.27-4.86-0.38-0.05-0.79-0.09-1.23-0.14-1.71-0.18-3.65-0.38-5.28-1.18-0.08-0.04-0.15-0.08-0.22-0.11l-0.76 0.79c-0.09-0.1-0.18-0.21-0.27-0.31-0.56-0.65-1.1-1.3-1.62-1.95-0.11-0.14-0.2-0.25-0.29-0.38-1.34-1.73-2.51-3.49-3.53-5.26-0.07-0.11-0.13-0.23-0.19-0.34 0.95-0.9 1.84-1.75 2.38-2.26 0.06-0.06 0.12-0.11 0.17-0.16 1.73-1.64 5.47-2.76 9.44-3.94l0.76-0.23c1.37-0.41 2.53-0.85 3.52-1.26 0.3-0.28 3.05-2.91 5.05-5.29 1.74-2.06 3.82-4.55 4.53-5.4 0.12-0.14 0.2-0.23 0.23-0.27 0.02-0.05 0.08-0.17 0.16-0.33 0.16-0.32 0.41-0.8 0.69-1.28 0.93-1.55 1.39-1.68 1.66-1.64 0.45 0.07 0.55 0.69 0.58 0.95 0.27 0.57 0.46 1.2 0.39 2.01-0.69 1.44-1.42 2.93-2.05 4.2-1.36 1.86-3.01 3.84-3.8 4.77 1.75-0.51 3.83-1.23 5.31-1.84 0.2-0.08 0.38-0.16 0.56-0.24 0 0 0.01 0 0.01-0.01 0.09-0.04 0.18-0.08 0.27-0.12 0.07-0.03 0.15-0.07 0.23-0.1 0.08-0.04 0.16-0.07 0.24-0.11l0.39-0.18 0.12-0.06c0.05-0.02 0.09-0.04 0.14-0.07 0.87-0.42 1.74-0.85 2.48-1.23 0.39-0.2 0.74-0.38 1.03-0.53 0.5-0.26 0.81-0.42 0.82-0.43l0.02-0.01c0.21-0.08 0.85-0.32 1.52-0.46 0.38-0.08 0.77-0.12 1.09-0.08 0.24 0.03 0.45 0.11 0.58 0.26 0.16 0.18 0.2 0.42 0.12 0.73-0.02 0.07-0.04 0.15-0.07 0.23s-0.07 0.16-0.11 0.24c-0.01 0.01-0.01 0.02-0.02 0.04l-0.01 0.02c-0.21 0.32-0.56 0.7-1.04 1.13-0.44 0.4-0.99 0.83-1.64 1.29-0.21 0.15-0.43 0.3-0.66 0.46-0.06 0.04-0.12 0.08-0.19 0.12-0.06 0.04-0.12 0.08-0.19 0.12-0.92 0.59-1.98 1.2-3.16 1.8-0.4 0.2-0.81 0.41-1.23 0.61-1.09 0.51-2.27 1.01-3.5 1.46 2.13 0.21 7.48 0.74 11.88 1.07 0.81-0.18 1.61-0.36 2.32-0.52 2.1-0.47 2.84-0.64 3.01-0.64 0.08 0 0.35 0.03 0.42 0.44 0.04 0.24 0.01 0.6-0.13 1.01 0.2 0 0.37-0.01 0.51-0.02s0.26-0.02 0.34-0.04c0.1-0.02 0.2 0.03 0.24 0.13 0.01-0.01 0.22 0.51-0.11 1.13z"/>
			
		
	
	
		
			
				<path class="st4" d="m166.24 30.36s2.01 0.9 3.16-1.89c0 0 0.19-1.73-0.54-1.44-0.73 0.28-2.62 3.33-2.62 3.33z"/>
			
		
	
	
		
			
				<path class="st4" d="m183.58 44.62s1.69-0.03 1.98-0.64-0.33-0.65-0.33-0.65-0.53-0.02-0.58 0c-0.06 0.01-1.07 1.29-1.07 1.29z"/>
			
		
	
	
		
			
				
					<path class="st5" d="m184.07 30.54"/>
				
			
		
	
	
		
			
				<path class="st6" d="m185.8 43.21c-0.04-0.09-0.14-0.15-0.24-0.13-0.08 0.02-0.2 0.03-0.34 0.04s-0.31 0.01-0.51 0.02c0.15-0.42 0.18-0.78 0.13-1.01-0.08-0.41-0.34-0.44-0.42-0.44-0.17 0-0.91 0.17-3.01 0.64-0.71 0.16-1.51 0.34-2.32 0.52-4.4-0.33-9.75-0.85-11.88-1.07 1.24-0.45 2.41-0.95 3.5-1.46 0.42-0.2 0.84-0.4 1.23-0.61 1.18-0.6 2.24-1.21 3.16-1.8 0.06-0.04 0.12-0.08 0.19-0.12 0.06-0.04 0.13-0.08 0.19-0.12 0.23-0.15 0.45-0.31 0.66-0.46 0.08-0.06 0.16-0.11 0.24-0.17 0.06-0.04 0.12-0.08 0.17-0.13 0.03-0.02 0.05-0.04 0.08-0.06s0.05-0.04 0.08-0.06c0.08-0.06 0.15-0.12 0.23-0.17 0.04-0.03 0.07-0.05 0.1-0.08s0.07-0.05 0.1-0.08 0.07-0.05 0.1-0.08 0.07-0.05 0.1-0.08 0.06-0.05 0.09-0.08c0.03-0.02 0.06-0.05 0.09-0.08 0.05-0.04 0.09-0.08 0.13-0.11 0.04-0.04 0.08-0.07 0.12-0.11 0 0 0.01 0 0.01-0.01 0.48-0.43 0.83-0.82 1.04-1.13l0.01-0.02c0.01-0.01 0.01-0.02 0.02-0.04 0.04-0.08 0.08-0.16 0.11-0.24s0.06-0.16 0.07-0.23c0.08-0.31 0.04-0.55-0.12-0.73-0.13-0.15-0.34-0.23-0.58-0.26-0.32-0.04-0.71 0-1.09 0.08-0.66 0.13-1.3 0.37-1.52 0.46l-0.02 0.01c-0.01 0.01-0.32 0.17-0.82 0.43-0.29 0.15-0.64 0.33-1.03 0.53-0.05 0.02-0.09 0.05-0.14 0.07-0.14 0.07-0.29 0.15-0.44 0.22-0.07 0.04-0.15 0.08-0.23 0.11-0.15 0.08-0.31 0.15-0.47 0.23-0.4 0.2-0.8 0.4-1.21 0.59-0.05 0.02-0.09 0.04-0.14 0.07l-0.12 0.06-0.39 0.18c-0.08 0.04-0.16 0.07-0.24 0.11s-0.15 0.07-0.23 0.1c-0.09 0.04-0.18 0.08-0.27 0.12 0 0-0.01 0-0.01 0.01-0.17 0.08-0.36 0.16-0.56 0.24-1.48 0.62-3.56 1.34-5.31 1.84 0.79-0.93 2.45-2.9 3.8-4.77 0.23-0.32 0.46-0.64 0.67-0.94 0.93-1.36 1.31-2.4 1.38-3.25 0.07-0.8-0.12-1.44-0.39-2.01-0.03-0.25-0.13-0.88-0.58-0.95-0.27-0.04-0.74 0.08-1.66 1.64-0.28 0.48-0.53 0.96-0.69 1.28-0.08 0.16-0.14 0.28-0.16 0.33-0.03 0.04-0.11 0.13-0.23 0.27-0.7 0.84-2.78 3.34-4.53 5.4-2.01 2.38-4.75 5-5.05 5.29-0.99 0.41-2.14 0.85-3.52 1.26l-0.76 0.23c-3.97 1.18-7.72 2.3-9.44 3.94-0.05 0.05-0.11 0.11-0.17 0.16-0.63 0.59-1.51 1.41-2.4 2.23 0.01 0.01 0.01 0.03 0.02 0.04 0.06 0.11 0.13 0.23 0.19 0.34 1-0.92 2-1.84 2.65-2.46 1.65-1.57 5.35-2.67 9.27-3.84l0.76-0.23c2.14-0.64 3.75-1.35 5.05-1.92 1.25-0.55 2.14-0.94 2.82-0.96 1.43-0.04 6.1-1.53 8.7-2.64 0.11-0.05 0.22-0.09 0.32-0.14 0.33-0.15 0.67-0.3 1.01-0.47 1.42-0.67 2.94-1.45 3.86-1.93 0 0 0.01 0 0.01-0.01 0.01 0 0.01-0.01 0.02-0.01 0.47-0.24 0.78-0.41 0.84-0.44 0.44-0.17 0.99-0.34 1.48-0.44 0.47-0.09 0.89-0.12 1.12-0.03 0.01 0 0.01 0.01 0.02 0.01 0.04 0.02 0.07 0.04 0.09 0.06l0.02 0.02c0.08 0.1 0.06 0.28-0.05 0.54-0.03 0.06-0.06 0.12-0.09 0.19-0.01 0.02-0.02 0.04-0.04 0.05-0.06 0.08-0.13 0.18-0.21 0.27-0.27 0.32-0.67 0.7-1.18 1.11-0.07 0.05-0.13 0.11-0.2 0.16-0.16 0.13-0.34 0.26-0.52 0.4-0.27 0.2-0.55 0.4-0.86 0.61-0.07 0.05-0.14 0.1-0.22 0.15-0.07 0.04-0.14 0.09-0.21 0.14-0.91 0.59-1.97 1.21-3.15 1.82-0.37 0.19-0.76 0.39-1.16 0.58-1.39 0.67-2.92 1.3-4.54 1.86l-0.24 0.08c-0.16 0.05-0.13 0.29 0.04 0.31l0.25 0.03c0.42 0.04 6.24 0.64 11.43 1.06-1.91 0.41-3.61 0.75-4.03 0.71-1.02-0.08-5.6 0.28-6.75 0.37-0.14 0.01-0.24 0.13-0.23 0.27s0.13 0.24 0.27 0.23c1.13-0.09 5.7-0.45 6.67-0.37 0.59 0.05 2.88-0.43 5.83-1.09 0.03 0 0.07 0.01 0.1 0.01 1.73 0.13 3.29 0.22 4.43 0.25-0.01 0.01-0.01 0.02-0.02 0.03-0.34 0.51-0.96 1.14-2.09 1.58-2.75 1.06-7.64 2.03-7.69 2.04l0.01 0.04c-0.75 0.15-1.35 0.28-1.73 0.36-0.28 0.06-0.79 0.12-1.44 0.19-2.6 0.3-7.44 0.85-9.31 2.89l-0.02 0.03c-0.12 0.19-0.24 0.38-0.36 0.56-0.81 1.26-1.47 2.3-1.02 3.26l-1.97-1.06c-0.1-0.05-0.23-0.02-0.29 0.09-0.02 0.03-0.02 0.07-0.02 0.1 0 0.08 0.04 0.15 0.11 0.19l3.33 1.78c0.18 0.11 0.37 0.23 0.58 0.35 1.13 0.68 2.7 1.62 3.72 2.96 0.77 1.01 1.23 2.24 0.97 3.75l-0.01 0.03v0.03c0.05 0.36 0.03 0.95-0.2 1.06-0.11 0.05-0.55 0.12-1.85-1.24l-0.33-0.28c-0.33-0.28-0.65-0.55-0.98-0.82-2.27-1.86-4.74-3.5-9.5-4.14-0.39-0.05-0.8-0.09-1.24-0.14-1.68-0.17-3.57-0.37-5.14-1.14-1.73-0.85-2.69-2.23-2.92-4.24-0.01-0.11-0.12-0.19-0.23-0.18s-0.19 0.1-0.19 0.21v0.02c0.22 1.92 1.06 3.31 2.56 4.24l-0.65 0.69c0.09 0.1 0.18 0.21 0.27 0.31 0 0 0 0.01 0.01 0.01l0.75-0.79c0.07 0.04 0.15 0.08 0.22 0.11 1.63 0.8 3.57 1 5.28 1.18 0.44 0.05 0.85 0.09 1.23 0.14 5.33 0.71 7.73 2.72 10.27 4.86l0.3 0.25c0.89 0.93 1.55 1.38 2.03 1.38 0.11 0 0.21-0.02 0.3-0.07 0.56-0.27 0.47-1.24 0.44-1.47 0.63-3.8-2.82-5.87-4.89-7.11-0.61-0.36-1.13-0.68-1.34-0.91-0.72-0.82-0.23-1.66 0.76-3.21 0.11-0.18 0.23-0.36 0.35-0.55 1.77-1.92 6.49-2.45 9.03-2.74 0.66-0.08 1.19-0.14 1.49-0.2 0.37-0.08 0.97-0.2 1.72-0.36l0.01 0.04c0.02 0 1-0.2 2.32-0.5 1.86-0.37 4.02-0.79 5.93-1.15 1.7-0.32 2.77-0.89 3.19-1.67 0.32-0.56 0.11-1.08 0.1-1.1zm-24.68-3.81c-0.76 0.02-1.69 0.43-2.98 1-0.13 0.06-0.26 0.11-0.39 0.17 1.04-1.02 2.85-2.84 4.28-4.54 1.87-2.21 4.12-4.91 4.66-5.55 0.07-0.09 0.11-0.14 0.12-0.14l0.02-0.02 0.01-0.02c0-0.01 0.38-0.82 0.85-1.61 0.86-1.44 1.19-1.44 1.23-1.43 0.05 0.01 0.17 0.15 0.23 0.61v0.03l0.02 0.03c0.07 0.15 0.16 0.33 0.23 0.54 0.27 0.8 0.34 2.1-1.18 4.33-1.74 2.54-4.49 5.73-4.86 6.16-0.98 0.25-1.79 0.43-2.24 0.44zm19.74 3.57c0.22-0.05 0.44-0.1 0.67-0.15 1.27-0.29 2.48-0.56 2.82-0.62 0.02 0.11 0.03 0.34-0.08 0.69-0.02 0.07-0.05 0.15-0.09 0.24-0.86-0.01-2.01-0.07-3.32-0.16zm4.39 1.31c-0.3 0.44-1.03 1-2.83 1.35-0.25 0.05-0.5 0.1-0.76 0.15 0.13-0.05 0.25-0.09 0.37-0.14 0.72-0.28 1.27-0.63 1.69-1.02 0.37-0.34 0.64-0.71 0.82-1.06 0.39 0 0.7-0.01 0.92-0.03 0.02 0.15 0.01 0.38-0.14 0.65-0.03 0.03-0.05 0.06-0.07 0.1z"/>
			
		
	
	
		
			
				<path class="st6" d="m170.69 40.34c0.16-0.08-0.1-1.49-0.38-2.22-0.14-0.38-0.7-1.3-0.7-1.3l1.48-0.39s0.32 0.74 0.57 1.84 0.28 1.46 0.28 1.46l-1.25 0.61z"/>
			
		
	
	
		
			
				<path class="st4" d="m179.42 43.11s0.9 2.49 4.26 0.62c1.49-0.83 0.83-1.85 0.52-1.81-0.31 0.02-4.78 1.19-4.78 1.19z"/>
			
		
	
	
		
			
				<path class="st4" d="m175.03 34.65s-0.51 2.59 2.01 1.34 1.56-2.18 1.56-2.18-0.87-0.89-3.57 0.84z"/>
			
		
	
	
		
			
				
					
						<path class="st6" d="m205.3 27.52c-0.06-0.04-0.13-0.09-0.21-0.14-1.34-0.87-5.29-3.11-10.69-3.08-1.66 0.19-3.28 0.43-4.85 0.66-2.17 0.32-4.22 0.62-6.36 0.8-1.35 0.43-5.61 2.66-7.87 5.47l-0.03 0.03c-0.23 0.2-0.55 0.42-0.89 0.65-0.81 0.56-1.93 1.32-1.71 1.85 0.44 0.62 1.28 0.68 2.2 0.48 0.71-0.16 1.48-0.47 2.16-0.8 0.07-0.03 0.13-0.06 0.19-0.09 1.27-0.63 2.22-1.18 3.06-1.66 1.36-0.79 2.63-1.28 4.02-1.6l-0.17 0.29-0.03 0.05c-0.08 0.02-0.15 0.04-0.23 0.06-0.5 0.13-0.94 0.3-1.39 0.5-0.63 0.29-1.25 0.65-1.99 1.07-0.63 0.37-1.33 0.77-2.18 1.22-0.2 0.1-0.4 0.21-0.61 0.31-0.12 0.06-0.23 0.12-0.36 0.18-0.04 0.02-0.09 0.04-0.13 0.07-0.83 0.4-1.56 0.68-2.2 0.83h-0.01c-0.36 0.08-0.7 0.12-1 0.12-0.06 0-0.11 0-0.16-0.01-0.68-0.04-1.19-0.3-1.53-0.79l-0.02-0.03c-0.4-0.85 0.79-1.67 1.85-2.4 0.15-0.1 0.3-0.2 0.43-0.3 0.23-0.17 0.45-0.36 0.63-0.58 2.38-2.77 6.54-4.93 7.86-5.34l0.02-0.01h0.02c2.13-0.18 4.18-0.48 6.35-0.8 1.58-0.23 3.2-0.47 4.88-0.66h0.02 0.13c5.17 0 9.03 2.03 10.59 3l0.09 0.27c0.01 0.02 0.01 0.04 0.02 0.05 0.03 0.12 0.07 0.22 0.1 0.33z"/>
					
				
			
		
		
			
				
					
						<path class="st1" d="m191.07 29.52s-9.54-0.78-10.55 4.7c0 0 0.06 3.54 3.62 6.52 0 0 2.99 1.83 2.96-1.57 0 0-5.39-5.77 2.32-7.36l1.65-2.29z"/>
					
				
			
			
				
					
						<path class="st6" d="m191.09 29.3-0.01 0.18v0.03l-0.02 0.21s-0.05 0-0.13-0.01c-0.05 0-0.13-0.01-0.21-0.01-0.11 0-0.23-0.01-0.38-0.01-0.89-0.02-2.49 0-4.12 0.32-3.06 0.6-4.88 1.91-5.41 3.9-0.02 0.07-0.04 0.15-0.05 0.22-0.01 0.03-0.01 0.06-0.02 0.09 0 0.02 0 0.07 0.01 0.13 0.05 0.5 0.29 2.18 1.55 4.03 0.04 0.06 0.08 0.12 0.13 0.18 0.04 0.06 0.09 0.12 0.13 0.18 0.45 0.6 1.02 1.22 1.72 1.81 0.13 0.08 1.29 0.73 2 0.32 0.2-0.11 0.35-0.31 0.46-0.58 0.03-0.07 0.05-0.14 0.07-0.22s0.03-0.16 0.05-0.24c0.03-0.18 0.04-0.37 0.04-0.59-0.17-0.19-0.66-0.77-1.1-1.54-0.04-0.06-0.07-0.13-0.1-0.19s-0.07-0.13-0.1-0.19-0.06-0.13-0.09-0.19c-0.38-0.85-0.61-1.84-0.31-2.78 0.43-1.34 1.84-2.27 4.19-2.76l0.08 0.42c-2.19 0.45-3.49 1.28-3.87 2.47-0.24 0.76-0.08 1.57 0.22 2.3 0.06 0.14 0.12 0.28 0.19 0.42 0.03 0.06 0.07 0.13 0.1 0.19s0.07 0.13 0.11 0.19c0.48 0.84 1.03 1.43 1.04 1.44l0.06 0.06v0.08c0 0.37-0.03 0.69-0.09 0.97-0.02 0.08-0.04 0.15-0.06 0.22s-0.05 0.14-0.08 0.21c-0.14 0.31-0.34 0.54-0.6 0.69-0.24 0.13-0.5 0.18-0.76 0.18-0.82 0-1.64-0.49-1.68-0.52l-0.05-0.01c-0.79-0.66-1.41-1.34-1.9-2.01-0.05-0.06-0.09-0.12-0.13-0.18s-0.09-0.12-0.13-0.19c-1.23-1.85-1.48-3.51-1.54-4.09-0.01-0.12-0.01-0.19-0.01-0.21v-0.02-0.02c0.01-0.06 0.02-0.12 0.04-0.18 0.27-1.23 1-2.25 2.15-3.02 0.52-0.35 1.13-0.65 1.82-0.89 0.55-0.2 1.16-0.36 1.82-0.49 2.2-0.43 4.32-0.34 4.84-0.3h0.13z"/>
					
				
			
		
		
			
				
					
						<path class="st1" d="m184.8 37.9s2.08 3.27 5.04 3.53c2.26 0.12 3.13 0.2 3.8-1.62 0 0-9.13-3.89-5.28-5.83l-3.56 3.92z"/>
					
				
			
			
				
					
						<path class="st6" d="m193.91 39.7-0.07 0.19c-0.03 0.07-0.05 0.14-0.08 0.2-0.55 1.34-1.27 1.61-2.55 1.61-0.13 0-0.26 0-0.4-0.01-0.15-0.01-0.31-0.01-0.48-0.02-0.11-0.01-0.23-0.01-0.35-0.02l-0.15-0.01c-1.04-0.09-1.98-0.53-2.75-1.08-0.06-0.04-0.12-0.08-0.18-0.13-0.06-0.04-0.12-0.09-0.18-0.13-1.17-0.92-1.92-2.01-2.08-2.25-0.01-0.02-0.02-0.03-0.03-0.04l0.36-0.22s0.03 0.05 0.09 0.14c0.23 0.32 0.86 1.16 1.77 1.92 0.06 0.05 0.12 0.1 0.19 0.15 0.06 0.05 0.12 0.09 0.19 0.14 0.75 0.55 1.64 1 2.64 1.09l0.14 0.01c2.04 0.11 2.78 0.15 3.37-1.3-0.14-0.06-0.34-0.15-0.6-0.27-0.01 0-0.01-0.01-0.02-0.01-0.6-0.28-1.45-0.71-2.31-1.21-0.85-0.5-1.53-0.97-2.05-1.42-0.07-0.06-0.13-0.12-0.19-0.17-0.06-0.06-0.12-0.12-0.18-0.17-0.5-0.51-0.78-0.98-0.82-1.41 0-0.02 0-0.05-0.01-0.07-0.02-0.56 0.34-1.03 1.07-1.39l0.2 0.38c-0.57 0.29-0.84 0.61-0.83 1 0.01 0.43 0.36 0.9 0.89 1.38 0.06 0.06 0.13 0.12 0.2 0.17 0.07 0.06 0.14 0.11 0.21 0.17 1.14 0.91 2.81 1.8 4 2.36 0.3 0.14 0.58 0.26 0.8 0.36l0.19 0.06z"/>
					
				
			
		
		
			
				
					
						<path class="st6" d="m197.57 40.97c0 0.07-0.01 0.14-0.03 0.22-0.2 0.68-1.38 1.29-3.84 1.99-0.33 0.08-0.63 0.12-0.91 0.12-1.61 0-2.29-1.23-2.46-1.62-0.03-0.07-0.05-0.11-0.05-0.12l0.26-0.09 0.15-0.05c0 0.01 0.01 0.03 0.02 0.06 0.02 0.05 0.05 0.12 0.1 0.22 0.28 0.51 1.05 1.5 2.78 1.07 2.55-0.72 3.36-1.27 3.52-1.64 0.03-0.06 0.04-0.11 0.04-0.15l0.42-0.01z"/>
					
				
			
		
		
			
				
					
						<path class="st6" d="m205.3 39.92c-0.03 0.14-0.07 0.28-0.11 0.41-0.04 0.01-0.08 0.02-0.13 0.03s-0.09 0.02-0.14 0.03-0.09 0.02-0.14 0.03c-0.12 0.03-0.25 0.05-0.37 0.08-1 0.21-2.38 0.51-2.96 0.6l-0.03 0.01c-0.45 0.07-1.24 0.19-2.27 0.19-0.49 0-1.02-0.03-1.6-0.1-0.14-0.02-0.28-0.04-0.43-0.06-0.74-0.12-1.55-0.31-2.39-0.61l-0.01-0.01-0.95-0.42-0.2-0.09-0.79-0.35-0.02-0.02 0.18-0.38 1.95 0.86c3.02 1.09 5.53 0.71 6.48 0.56h0.03c0.58-0.09 1.94-0.38 2.94-0.59 0.11-0.02 0.21-0.05 0.31-0.07 0.22-0.05 0.38-0.08 0.51-0.11 0.03-0.01 0.09-0.01 0.14 0.01z"/>
					
				
			
		
		
			
				
					
						<path class="st1" d="m193.89 27.68s-4.39 2.84-5.4 3.38-5.64 2.7-6.92 2.94-5.84 0.91-6.11 2.03c-0.27 1.11-0.74 2.58 1.82 3.16 1.45 0.25 3.36-0.13 4.58-0.45s7.64-2.85 11.76-2.48l0.27-8.58z"/>
					
				
			
			
				
					
						<path class="st6" d="m193.88 27.92c-0.01 0.02-0.03 0.04-0.05 0.05-0.48 0.31-1.82 1.17-3.05 1.94-0.93 0.59-1.8 1.12-2.19 1.33-0.96 0.51-5.64 2.71-6.99 2.96-0.13 0.02-0.29 0.05-0.47 0.08-0.12 0.02-0.25 0.04-0.39 0.07-0.07 0.01-0.14 0.02-0.21 0.04-0.07 0.01-0.14 0.02-0.21 0.04-0.76 0.14-1.7 0.33-2.53 0.56-1.81 0.5-2.09 0.92-2.13 1.08l-0.03 0.14c-0.15 0.61-0.32 1.3 0.01 1.84 0.26 0.43 0.81 0.73 1.68 0.93 1.47 0.25 3.44-0.17 4.49-0.44 0.01 0 0.03-0.01 0.05-0.01 0.06-0.02 0.13-0.04 0.22-0.06 0.07-0.02 0.14-0.04 0.22-0.07 0.19-0.06 0.42-0.14 0.67-0.22 0.61-0.2 1.39-0.46 2.28-0.73 0.12-0.04 0.24-0.07 0.36-0.11l0.42-0.12c0.64-0.19 1.32-0.37 2.01-0.53l0.24-0.06c0.08-0.02 0.17-0.04 0.25-0.06 1.69-0.38 3.43-0.62 4.92-0.53 0.11 0.01 0.19 0.1 0.19 0.2v0.02 0.01c-0.01 0.11-0.11 0.2-0.22 0.19-1.35-0.09-2.92 0.12-4.48 0.45l-0.27 0.06c-0.09 0.02-0.17 0.04-0.26 0.06-0.75 0.17-1.48 0.37-2.18 0.57l-0.42 0.12c-0.25 0.07-0.49 0.15-0.72 0.22-0.07 0.02-0.14 0.04-0.21 0.07-0.07 0.02-0.14 0.04-0.21 0.07-0.59 0.19-1.12 0.37-1.56 0.51-0.2 0.07-0.38 0.13-0.54 0.18-0.08 0.03-0.15 0.05-0.22 0.07-0.08 0.03-0.15 0.05-0.22 0.07s-0.14 0.04-0.19 0.06c-1.01 0.26-2.35 0.54-3.58 0.54-0.38 0-0.75-0.03-1.09-0.08h-0.01c-0.99-0.22-1.62-0.59-1.95-1.13-0.43-0.69-0.22-1.51-0.06-2.16l0.03-0.13c0.22-0.92 2.51-1.5 5.1-1.98 0.08-0.01 0.15-0.03 0.23-0.04s0.15-0.03 0.23-0.04 0.17-0.03 0.25-0.04c0.18-0.03 0.34-0.06 0.47-0.08 1.22-0.22 5.75-2.33 6.86-2.92 0.35-0.18 1.1-0.65 1.94-1.17 0.11-0.07 0.22-0.14 0.33-0.2 0.1-0.07 0.21-0.13 0.31-0.2 1.1-0.7 2.21-1.41 2.63-1.68 0.1-0.06 0.23-0.03 0.29 0.06 0.02 0.04 0.01 0.14-0.04 0.2z"/>
					
				
			
		
	
	
		
			
				
					<path class="st6" d="m169.59 34.06-1.39 1.38 1.21 1.46h1.03l0.67-0.41 0.22-0.13 0.04-0.34 0.17-1.71-1.95-0.25zm1.52 2.07v0.03 0.04l-0.59 0.36-0.04-0.14-0.21-0.7 0.96-0.83-0.03 0.34-0.09 0.9zm0.19-1.61-0.55 0.47-0.79-0.63 1.34 0.16zm-1.56-0.03 0.13 0.1 0.7 0.56-0.48 0.42-0.28-0.02-0.19-0.01 0.12-1.05zm-0.25 0.01-0.12 1.01 0.08 0.01-0.92-0.07 0.96-0.95zm0.04 2.15-0.11-0.14-0.48-0.59-0.17-0.21 1.26 0.09 0.22 0.72 0.04 0.11v0.01h-0.76z"/>
				
			
		
	
	
		
			
				<path class="st6" d="m177.63 38.47c-0.55 0-0.9-0.15-1.12-0.3-0.31-0.21-0.45-0.5-0.48-0.68-0.05-0.36 0.01-0.64 0.08-0.84 0.1-0.3 0.34-0.53 0.65-0.62 0.48-0.15 1.37-0.34 1.64-0.4 0.49-0.1 1.14 0.52 1.29 1.22 0.16 0.74-0.27 1.3-1.16 1.5-0.34 0.09-0.64 0.12-0.9 0.12zm0.88-2.57c-0.02 0-0.04 0-0.06 0.01-0.27 0.05-1.15 0.25-1.62 0.39-0.22 0.07-0.4 0.24-0.47 0.46-0.06 0.18-0.12 0.41-0.07 0.72 0.02 0.1 0.11 0.32 0.37 0.5 0.28 0.19 0.82 0.37 1.81 0.15 1.01-0.23 1.04-0.84 0.96-1.19-0.11-0.58-0.6-1.04-0.92-1.04z"/>
			
		
	
	
		
			
				<path class="st6" d="m191.29 41.14c-0.25 0-0.48-0.05-0.68-0.16-0.31-0.18-0.52-0.38-0.64-0.61-0.14-0.27-0.12-0.57 0.04-0.85 0.34-0.59 1.1-0.79 1.69-0.45 0.4 0.23 0.87 0.63 0.96 1.03 0.04 0.17 0.01 0.33-0.09 0.46-0.26 0.36-0.79 0.58-1.28 0.58zm-0.2-1.95c-0.33 0-0.65 0.17-0.82 0.47-0.12 0.2-0.13 0.39-0.03 0.57 0.09 0.17 0.27 0.34 0.52 0.49 0.46 0.26 1.28 0.09 1.58-0.33 0.05-0.07 0.06-0.14 0.04-0.23-0.06-0.29-0.46-0.64-0.82-0.84-0.15-0.09-0.31-0.13-0.47-0.13z"/>
			
		
	
	
		
			
				<path class="st6" d="m184.51 41.05h-0.04l0.02-0.27c0.24 0.03 1.02-0.26 1.31-0.71 0.13-0.19 0.14-0.38 0.04-0.57l0.24-0.13c0.15 0.28 0.13 0.57-0.05 0.85-0.34 0.51-1.16 0.83-1.52 0.83z"/>
			
		
	


	
		
			
				<path class="st0" d="m74.31 99.56c0.1 0.25 0.21 0.5 0.31 0.76 0.1-0.26 0.21-0.52 0.32-0.77s0.22-0.5 0.35-0.73l4.66-8.73c0.06-0.11 0.12-0.2 0.18-0.26 0.06-0.07 0.13-0.11 0.21-0.14s0.16-0.05 0.26-0.05c0.09-0.01 0.21-0.01 0.34-0.01h2.21v15.76h-2.58v-10.19c0-0.19 0.01-0.4 0.02-0.62 0.01-0.23 0.03-0.45 0.05-0.69l-4.76 8.93c-0.11 0.2-0.25 0.36-0.43 0.47-0.17 0.11-0.38 0.17-0.61 0.17h-0.4c-0.23 0-0.44-0.06-0.61-0.17s-0.32-0.27-0.42-0.47l-4.83-8.97c0.03 0.24 0.05 0.47 0.06 0.7s0.02 0.44 0.02 0.64v10.18h-2.58v-15.75h2.21c0.13 0 0.24 0 0.34 0.01 0.09 0.01 0.18 0.03 0.26 0.05 0.08 0.03 0.15 0.08 0.21 0.14 0.07 0.06 0.13 0.15 0.19 0.26l4.71 8.75c0.09 0.24 0.21 0.48 0.31 0.73z"/>
			
		
	
	
		
			
				<path class="st0" d="m95.15 94.02c0.7 0 1.35 0.11 1.94 0.34s1.1 0.55 1.53 0.99c0.43 0.43 0.76 0.96 1 1.59s0.36 1.35 0.36 2.15c0 0.2-0.01 0.37-0.03 0.51-0.02 0.13-0.05 0.24-0.1 0.32s-0.11 0.13-0.19 0.16-0.18 0.05-0.31 0.05h-6.91c0.08 1.15 0.39 1.99 0.93 2.53s1.25 0.81 2.14 0.81c0.44 0 0.81-0.05 1.13-0.15s0.59-0.21 0.83-0.34c0.24-0.12 0.44-0.24 0.62-0.34s0.35-0.15 0.52-0.15c0.11 0 0.2 0.02 0.28 0.07 0.08 0.04 0.15 0.1 0.21 0.19l0.78 0.98c-0.3 0.35-0.63 0.64-1 0.88s-0.76 0.42-1.16 0.57c-0.4 0.14-0.81 0.24-1.23 0.3s-0.82 0.09-1.21 0.09c-0.78 0-1.5-0.13-2.17-0.39s-1.25-0.64-1.74-1.14-0.88-1.13-1.17-1.87c-0.28-0.74-0.42-1.61-0.42-2.59 0-0.76 0.12-1.48 0.37-2.15s0.6-1.26 1.06-1.75c0.46-0.5 1.02-0.89 1.69-1.18 0.67-0.33 1.42-0.48 2.25-0.48zm0.06 1.93c-0.78 0-1.4 0.22-1.84 0.66s-0.73 1.07-0.85 1.89h5.06c0-0.35-0.05-0.68-0.14-0.99s-0.24-0.58-0.44-0.81-0.44-0.42-0.74-0.55c-0.31-0.13-0.65-0.2-1.05-0.2z"/>
			
		
	
	
		
			
				<path class="st0" d="m111.16 94.02c0.7 0 1.35 0.11 1.94 0.34s1.1 0.55 1.53 0.99c0.43 0.43 0.76 0.96 1 1.59s0.36 1.35 0.36 2.15c0 0.2-0.01 0.37-0.03 0.51-0.02 0.13-0.05 0.24-0.1 0.32s-0.11 0.13-0.19 0.16-0.18 0.05-0.31 0.05h-6.91c0.08 1.15 0.39 1.99 0.93 2.53s1.25 0.81 2.14 0.81c0.44 0 0.81-0.05 1.13-0.15s0.59-0.21 0.83-0.34c0.24-0.12 0.44-0.24 0.62-0.34s0.35-0.15 0.52-0.15c0.11 0 0.2 0.02 0.28 0.07 0.08 0.04 0.15 0.1 0.21 0.19l0.78 0.98c-0.3 0.35-0.63 0.64-1 0.88s-0.76 0.42-1.16 0.57c-0.4 0.14-0.81 0.24-1.23 0.3s-0.82 0.09-1.21 0.09c-0.78 0-1.5-0.13-2.17-0.39s-1.25-0.64-1.74-1.14-0.88-1.13-1.17-1.87c-0.28-0.74-0.42-1.61-0.42-2.59 0-0.76 0.12-1.48 0.37-2.15s0.6-1.26 1.06-1.75c0.46-0.5 1.02-0.89 1.69-1.18 0.66-0.33 1.41-0.48 2.25-0.48zm0.05 1.93c-0.78 0-1.4 0.22-1.84 0.66s-0.73 1.07-0.85 1.89h5.06c0-0.35-0.05-0.68-0.14-0.99s-0.24-0.58-0.44-0.81-0.44-0.42-0.74-0.55-0.65-0.2-1.05-0.2z"/>
			
		
	
	
		
			
				<path class="st0" d="m126.22 105.55c-0.97 0-1.71-0.27-2.23-0.82s-0.78-1.31-0.78-2.27v-6.24h-1.13c-0.15 0-0.27-0.05-0.38-0.14s-0.16-0.24-0.16-0.42v-1.07l1.8-0.29 0.57-3.05c0.03-0.15 0.1-0.26 0.2-0.34 0.11-0.08 0.24-0.12 0.4-0.12h1.39v3.52h2.94v1.92h-2.94v6.06c0 0.35 0.09 0.62 0.26 0.82s0.41 0.29 0.7 0.29c0.17 0 0.31-0.02 0.42-0.06s0.21-0.08 0.29-0.13c0.08-0.04 0.16-0.09 0.22-0.13 0.07-0.04 0.13-0.06 0.2-0.06 0.08 0 0.15 0.02 0.2 0.06s0.11 0.1 0.16 0.18l0.81 1.31c-0.39 0.33-0.84 0.57-1.35 0.74-0.52 0.16-1.05 0.24-1.59 0.24z"/>
			
		
	
	
		
			
				<path class="st0" d="m149.69 89.45c0.64 0 1.21 0.1 1.72 0.29 0.5 0.2 0.94 0.46 1.3 0.78 0.36 0.33 0.64 0.7 0.85 1.12s0.33 0.86 0.36 1.31l-1.71 0.36c-0.02 0.01-0.05 0.01-0.07 0.01h-0.07c-0.12 0-0.23-0.03-0.33-0.1s-0.18-0.18-0.23-0.32c-0.07-0.19-0.15-0.37-0.25-0.54s-0.23-0.32-0.37-0.45c-0.15-0.13-0.32-0.23-0.51-0.31-0.2-0.08-0.42-0.11-0.68-0.11-0.31 0-0.58 0.05-0.82 0.16s-0.44 0.25-0.61 0.42c-0.17 0.18-0.29 0.39-0.38 0.62-0.09 0.24-0.13 0.48-0.13 0.75 0 0.22 0.02 0.43 0.07 0.63s0.12 0.41 0.22 0.61 0.23 0.41 0.4 0.63c0.16 0.21 0.36 0.45 0.6 0.69l4.18 4.35c0.24-0.46 0.43-0.94 0.58-1.45s0.24-1.02 0.28-1.55c0.01-0.17 0.07-0.3 0.16-0.4s0.22-0.15 0.39-0.15h1.69c-0.01 0.96-0.15 1.87-0.41 2.75-0.27 0.87-0.65 1.67-1.15 2.41l3.3 3.42h-2.64c-0.14 0-0.26-0.01-0.37-0.02s-0.2-0.04-0.3-0.08c-0.09-0.04-0.18-0.09-0.27-0.16s-0.18-0.15-0.27-0.25l-1.09-1.12c-0.7 0.57-1.47 1.01-2.33 1.33-0.85 0.32-1.78 0.48-2.77 0.48-0.61 0-1.21-0.1-1.79-0.31s-1.1-0.51-1.56-0.9-0.83-0.87-1.11-1.42c-0.28-0.56-0.42-1.18-0.42-1.88 0-0.49 0.08-0.95 0.24-1.39s0.38-0.85 0.66-1.23 0.62-0.72 1.01-1.02c0.39-0.31 0.82-0.57 1.28-0.78-0.39-0.54-0.67-1.08-0.84-1.6-0.18-0.52-0.27-1.04-0.27-1.55 0-0.54 0.1-1.06 0.3-1.55s0.49-0.92 0.87-1.28 0.85-0.65 1.4-0.87 1.19-0.33 1.89-0.33zm-3.8 11.37c0 0.4 0.07 0.76 0.21 1.08s0.33 0.59 0.57 0.81 0.52 0.39 0.83 0.51c0.32 0.12 0.65 0.18 1.01 0.18 0.64 0 1.22-0.1 1.75-0.3s1.01-0.48 1.44-0.83l-4.14-4.25c-0.58 0.38-1 0.8-1.27 1.27-0.26 0.48-0.4 0.99-0.4 1.53z"/>
			
		
	
	
		
			
				<path class="st0" d="m179.77 103.22c0.66 0 1.24-0.06 1.73-0.18s0.96-0.28 1.4-0.5v-2.87h-1.97c-0.19 0-0.34-0.05-0.45-0.16-0.11-0.1-0.16-0.23-0.16-0.39v-1.66h5.24v6.37c-0.4 0.29-0.82 0.54-1.25 0.76-0.43 0.21-0.89 0.39-1.38 0.53s-1.02 0.24-1.57 0.31c-0.56 0.07-1.16 0.1-1.81 0.1-1.15 0-2.21-0.2-3.17-0.6-0.97-0.4-1.8-0.96-2.51-1.67-0.7-0.71-1.25-1.56-1.65-2.55s-0.59-2.07-0.59-3.24c0-1.18 0.19-2.27 0.58-3.26 0.38-0.99 0.93-1.84 1.64-2.55s1.57-1.26 2.58-1.66c1.01-0.39 2.14-0.59 3.4-0.59 1.29 0 2.4 0.19 3.34 0.57s1.74 0.88 2.39 1.49l-0.85 1.33c-0.17 0.27-0.39 0.4-0.66 0.4-0.17 0-0.35-0.06-0.53-0.17-0.23-0.14-0.47-0.28-0.71-0.41-0.24-0.14-0.51-0.26-0.81-0.36-0.29-0.1-0.62-0.18-0.99-0.25-0.37-0.06-0.79-0.1-1.27-0.1-0.78 0-1.48 0.13-2.11 0.39s-1.16 0.64-1.61 1.12c-0.44 0.49-0.78 1.07-1.02 1.75s-0.36 1.45-0.36 2.29c0 0.91 0.13 1.72 0.38 2.42 0.25 0.71 0.61 1.31 1.07 1.79 0.46 0.49 1 0.86 1.63 1.12 0.61 0.3 1.3 0.43 2.05 0.43z"/>
			
		
	
	
		
			
				<path class="st0" d="m197.12 94.02c0.7 0 1.35 0.11 1.94 0.34s1.1 0.55 1.53 0.99c0.43 0.43 0.76 0.96 1 1.59s0.36 1.35 0.36 2.15c0 0.2-0.01 0.37-0.03 0.51-0.02 0.13-0.05 0.24-0.1 0.32s-0.11 0.13-0.19 0.16-0.18 0.05-0.31 0.05h-6.91c0.08 1.15 0.39 1.99 0.93 2.53s1.25 0.81 2.14 0.81c0.44 0 0.81-0.05 1.13-0.15s0.59-0.21 0.83-0.34c0.24-0.12 0.44-0.24 0.62-0.34s0.35-0.15 0.52-0.15c0.11 0 0.2 0.02 0.28 0.07 0.08 0.04 0.15 0.1 0.21 0.19l0.78 0.98c-0.3 0.35-0.63 0.64-1 0.88s-0.76 0.42-1.16 0.57c-0.4 0.14-0.81 0.24-1.23 0.3s-0.82 0.09-1.21 0.09c-0.78 0-1.5-0.13-2.17-0.39s-1.25-0.64-1.74-1.14-0.88-1.13-1.17-1.87c-0.28-0.74-0.42-1.61-0.42-2.59 0-0.76 0.12-1.48 0.37-2.15s0.6-1.26 1.06-1.75c0.46-0.5 1.02-0.89 1.69-1.18 0.66-0.33 1.41-0.48 2.25-0.48zm0.05 1.93c-0.78 0-1.4 0.22-1.84 0.66s-0.73 1.07-0.85 1.89h5.06c0-0.35-0.05-0.68-0.14-0.99s-0.24-0.58-0.44-0.81-0.44-0.42-0.74-0.55-0.65-0.2-1.05-0.2z"/>
			
		
	
	
		
			
				<path class="st0" d="m212.17 105.55c-0.97 0-1.71-0.27-2.23-0.82s-0.78-1.31-0.78-2.27v-6.24h-1.13c-0.15 0-0.27-0.05-0.38-0.14s-0.16-0.24-0.16-0.42v-1.07l1.8-0.29 0.57-3.05c0.03-0.15 0.1-0.26 0.2-0.34 0.11-0.08 0.24-0.12 0.4-0.12h1.39v3.52h2.94v1.92h-2.94v6.06c0 0.35 0.09 0.62 0.26 0.82s0.41 0.29 0.7 0.29c0.17 0 0.31-0.02 0.42-0.06s0.21-0.08 0.29-0.13c0.08-0.04 0.16-0.09 0.22-0.13 0.07-0.04 0.13-0.06 0.2-0.06 0.08 0 0.15 0.02 0.2 0.06s0.11 0.1 0.16 0.18l0.81 1.31c-0.39 0.33-0.84 0.57-1.35 0.74-0.52 0.16-1.04 0.24-1.59 0.24z"/>
			
		
	
	
		
			
				<path class="st0" d="m238.26 99.56c0.1 0.25 0.21 0.5 0.31 0.76 0.1-0.26 0.21-0.52 0.32-0.77s0.23-0.5 0.35-0.73l4.66-8.73c0.06-0.11 0.12-0.2 0.18-0.26 0.06-0.07 0.13-0.11 0.21-0.14s0.16-0.05 0.26-0.05c0.09-0.01 0.21-0.01 0.34-0.01h2.21v15.76h-2.58v-10.19c0-0.19 0.01-0.4 0.02-0.62 0.01-0.23 0.03-0.45 0.05-0.69l-4.76 8.93c-0.11 0.2-0.25 0.36-0.42 0.47s-0.38 0.17-0.61 0.17h-0.4c-0.23 0-0.44-0.06-0.61-0.17s-0.32-0.27-0.42-0.47l-4.83-8.97c0.03 0.24 0.05 0.47 0.06 0.7s0.02 0.44 0.02 0.64v10.18h-2.58v-15.75h2.21c0.13 0 0.24 0 0.34 0.01 0.09 0.01 0.18 0.03 0.26 0.05 0.08 0.03 0.15 0.08 0.21 0.14s0.13 0.15 0.18 0.26l4.71 8.75c0.09 0.24 0.21 0.48 0.31 0.73z"/>
			
		
	
	
		
			
				<path class="st0" d="m263.24 105.38h-1.21c-0.25 0-0.45-0.04-0.6-0.11-0.15-0.08-0.25-0.23-0.33-0.46l-0.24-0.8c-0.28 0.25-0.56 0.48-0.83 0.67s-0.55 0.35-0.84 0.48-0.6 0.23-0.93 0.29c-0.33 0.07-0.69 0.1-1.09 0.1-0.47 0-0.91-0.06-1.31-0.19s-0.74-0.32-1.03-0.57-0.51-0.57-0.67-0.95-0.24-0.82-0.24-1.32c0-0.42 0.11-0.84 0.33-1.25s0.59-0.78 1.11-1.11 1.2-0.61 2.06-0.83 1.92-0.33 3.19-0.33v-0.66c0-0.75-0.16-1.31-0.47-1.67-0.32-0.36-0.78-0.54-1.38-0.54-0.44 0-0.8 0.05-1.09 0.15s-0.54 0.22-0.76 0.34-0.41 0.24-0.59 0.34-0.38 0.15-0.6 0.15c-0.18 0-0.34-0.05-0.47-0.14s-0.24-0.21-0.32-0.35l-0.49-0.86c1.29-1.18 2.84-1.77 4.65-1.77 0.65 0 1.24 0.11 1.75 0.32s0.95 0.51 1.3 0.89c0.36 0.38 0.63 0.84 0.81 1.37 0.19 0.53 0.28 1.11 0.28 1.74v7.07zm-5.23-1.68c0.28 0 0.53-0.03 0.76-0.08s0.45-0.13 0.66-0.22c0.21-0.1 0.41-0.22 0.6-0.37s0.39-0.32 0.58-0.52v-1.87c-0.78 0-1.44 0.05-1.97 0.15s-0.95 0.23-1.27 0.38-0.55 0.33-0.68 0.54c-0.13 0.2-0.2 0.43-0.2 0.67 0 0.48 0.14 0.82 0.42 1.02 0.29 0.2 0.65 0.3 1.1 0.3z"/>
			
		
	
	
		
			
				<path class="st0" d="m270.25 105.38v-11.18h1.58c0.28 0 0.47 0.05 0.58 0.15s0.18 0.28 0.22 0.52l0.16 1.35c0.4-0.69 0.87-1.23 1.41-1.63s1.14-0.6 1.81-0.6c0.55 0 1.01 0.13 1.37 0.38l-0.35 2.02c-0.02 0.13-0.07 0.22-0.14 0.28-0.07 0.05-0.17 0.08-0.29 0.08-0.11 0-0.26-0.03-0.45-0.08s-0.44-0.08-0.75-0.08c-0.56 0-1.04 0.15-1.44 0.46s-0.74 0.76-1.01 1.36v6.96h-2.7z"/>
			
		
	
	
		
			
				<path class="st0" d="m283.51 105.38v-11.18h1.58c0.28 0 0.47 0.05 0.58 0.15s0.18 0.28 0.22 0.52l0.16 1.35c0.4-0.69 0.87-1.23 1.41-1.63s1.14-0.6 1.81-0.6c0.55 0 1.01 0.13 1.37 0.38l-0.35 2.02c-0.02 0.13-0.07 0.22-0.14 0.28-0.07 0.05-0.17 0.08-0.29 0.08-0.11 0-0.26-0.03-0.45-0.08s-0.44-0.08-0.75-0.08c-0.56 0-1.04 0.15-1.44 0.46s-0.74 0.76-1.01 1.36v6.96h-2.7z"/>
			
		
	
	
		
			
				<path class="st0" d="m300.04 90.94c0 0.23-0.05 0.45-0.14 0.65s-0.22 0.38-0.38 0.53-0.34 0.27-0.55 0.37c-0.21 0.09-0.44 0.14-0.68 0.14-0.23 0-0.45-0.05-0.66-0.14s-0.39-0.21-0.54-0.37c-0.15-0.15-0.27-0.33-0.37-0.53-0.09-0.2-0.14-0.42-0.14-0.65 0-0.24 0.05-0.46 0.14-0.68 0.09-0.21 0.21-0.39 0.37-0.55 0.15-0.15 0.33-0.27 0.54-0.36s0.43-0.14 0.66-0.14c0.24 0 0.46 0.05 0.68 0.14 0.21 0.09 0.39 0.21 0.55 0.36s0.28 0.33 0.38 0.55c0.09 0.21 0.14 0.44 0.14 0.68zm-0.41 3.26v11.18h-2.69v-11.18h2.69z"/>
			
		
	
	
		
			
				<path class="st0" d="m311.65 94.02c0.7 0 1.35 0.11 1.95 0.34 0.59 0.23 1.1 0.55 1.53 0.99 0.43 0.43 0.76 0.96 1 1.59s0.36 1.35 0.36 2.15c0 0.2-0.01 0.37-0.03 0.51-0.02 0.13-0.05 0.24-0.1 0.32s-0.11 0.13-0.19 0.16-0.18 0.05-0.31 0.05h-6.91c0.08 1.15 0.39 1.99 0.93 2.53s1.25 0.81 2.14 0.81c0.44 0 0.81-0.05 1.13-0.15s0.59-0.21 0.83-0.34c0.24-0.12 0.44-0.24 0.62-0.34s0.35-0.15 0.52-0.15c0.11 0 0.2 0.02 0.28 0.07 0.08 0.04 0.15 0.1 0.21 0.19l0.78 0.98c-0.3 0.35-0.63 0.64-1 0.88s-0.76 0.42-1.16 0.57c-0.4 0.14-0.81 0.24-1.23 0.3s-0.82 0.09-1.22 0.09c-0.78 0-1.5-0.13-2.17-0.39s-1.25-0.64-1.74-1.14-0.88-1.13-1.17-1.87c-0.28-0.74-0.43-1.61-0.43-2.59 0-0.76 0.12-1.48 0.37-2.15s0.6-1.26 1.06-1.75c0.46-0.5 1.02-0.89 1.69-1.18 0.68-0.33 1.43-0.48 2.26-0.48zm0.06 1.93c-0.78 0-1.4 0.22-1.84 0.66s-0.73 1.07-0.85 1.89h5.06c0-0.35-0.05-0.68-0.14-0.99s-0.24-0.58-0.44-0.81-0.44-0.42-0.74-0.55c-0.31-0.13-0.65-0.2-1.05-0.2z"/>
			
		
	
	
		
			
				<path class="st0" d="m330.91 105.38c-0.35 0-0.58-0.16-0.69-0.49l-0.22-1.08c-0.23 0.26-0.48 0.5-0.73 0.71-0.26 0.21-0.53 0.39-0.82 0.54s-0.61 0.27-0.95 0.35-0.7 0.13-1.1 0.13c-0.61 0-1.17-0.13-1.68-0.38s-0.95-0.62-1.31-1.11c-0.37-0.48-0.65-1.08-0.85-1.79s-0.3-1.53-0.3-2.44c0-0.83 0.11-1.6 0.34-2.31s0.55-1.33 0.97-1.85 0.93-0.93 1.51-1.23c0.59-0.29 1.25-0.44 1.98-0.44 0.62 0 1.16 0.1 1.6 0.3s0.84 0.47 1.19 0.8v-5.91h2.69v16.19h-1.63zm-3.59-1.98c0.56 0 1.03-0.12 1.43-0.35 0.39-0.23 0.76-0.56 1.11-0.99v-5.01c-0.31-0.37-0.64-0.63-1-0.78s-0.75-0.23-1.16-0.23-0.78 0.08-1.11 0.23-0.61 0.38-0.84 0.69-0.41 0.7-0.53 1.18-0.19 1.04-0.19 1.68c0 0.65 0.05 1.21 0.16 1.66 0.1 0.45 0.26 0.82 0.45 1.11 0.2 0.29 0.44 0.49 0.72 0.62 0.3 0.13 0.61 0.19 0.96 0.19z"/>
			
		
	


	
		
			<polygon class="st2" points="56.05 101.03 18.33 98.39 56.05 95.76"/>
		
	


	
		
			<polygon class="st2" points="345.49 95.76 383.21 98.39 345.49 101.03"/>
		
	

</svg>
