<svg width="67" height="88" viewBox="0 0 67 88" fill="none" xmlns="http://www.w3.org/2000/svg">
<path d="M0.880859 42.227H5.51723V28.3008C5.51615 24.5842 6.24674 20.9038 7.66725 17.4699C9.08776 14.036 11.1704 10.9158 13.7961 8.28767C16.4218 5.65953 19.5391 3.57489 22.9701 2.15286C26.401 0.730837 30.0782 -0.000713784 33.7917 4.76139e-06C37.5057 -0.00215197 41.1838 0.728397 44.6155 2.14988C48.0472 3.57136 51.1653 5.6559 53.7915 8.2843C56.4177 10.9127 58.5005 14.0334 59.9208 17.468C61.3411 20.9026 62.0711 24.5837 62.0689 28.3008V42.1012C62.0116 42.1313 61.9378 42.1996 61.8695 42.2297L61.7957 42.3035H61.7711L61.6974 42.3719H61.599L61.5252 42.4457H61.4569L61.3832 42.4703H61.3531L61.3231 42.5141L61.2821 42.5441H61.252L61.2083 42.5742L61.1783 42.618L61.1537 42.6426L61.11 42.6727L61.0116 42.7465L60.9378 42.7875L60.8395 42.8613L60.6974 42.9188L60.5963 42.9871L60.5417 43.0309L60.498 43.0609L60.3996 43.1293L60.3259 43.1594L60.1537 43.2578L60.0854 43.3016L60.0281 43.3316L59.9598 43.3754H59.9297L59.7139 43.4738H59.6456L59.4024 43.6023H59.3724L59.3478 43.6461L59.2303 43.7008L59.1756 43.7445L59.0582 43.8184L59.0035 43.843H58.9598L58.8615 43.9168L58.7877 43.9469L58.7194 43.9879C58.662 44.018 58.5637 44.0453 58.4899 44.0891L58.4216 44.1191L58.3478 44.1602L58.2194 44.2176L58.0773 44.2914L57.7358 44.4336L57.6675 44.4582L57.5364 44.532L57.4681 44.5758C51.8318 47.2664 42.824 50.0992 25.7512 51.3242C13.5004 52.2074 6.05819 57.6051 1.24696 64.0856L0.880859 42.227ZM18.5111 42.227H49.004V28.3008C49.0076 26.2964 48.6158 24.3111 47.8511 22.4587C47.0864 20.6062 45.9638 18.9231 44.5477 17.5058C43.1316 16.0885 41.4498 14.965 39.5989 14.1996C37.748 13.4342 35.7643 13.0421 33.7617 13.0457C31.7592 13.0446 29.7761 13.4384 27.9257 14.2045C26.0753 14.9706 24.3939 16.0941 22.9774 17.5107C21.5609 18.9274 20.4372 20.6094 19.6704 22.4608C18.9036 24.3122 18.5087 26.2966 18.5084 28.3008L18.5111 42.227ZM66.6753 47.5535V87.5H10.353C16.5713 84.0547 21.1694 84.3938 28.8521 84.6371C39.286 84.9789 50.81 80.6039 56.4709 74.7961C62.1345 68.9992 55.9764 73.4289 49.5559 75.0668C43.1355 76.7047 30.7154 76.8906 22.4071 74.6949C48.5341 75.0367 58.7358 66.6094 64.5005 58.9887C70.2625 51.4117 62.0088 57.6625 56.643 60.282C51.2963 62.918 41.9443 64.7691 31.6416 63.402C47.1954 63.3582 59.0363 55.5816 66.6452 47.5508L66.6753 47.5535Z" fill="white"/>
</svg>
