<svg width="63" height="88" viewBox="0 0 63 88" fill="none" xmlns="http://www.w3.org/2000/svg">
<path d="M62.1712 30.8074C62.1731 25.5056 60.8063 20.2932 58.203 15.6746C55.5998 11.056 51.8482 7.18764 47.3116 4.44407C42.7749 1.70051 37.6068 0.174621 32.3074 0.014118C27.0081 -0.146385 21.7571 1.06393 17.0627 3.52791C12.3683 5.99189 8.38956 9.62607 5.51155 14.0787C2.63354 18.5313 0.953782 23.6514 0.634873 28.9436C0.315963 34.2357 1.36871 39.5206 3.6912 44.2866C6.01368 49.0525 9.52726 53.1382 13.8918 56.1481L0.579106 79.2011L10.5042 79.6103L15.8187 88L31.0672 61.5858C31.1728 61.5858 31.2695 61.6034 31.3751 61.6034C31.4807 61.6034 31.5775 61.5902 31.6831 61.5858L46.9315 88L52.3516 79.7907L62.1712 79.2011L48.8585 56.1481C52.9658 53.3201 56.3238 49.5358 58.643 45.1211C60.9622 40.7065 62.1731 35.7941 62.1712 30.8074ZM9.37797 30.8074C9.37797 26.4567 10.6681 22.2038 13.0852 18.5864C15.5022 14.969 18.9377 12.1496 22.9572 10.4846C26.9766 8.81974 31.3995 8.38412 35.6666 9.23288C39.9336 10.0816 43.8531 12.1767 46.9295 15.253C50.0058 18.3294 52.1009 22.2489 52.9496 26.5159C53.7984 30.783 53.3628 35.2059 51.6979 39.2253C50.033 43.2448 47.2135 46.6803 43.5961 49.0973C39.9787 51.5144 35.7258 52.8045 31.3751 52.8045C25.5411 52.8045 19.9461 50.487 15.8208 46.3617C11.6955 42.2364 9.37797 36.6414 9.37797 30.8074Z" fill="white"/>
<path d="M31.3751 44.0061C38.6643 44.0061 44.5734 38.097 44.5734 30.8078C44.5734 23.5186 38.6643 17.6095 31.3751 17.6095C24.0858 17.6095 18.1768 23.5186 18.1768 30.8078C18.1768 38.097 24.0858 44.0061 31.3751 44.0061Z" fill="white"/>
</svg>
