<svg xmlns="http://www.w3.org/2000/svg" xmlns:xlink="http://www.w3.org/1999/xlink" data-name="Layer 1" viewBox="0 0 3000 2250" id="payment-success"><defs><linearGradient id="a" x1="2462.473" x2="1865.144" y1="1418.429" y2="821.1" gradientUnits="userSpaceOnUse"><stop offset="0" stop-color="#ff5607"></stop><stop offset="1" stop-color="#ffa700"></stop></linearGradient><linearGradient id="b" x1="1178.105" x2="762.368" y1="312.747" y2="312.747" gradientTransform="rotate(26.227 -576.82 2479.983)" xlink:href="#a"></linearGradient><linearGradient id="c" x1="1146.515" x2="740.868" y1="197.36" y2="197.36" gradientTransform="rotate(26.227 -576.82 2479.983)" xlink:href="#a"></linearGradient><linearGradient id="d" x1="1124.986" x2="717.637" y1="81.49" y2="81.49" gradientTransform="rotate(26.227 -576.82 2479.983)" xlink:href="#a"></linearGradient><linearGradient id="e" x1="1141.576" x2="682.425" y1="-42.176" y2="-42.176" gradientTransform="rotate(26.227 -576.82 2479.983)" xlink:href="#a"></linearGradient></defs><g data-name="payment success"><circle cx="1675.49" cy="1425.506" r="636.214" fill="#fcfbd9"></circle><path fill="#fff" d="M990.05 1516.481a165.628 165.628 0 0 1-72.356-16.75l-222.242-108.664a81.031 81.031 0 0 1-44.827-65.286l-8.03-97.373 1118.312-474.093 44.58 21.828 10.531 5.116c25.767 12.607 43.559 38.218 50.088 72.112 6.642 34.475.871 73.645-16.252 110.294-27.623 59.087-78.96 98.791-127.746 98.8a79.956 79.956 0 0 1-34-7.374l-2.025-.941-599.829 431.333a163.782 163.782 0 0 1-96.204 30.998Z"></path><path fill="#081f2d" d="m1760.793 758.51 43.037 21.072 10.5 5.1c24.675 12.071 41.731 36.721 48.028 69.409 6.49 33.691.822 72.031-15.961 107.954-13.5 28.884-32.813 53.387-55.843 70.86-22.19 16.838-45.858 25.737-68.445 25.737a76.2 76.2 0 0 1-32.391-7.017l-4.051-1.884-3.626 2.608-598.017 430.03a159.984 159.984 0 0 1-93.974 30.284 161.775 161.775 0 0 1-70.679-16.363l-222.236-108.66a76.771 76.771 0 0 1-42.7-62.152l-7.805-94.643L1760.793 758.51m.228-8.389-1122.458 475.85 8.259 100.144a84.406 84.406 0 0 0 46.953 68.381l222.243 108.665a168.536 168.536 0 0 0 172.464-14.582l598.016-430.03a83.788 83.788 0 0 0 35.611 7.73c48.824 0 102.269-39.105 131.2-101 36.214-77.516 19.774-160.351-35.628-187.454l-10.519-5.111-46.145-22.594Z"></path><path fill="#c3e1a1" d="M1083.087 1372.05a168.589 168.589 0 0 1-188.141 27.331L685.5 1296.951c-42.767-20.9-70.228-90.261-20.918-136.939l574.043-543.4a168.553 168.553 0 0 1 189.948-29.037l389.108 190.254Z"></path><path fill="#ffecaf" d="M1654.843 775.084c-6.7-31.4-25.547-138.666 32.33-253.616 63.217-125.556 174.232-173.424 202.008-184.476l-286.543-140.117a84.1 84.1 0 0 0-77.346 1.692c-46.174 25.3-115.744 75.347-160.913 165.057-57.877 114.95-39.035 222.214-32.33 253.616Z"></path><path fill="none" stroke="#081f2d" stroke-miterlimit="10" stroke-width="7.635" d="m831.983 1207.034 167.584-158.648M954.039 1266.718l167.583-158.648M898.946 1062.639l230.861 112.889M820.975 1136.453l230.861 112.889M1660.412 777.807 1322.93 612.781"></path><path fill="#1bb5c8" d="M948.2 617.944c-15.707 22.516-70.625 6.858-91.394 22.573-21.525 16.288-21.619 73.184-46.6 81.813-25.232 8.716-60.53-36.064-87.219-35.53-26.425.53-59.948 46.75-85.774 38.9-24.918-7.576-27.127-64.357-49.643-80.063s-76.565 1.83-92.28-18.939c-16.29-21.526 15.51-68.949 6.885-93.93-8.716-25.232-62.931-42.894-63.465-69.583-.53-26.425 52.833-46.162 60.685-71.988 7.575-24.919-26.085-71.051-10.378-93.567s70.624-6.859 91.393-22.574c21.526-16.287 21.62-73.183 46.6-81.812 25.231-8.716 60.53 36.064 87.219 35.529 26.425-.529 59.947-46.749 85.773-38.9 24.919 7.576 27.127 64.356 49.643 80.063s76.566-1.831 92.281 18.938c16.287 21.526-15.512 68.948-6.883 93.93 8.715 25.232 62.93 42.894 63.465 69.583.529 26.425-52.834 46.162-60.685 71.988-7.574 24.925 26.086 71.053 10.377 93.569Z"></path><path fill="none" stroke="#081f2d" stroke-miterlimit="10" stroke-width="12.724" d="M823.102 386.531 695.86 513.774l-51.204-51.204"></path><path fill="#081f2d" stroke="#081f2d" stroke-linecap="round" stroke-linejoin="round" stroke-width="7.635" d="M1978.736 1330.378c-15.253 21.459-61.892 89.029-57.941 168.966.66 13.363 2.545 45.043 18.382 50.877 19.436 7.16 49.675-28.086 60.754-42.863 35.62-47.51 124.751-212.823 235.148-441.61-62.351 50.622-172.596 146.808-256.343 264.63Z"></path><path fill="url(#a)" d="m2348.378 1156.823-295.015 288.267c-92.627-58.714-172.619-91.562-227.942-110.646-78.663-27.2-153.069-42.224-232-107.055-72.146-59.313-65.3-92.228-63.568-98.744 4.521-17.222 20.081-26.8 27.328-31.252a88.559 88.559 0 0 1 24.338-10.174c-34.777-16.823-62.172-40.229-66.96-66.693a73.224 73.224 0 0 1 9.708-49.339c15.693-25.335 43.488-32.25 51.067-33.912-17.753-18.086-28.924-37.569-28.725-55.921a50.426 50.426 0 0 1 8.18-26.4c26-38.5 101.27-23.472 107.853-22.076-23.273-31.585-34.578-68.489-23.273-98.344 16.424-43.487 75.072-57.185 88.171-59.845 126.8-25.8 236.785 121.285 242.038 128.533-6.65-71.481 6.649-125.208 15.76-153.8 21.743-68.156 82.119-188.777 162.71-191.569 8.179-.333 37.369-.133 53.2 19.084 26.531 32.249-4.522 93.823-21.279 138.241-49.8 131.724-43.753 295.832 12.767 395.573 19.481 34.449 68.545 92.025 155.642 146.072Z"></path><path fill="none" stroke="#081f2d" stroke-miterlimit="10" stroke-width="7.635" d="M1980.026 866.146c-24.752-102.868-6.352-180.2 5.295-216.708M1993.3 1176.588a235.738 235.738 0 0 1-49.233-76.874c-22.521-57.514-16.1-108.764-11.744-131.669"></path><path fill="url(#b)" d="M1644.459 1215.9c18.445-.018 70.211-.069 86.976-31.993 7.877-15 4.585-30.485 4.179-32.272-11.739-51.614-119.469-90.5-178.41-54.246-6.081 3.74-22.663 13.257-27.349 31.255-6.182 23.744 12.366 46 17.289 51.9 29.521 35.423 79.047 35.374 97.315 35.356Z"></path><path fill="url(#c)" d="M1744.385 1009.885a55.405 55.405 0 0 1 14.567 18.59c10.768 22.965 3.717 52.95-7.164 66.366-39.28 48.436-223.942-1.381-237.179-74.312-2.15-11.844-1.167-31.946 9.677-49.346 15.238-24.448 42.507-31.625 51.151-33.9 65.788-17.316 127.622 36.581 168.948 72.602Z"></path><path fill="url(#d)" d="M1780.53 902.447c12.67 15.681 29.291 36.862 24.791 61.113-3.745 20.178-20.268 32.538-23.309 34.717-61.66 44.181-236.229-44.937-235.391-116.934a49.491 49.491 0 0 1 8.225-26.429c24.21-35.59 92.63-24.5 107.9-22.021 5.442.882 71.807 12.651 117.784 69.554Z"></path><path fill="url(#e)" d="M1751.221 736.746c8.923 1.612 61.917 12.048 87.217 59.131 2.812 5.233 28.634 54.837 4.435 85.739-21.955 28.035-69.233 20.444-76.869 19.217-76.204-12.233-150.045-104.386-126.631-166.319a67.547 67.547 0 0 1 9.486-17.009 89.549 89.549 0 0 1 20.8-19.387"></path><path fill="none" stroke="#081f2d" stroke-miterlimit="10" stroke-width="7.635" d="M1644.4 1215.916c40.53 4.4 74.513-7.858 86.977-31.993 1.023-1.98 7.921-15.82 4.179-32.271-3.212-14.124-13.613-27.3-28.234-38.234"></path><path fill="none" stroke="#081f2d" stroke-miterlimit="10" stroke-width="7.635" d="M1744.329 1009.9a55.891 55.891 0 0 1 14.568 18.591c11.252 23.634 3.388 53.355-7.164 66.366-30.176 37.209-146.149 16.434-204.291-28.26"></path><path fill="none" stroke="#081f2d" stroke-miterlimit="10" stroke-width="7.635" d="M1780.475 902.462c4.09 3.915 30.774 30.2 24.791 61.113-3.837 19.823-19.218 31.786-23.309 34.718-50.994 36.538-179.216-18.1-221.574-78.815"></path><path fill="none" stroke="#081f2d" stroke-miterlimit="10" stroke-width="7.635" d="M1751.166 736.762c8.923 1.611 61.916 12.047 87.217 59.131 2.812 5.233 28.633 54.836 4.434 85.738-21.954 28.035-69.232 20.444-76.869 19.218-49.637-7.97-98.267-49.842-119.675-95.184"></path><path fill="#b29adc" d="m2535.9 1296.794-344.144 500.576c-83.162-86.554-144.73-143.028-184.623-181.143q-36.235-34.641-72.357-68.47c.2.135.793.541 1.447.922a12.3 12.3 0 0 0 1.6.934 7.991 7.991 0 0 0 1.384.589c19.382 7.167 49.631-28.048 60.727-42.848 35.622-47.493 124.755-212.788 235.167-441.586Z"></path><path fill="none" stroke="#081f2d" stroke-miterlimit="10" stroke-width="7.635" d="M2000.434 1609.828a210.237 210.237 0 0 0 105.526-90.3l222.146-382.328"></path><path fill="none" stroke="#081f2d" stroke-linecap="round" stroke-linejoin="round" stroke-width="7.635" d="M1920.8 1499.344c.66 13.363 2.545 45.043 18.382 50.877 19.436 7.16 49.675-28.086 60.754-42.863 35.62-47.51 124.751-212.823 235.148-441.61"></path></g></svg>