<svg xmlns="http://www.w3.org/2000/svg" data-name="payment declined" viewBox="0 0 1080 1080" id="payment-declined"><path fill="#f9f1cb" d="M303.52 726.72S305 760.05 328 760.05h147s34 1.13 34-19.6v-51.23s.7-9.09-5.17-14.39-9.47-3-9.47-3 2.46 45.84-2.09 54.74-17.8 9.47-37.5 8.72-114.77-1.9-126.52-1.52-21-1.33-24.62-7zM311.71 396.29s4.5 64.7 60.18 82.5S505.23 458 514 398.48s-22.36-78.79-22.36-78.79S504.09 367.8 477.2 408s-67.05 54.93-105.31 42.81-60.18-54.47-60.18-54.47z"></path><path fill="#f9f1cb" d="M563.5 522.72v262.5s1.6 45.78-4.29 52.78-11.78 12.32-35.09 12.86-260.89 0-260.89 0-16.07-37.77 9.38-37.77 74.73 19.55 116 21.69 50.09-11 48.48-25.71-12.59-17.14-12.59-17.14 16.07-15.81 37.77 2.94 77.41-5.63 77.41-61.88S528.41 596.64 537 565s26.5-42.28 26.5-42.28Z"></path><path fill="#9a702d" d="M717.08 215.9s-19.61-7.77-33.91 4.73-13.16 17.23-15 24.53-7.19 6.72-8.14 15.44 4.92 12.21 10.22 12 9.29 2.37 20.46 9.66 23.3 4.35 32.77-2.84 11.74-8.9 13.54-7.39 18.47 16.39 21.22 15.34-3.41-8.8 3.88-13.82 9.56-1.71 15.72-2.84 8.62-8.81 6.44-13.55-6.82-6.91-9.38-6.53-1.42-10.42-3.22-19.89-8.62-23.11-24.43-26.52-24.15-1.7-27 2.18-3.22 9.48-3.22 9.48Z"></path><path fill="#72ccd1" d="M643 289.4a69.69 69.69 0 0 0-9 .55c-8.62 1.05-19.32 8.53-13.26 23.11s24.62 38.64 40 52.85 28.41 25.94 28.41 25.94 6.25-16.47 8.15-6.06-11.37 70.27-11.37 70.27-11.36 70.27-13.06 75-7.77 9.1-8.91 19 6.25 24.81 30.69 34.27 50.39 15.57 74.81 9.48 50.66-22.69 52.53-26.18-1.2-19.82-2.81-20.76-10.31-1.74-10.31-1.74-.54 15.14-12.19 19-39.51 3.22-50.63-3.48-5.22-18.35-5.22-18.35-19-7-17.14-25.18 2.41-21 3.35-23.84 9.51-7.9 12.85-7.77 4-15.4 4-15.4 15.81-8.3 42.86-3.75 27.72 7 27 14.47-3.08 17.54.13 17.54 5.23 1.74 9.65-10.31 8.31-21 7.5-21.56-12.59-22.5-8.84-29.34 16.48 27.32 18.35 32.28 9-.27 7.77 5.63-8 15-6.56 18.88 18.34 1.07 22 7.9-13.39 4.42-37 5.22-44.74 1.21-49.42.67-5.33 37.47 3.54 38.26 23.43-.13 23.43-.13 3.89-2.15 13.93-1.21 37 2.81 53.44-2.81 31.48-26.52 25.18-55.72-38.57-93.61-39.51-95.09-22.92-25.63-25.76-22.41-6.07 6.15-10.61 3.78-15.72-10.7-17.43-12.59-3-5-4.26-3.6-3.88 7.77-6.44 7.57a32.05 32.05 0 0 1-5.76-.71 10.51 10.51 0 0 0 5-1.77c10.43-6.31 10-24.91 11.78-32.14s-1.87-16.88-11.78-17.82-9-.27-19-4.56S720.87 295 720.87 295s-4.26 4.65-19.41 5.31-16.67 3.6-31.92-4.08c-10.48-5.26-19.27-6.73-26.53-6.79Zm83.16 62.6a94.11 94.11 0 0 1 9.57.54c13.52 1.46 21.56 2.46 30.94 2.46s14.59.14 14.59.14a14.43 14.43 0 0 0 .73 3.72c-1.85-2.35-4.38-4.77-6.86-2.56-3.41 3 3.41 19.89.57 28.32s-1.42 11.93-7.67 11.93-11.37-3.69-17.9-9-6.16-5.21-8.52-3.88-9.28 5.49-11.75 2.84-1.32-2.18-12.68-.09-14.31-.95-14.87-7.48S711 353 711 353a91.14 91.14 0 0 1 15.16-1Zm67.76 52.6c9.07-.19 15.68 10.5 16 17.58.4 8.7-9.78 5.62-13.8 3.35s-16.47-5.35-16.47-5.35-4.65-6.18 7.64-13.57a13.28 13.28 0 0 1 6.63-2.05ZM718.18 421h.93a36.63 36.63 0 0 1 7.11 1c8.17 2.95 20.35 15 19.15 23.71S734 456.15 727.69 455s-4.69 7.23-9.65 9.91-6-7.63-6-15.94-5.9-3.35-9.78-3.21-2.54-8.17 2.81-17.69c3.15-5.56 8.44-7 13.13-7Zm63.24 11.37 2.26 4.66s-6.7 14.86-12.46 18.07-11.78-3.1-10.31-12.6 14.73-8.58 20.51-10.15Z"></path><path fill="#c2dc82" d="M811.12 576.71s-8.52 20.84-40 25.19-47.35 4.74-67.61-5.87-24.25-10.79-27.47-7-9.47 12.12-11 18.19-9.85 47.91-11.75 71.59-3.79 46.41 15.16 52.09 29 5.87 41.47 2.84 14.59-4.55 15.91-18.37-3.6-68.47-3.6-68.47-13.82-7.77-9.66-11 17.43 7.29 29.55 7.2 11.74 6.34 8.81 8.24-3.31 19.7 2.37 41.29 5.3 38.83 25.19 42 46.65-2.09 52.68-17 2.41-26.79 2.27-27.32-18.08 10-35.35-5.63-9-38.56 3.21-45.39 19.56-1.48 20.09-1.48 5.23-2 5-9 .94-24-.67-36.17-6.83-19.55-6.83-19.55Z"></path><path fill="#f2d0b9" d="M663.81 744s15.13 13.26 30.67 14.87 18.35-8.17 18.75-11.65-.67-14.87-.67-14.87-17.28 4.82-28.66 6.57a47 47 0 01-20.36-1.34zM773.1 735.93s2.94 13.67 14.46 16.61 29.2 4.15 34.69-4.15 6-15 6-16.2S826.8 722 826.8 722s-17.14 18.08-53.7 13.93z"></path><path fill="#efca87" d="M283.4 156.54c-24.3 0-42.2.19-43.44.5-10.48 2.66-19.3 12.14-22.3 24-.65 2.57-1.23 63.25-1.61 169.5C215.72 442 215 526.75 214.38 540c-1.24 27.89-1.35 92-.16 108 .44 6.05.39 25-.11 42-.61 20.93-.54 42.2.23 65.5.65 20 .85 48 .47 66.5-.58 28.41-.46 32.89 1.1 40 1.87 8.52 5.37 16.57 8.81 20.25l2.09 2.25h8.66l-3.95-3.95c-4.55-4.55-6.17-7.4-8.54-15.05-1.55-5-1.74-15-2.07-111-.2-58-.65-118.78-1-135-.38-17.44-.17-41.36.52-58.5.71-17.74 1.34-95.4 1.61-200 .24-94 .65-172.91.92-175.24 1.05-9.31 9.42-20.18 17-22.11 5.58-1.42 19.15-1.53 98.5-.78 149.55 1.4 215.1 2.67 221 4.3 10.19 2.82 16.61 7.62 20.53 15.35s4.86 16.35 4.07 35.47c-.95 23.23-2.1 84.05-2 106 .12 27.19 2.54 190.73 3.08 209 .26 8.8 0 31.94-.61 51.43-1.91 61.77-2.4 133.34-1.19 172.58 1.83 59.27 1.74 92.78-.26 100-2.66 9.6-6.58 16.61-12.42 22.25l-8.13 7.25h10.14l6.21-6.33c4.72-4.79 7.9-12.89 10.25-21.68 1.57-5.84 1.7-11.23 1.35-53.5-.58-68.34-.57-172.59 0-229.5.27-27.22.16-61.65-.24-76.5-1.6-58.28-1.94-191-.58-228 .72-19.8 1.3-46.12 1.3-58.5 0-21.11-.17-22.85-2.33-28.25-3.34-8.36-8.81-14.75-15.83-18.49-10.31-5.5-14.67-6.13-46.14-6.71-15.78-.3-42.86-.87-60.18-1.29s-44.78-.77-61-.8-59.43-.19-96-.37c-9.15 0-18-.07-26.06-.07Zm289.25 730Zm-255.51-710c-3.2 0-8.18.28-17 .8-11.11.67-23.43 1.2-27.38 1.2-9.95 0-20.92 2.44-25.13 5.65a21.52 21.52 0 0 0-5.42 7.11c-1.88 4.26-2 7.25-2.4 56.61-.52 66.21-2.08 148.17-3.49 183.6-.61 15.13-1.21 72.73-1.35 128s-.58 118-1 139.5c-.72 37.19-.48 48.9 2.4 113.5.48 10.73 1.22 20.4 1.66 21.5 4 10.1 11 17.28 19.58 20.07 3.47 1.13 9.33 1.29 29.82.79 14-.34 77.48-.9 141-1.25l112.72-.62c7.39 0 15.08-6.59 17.13-8.89 7.41-8.32 7 4 8.14-163.58.59-82.79 1.57-159.22 2.18-169.89.75-13.11.86-36.77.35-73-.7-48.57-.84-117.62-.38-183.11.32-45.6-4.24-62.25-19.1-69.76-5.45-2.76-8.36-3.48-18-4.44-12.51-1.26-47.9-.86-62.85-.86-6.67 0-11.39 5.17-14.73 9.22s-7.59 8.37-9.45 9.64a12.77 12.77 0 0 1-8.77 2.25l-39.16-.25L352 200l-4.59-2.7a38.54 38.54 0 0 1-8.5-7.49c-5.26-6.45-8-8.76-13.71-11.44a14.92 14.92 0 0 0-8-1.85Zm80.28 1.14c-4.88 0-9.85.22-15.91.65-16.93 1.21-21.07 2.25-19 4.74 1 1.16 7 1.48 32.81 1.72 41.68.39 38.57.5 38.94-1.41.49-2.58-4.78-3.82-21.45-5.07-5.7-.42-10.5-.63-15.38-.62Zm-81.7 5.26c4.89 0 6.13.56 8.52 1.72 2.73 1.31 6.24 4.46 9.41 8.41a34.23 34.23 0 0 0 11 9.46c5.88 3.14 6.09 3.17 27.13 4.15 11.66.54 31.78.85 44.7.66l20.27-.27a33.34 33.34 0 0 0 11.17-4.07c3.48-2 6.13-4.55 10-9.32 3.31-4.06 7.14-7.82 8.52-8.34 2.81-1.09 35.85-.32 59.5 1.37 17.1 1.22 22.86 3 27 8.46 8.24 10.8 10.61 37 8.53 94.6-1 28.19-1 43.16 0 74.31.67 21.44 1.3 43.72 1.39 49.5.3 19.21-1.4 148.45-2 151.5-.32 1.65-.75 61.8-1 133.68-.31 116.62-.52 131.09-1.94 134.49-2.64 6.31-7.06 10-14.93 12.56-1.87.6-47.72 1.29-117.56 1.78-63 .45-125.08 1.08-138 1.41-25.65.65-28.85.22-35.45-4.82-4.66-3.55-8.73-12.48-9.15-20.07-.19-3.31-.85-22.68-1.47-43-1.48-48.21.39-327.63 2.54-380.73 1.29-31.9 2-90.35 2-174.77 0-30.49.2-31.68 5.34-36.33 3-2.71 16.11-4.37 44.15-5.58 10.47-.45 16.48-.71 20.29-.67Zm89.76 71.88c-4.31 0-8.69.19-13.14.6-11.9 1.08-14 1.58-22.86 5.5a95.87 95.87 0 0 0-16.15 9.16c-20 15.27-36.52 40.71-43.59 67.19-2.26 8.46-2.61 11.86-2.69 25.75-.1 17.83 1.17 24.91 6.89 38.55 11.55 27.52 37.43 49.19 66 55.29 11.34 2.42 28.48 2.1 39.68-.74 30.23-7.66 57.19-32.42 69.9-64.17 6.53-16.3 8.21-25.21 8.3-43.93.06-14.49-.25-18.31-2.17-25.88-5.06-20-17.24-39.41-31.6-50.29-14.56-11-35.35-17-58.6-17Zm-1.58 6.69a136.92 136.92 0 0 1 15.1 1.12c25.28 3.09 43.74 13.08 55.91 30.25 11.4 16.08 16.67 33 16.72 53.68.07 26.71-8.28 50.35-25.23 71.43-11.64 14.46-32.37 28-48.9 31.9-8.67 2.06-22 2.73-30 1.52-9.32-1.41-23.45-6.37-31-10.86a89.19 89.19 0 0 1-42-60.64c-1.8-10.15-.8-31.65 1.94-41.68A120.68 120.68 0 0 1 347 285c8.78-8.91 11.16-10.73 19.5-14.78 12.77-6.24 23.58-8.89 37.44-8.69Zm-46.48 45.74a13.33 13.33 0 0 0-11.57 7.88c-3.94 9.42.41 17.16 17.9 31.89 5.22 4.4 10 8.77 10.6 9.72.92 1.44-.47 3.55-8.54 13-10.95 12.78-13.29 17.1-13.32 24.62 0 7.86 2.12 11.14 9 13.6 2.77 1 9.35-.46 14.38-3.19 2.74-1.49 10.08-7.66 16.3-13.71l11.32-11 11.31 11c12.8 12.44 19.73 16.83 26.75 16.94 8.81.13 13-4.25 12.91-13.64 0-7.52-2.37-11.84-13.32-24.62-8.07-9.41-9.45-11.51-8.53-13 .6-.94 5.37-5.32 10.59-9.72 17.49-14.73 21.84-22.46 17.9-31.88a13.31 13.31 0 0 0-11.57-7.89c-5.76 0-12.77 4.41-30.22 19l-15.82 13.25-15.82-13.25c-17.45-14.61-24.46-19-30.22-19Zm92 6.52c.88 0 1.55.48 2.88 1.47 3.86 2.87 4 7.7.46 12.92-1.54 2.25-7.73 8.31-13.74 13.47-11.9 10.2-15 14.25-14 18.22.35 1.38 4.64 7.1 9.53 12.7 11.43 13.09 13.25 16.09 13.25 21.75 0 4.64-1.89 7.24-5.27 7.21-4.13 0-12.39-5.48-22.29-14.72-5.9-5.51-12.09-10.58-13.75-11.26-4.53-1.88-7.54-.17-19.78 11.26-6.24 5.83-12.83 11-15.73 12.37-5.79 2.71-7.42 2.87-10 1s-2.5-9.33.32-13.89a170 170 0 0 1 11.08-13.72c4.89-5.61 9.18-11.33 9.52-12.7 1-4-2.11-8-14-18.22-6-5.16-12.21-11.22-13.75-13.47-3.57-5.22-3.39-10.06.47-12.93 2.66-2 2.67-2 7 .14 2.4 1.17 8.85 5.75 14.33 10.17 12.6 10.2 19.74 15.86 23.6 18.67 3.62 2.61 5.79 1.44 8.82-.82 4.06-3 11-8.55 22.5-17.85 5.48-4.42 11.93-9 14.34-10.17 2.18-1.05 3.28-1.58 4.16-1.6Zm-46.59 187A314.08 314.08 0 0 0 365 503c-12.23 1.66-16.5 3-16.5 5.29 0 1.3 1.48 1.41 10.75.76 31.6-2.21 72.54-2 85.25.4 7 1.32 7.17 1.28 6.82-1.17-.49-3.44-8.17-5.47-25.94-6.84-6.62-.51-14.44-.73-22.51-.7Zm-101.4 51.83c-2.62 0-3.23.45-3.6 1.42a2.08 2.08 0 0 0 .69 2.56c1.57 1 11.19 2 29.44 3 7.15.41 49.33.68 93.73.58 73.31-.15 80.88-.31 82.37-1.8.9-.9 1.37-2.06 1.05-2.58s-37-1.21-93.37-1.61c-51-.37-97.38-.95-103-1.29-3.42-.21-5.73-.32-7.3-.3Zm43.31 53.77c-23.49-.08-42.91.18-44.78.81s-3 1.69-3 2.94c0 1.87 1.45 1.94 46 2.54 56 .75 109.85 2 110.42 2.5.23.21 9.7.39 21.06.39 15.88 0 21.07-.32 22.51-1.37 1.82-1.33 1.81-1.4-.16-2.46-1.16-.62-13.75-1.53-29.43-2.13l-53.4-2c-18.16-.69-45.73-1.1-69.22-1.17ZM313 653c-4.6 0-11.21 5.92-12.37 8.49-1.87 4.15-2.38 5.38-2.85 26.86-.6 27.12.24 32 7 41 6.94 9.19 5.53 9 61.62 8.48 26.18-.24 54.12 0 62.09.52 19.27 1.29 51.35.76 56.32-.93 4.19-1.42 9-5.76 11.47-10.42 1.36-2.53 1.61-7.09 1.65-29.5 0-28.43-.36-31.38-5.11-37-3.12-3.71-10.94-6.12-20.12-6.21-3.69 0-28.42.07-54.95.2-28.41.16-60.1-.77-77.11-1Zm13.8 6.18c23.39 0 57.77 2.44 104.21 2.13 50.45-.34 53.09-.15 56.94 4.11 2.29 2.53 3.52 12 4.48 34.57.73 16.93.63 19.44-.9 23-2.44 5.64-5.15 7.65-12.29 9.14-7.54 1.58-18.24 1.51-47.23-.31-16.12-1-32.43-1.21-61-.73-21.45.35-42.37.69-46.5.73-9.19.11-12.92-1.63-16.44-7.64-3.79-6.47-4.91-16.92-4.13-38.67.74-20.86 3.41-21.86 7.75-24.36 3.31-1.91 4.82-2 15.11-2Zm19.74 25.36c-16.39 0-19 .43-19.35 1.33-1.12 2.93 3.31 3.89 21.28 4.6 23.16.92 99.71 1.18 108.29.37 5.5-.52 6.75-1 6.75-2.38a3.12 3.12 0 0 0-2.25-2.48c-1.24-.41-31.77-1-67.85-1.22-22.29-.13-37.08-.22-46.92-.19Zm79 28h-2.17c-9.59.15-13.22 1-13.63 3.14-.29 1.48.44 1.72 5 1.65 9.84-.16 15.27-1.26 15.63-3.16.26-1.36-.33-1.67-4.82-1.66Zm-15.13 70.95c-12.85.11-23.22 10.07-23.22 24 0 10.16 5.53 18.42 14 21 11.62 3.49 24.33-6.12 27.35-20.67 2.15-10.33-2.85-21.06-10.83-23.28a26.78 26.78 0 0 0-7.35-1Zm2.31 7a8.14 8.14 0 0 1 5.17 2c7.7 6 4.49 21.81-5.7 28-4.14 2.52-7.6 2.42-11.74-.35a16.2 16.2 0 0 1-6.9-12.46c0-4.25 2.58-10.56 4.82-11.79 6.82-3.76 11.08-5.47 14.35-5.4Zm549.48 19.05c-7.23 0-18.76 8-26.43 18.31-4.71 6.34-12.31 21.21-12.31 24.09 0 2.4-1.7 1.94-2.37-.64-1-4-5-8-7.94-8-6.19 0-10 7.66-10.07 20.35-.05 7.64.28 9.29 3 14.75l3 7.76h8.57l-3.07-5.11c-2.89-4.79-5.4-9.9-5.4-18.14 0-6.87 1.84-13.67 3.58-13.15 2.3.68 6.79 11.54 7.81 18.86 1.9 13.74 5 14.81 5.39 1.85.5-17.47 9.53-36.4 22.79-47.82 6-5.16 9.72-7.13 13.52-7.13 5 0 5.43 4.75 1.73 18.5-2.65 9.87-10.39 31.26-13.57 37.48-1.9 3.73-2.67 8-1.44 8 .31 0 3.42-2.83 6.92-6.3 6.65-6.58 16.54-12.89 16.48-10.51 0 .72-1.74 5.81-3.83 11.31l-3.8 11.61 6 .29 3.51-9.72c5.28-14.65 5.23-21.57-2.65-20.3a23.07 23.07 0 0 0-7.35 3.14l-3.89 2.57 1.66-3.79c3.25-7.42 9.22-27 9.91-32.52 1.26-10.12-2.23-15.76-9.78-15.76Zm-839.32 3a5.37 5.37 0 0 0-4.86 2.22c-3 4.25-1.47 19.41 3.32 33.37l2.77 8.09-4.84-1.84c-11.67-4.44-13.09-2.09-9.39 15.55 1.45 6.94 3.75 16.12 4.06 16.94a.32.32 0 0 1 0 .16l6.44-.08c1.73 0-2.9-9.36-6.4-26.63-.32-1.59-.09-1.61 3.3-.2 6.43 2.7 9.55 4.92 12.79 9.17 3.1 4.07 7.5 17.27 6 17.27l5.59.34-.65-7.11c-.24-2.63-2-7-3.59-9.75-8.44-14.34-13.44-29.41-14.7-44.36-.6-7.12-.56-7.34 1.35-6.33 4.78 2.56 15.36 16.35 20.81 27.12 3.54 7 8.94 22 10.57 29.33 2.25 10.15 5.38 9.91 5.07-.38-.19-6.52 1.87-11.68 6.34-15.86 2.23-2.08 2.8-2.24 3.58-1 1.28 2 1.2 12-.14 19.65l-1.1 7.94h6l.58-4.86c.22-1.81.89-7.08 1.24-11.75.76-9.92-.82-15.23-5.11-17.19-3.5-1.6-8.29.94-11.56 6.1L158 862.2l-3-8.09c-7.83-20.78-23.88-41.59-32.09-41.59Z"></path><path fill="#f9f1cb" d="M1036.35 891c0 11.83-98 22.73-255.81 28.45s-350.6 5.37-503.3-.92S36 901 46.08 889.13L540.83 891Z"></path><path fill="#483613" d="M736 199.52c-7.86 0-12 1.26-16.73 5l-3.79 3-3.77-1.89a23.65 23.65 0 0 0-16.33-2.18c-15.39 2.87-32 17.08-36 30.85a13.64 13.64 0 0 0-.07 8.88c1 3.85 1 4.81-.28 6.22-2 2.23-4.56 9.61-4.56 13.24 0 6.73 6.17 12.82 13 12.82 3 0 3.69.44 4.73 3.19a10.15 10.15 0 0 1 .93 3.45 51.49 51.49 0 0 1-7.73-1.62c-11.5-2.9-25.43-4.23-33-3.16-8.16 1.16-12.59 3-17.35 7.17-16.38 14.38-7.5 41.75 25 77.09 15.31 16.63 41.12 39.88 44.28 39.88a1.05 1.05 0 0 1 1.08 1c0 .55-3.78 19.34-8.4 41.75-8.88 43.37-13.01 65.79-14.1 76.31-.47 4.6-1.37 7.44-3.09 9.72-3.38 4.5-8.1 14.76-8.86 19.27a18 18 0 0 0 5.41 15.82l3.8 3.69-2.4 13.5c-3.23 18.16-9.23 50.38-10.47 56.25l-1 4.75h-4.36c-8.85 0-12.89 8.36-9 18.59l1.75 4.57-2.56 2.67c-1.4 1.47-4 5.82-5.85 9.67-6.15 13.09-3.92 23.8 6 28.62 2.35 1.15 5.17 1.86 6.25 1.58 1.51-.4 2.1.1 2.55 2.14 2.81 12.8 8.19 21.57 15.7 25.62 3.47 1.87 3.52 2 4.68 11.46 5.69 46.61 10.13 73.26 14.12 84.84l2 5.74-2.16 1.77a144.41 144.41 0 0 1-12.79 7.43c-22.26 11.87-34.87 22.58-37.3 31.69l-1.33 4.61H181s-69.61.67-76.72.89c-5.25.16-13.42.26-25.94.35L43 886s-8.57-.48-8.57 2.5S43 891 43 891l35.5.52c19.52.29 244.39.6 499.71.71 416 .16 464.38 0 465.75-1.35 4.66-4.65 1.76-5.12-37.05-5.9l-36.09-.73-6-.29-23.55.27-23.56.27h-57.73l-2.86-9.23c-4.46-14.45-9.21-23.33-16.45-30.73l-6.35-6.5.58-6c2.53-25.7 1.73-48.43-3-86.32l-2.56-20.32 2.43-3.68a41.9 41.9 0 0 0 6.78-23v-7.71l3.93-2.72c7.91-5.47 11.51-14.23 8.65-21.06-1.5-3.6-6.64-7.72-9.65-7.72-1.19 0-1.5-1.43-1.5-6.78 0-8-2.18-11.87-7.6-13.63L829 638l-.57-25c-.54-23.54-.73-25.45-3.19-32.59-2.54-7.37-2.56-7.7-1-12.12 1.49-4.14 1.5-5.18.11-11.67l-1.53-7.12h15.88c10.55 0 18.45-.53 23.58-1.59 16.49-3.38 28.4-12 34.92-25.15 3.36-6.81 3.77-8.47 4.11-17.16.33-8.21-.06-11.46-2.68-22.11-5.44-22.07-27.09-75-37.75-92.26-3.06-4.95-14.22-16.71-19.74-20.81l-3.86-2.85 5.1.6c16.95 2 26-15.94 12.1-23.9-3.87-2.21-4-2.42-4-7.77 0-7.22-2.84-13.33-7.16-15.67s-19.45-2.34-28.59-.12l-6.26 1.53-1.87-4.21c-2.75-6.24-7.79-9-16.61-9.15-5.63-.08-8.18-.69-13-3.1-3.3-1.65-8.11-3.78-10.69-4.75-3.8-1.43-4.52-2.07-3.82-3.4a22.49 22.49 0 0 0 1.35-3.26c.27-.89 2.06-1.91 4-2.27 7.8-1.46 14.41-9.25 13.53-15.94-.21-1.59.61-3.14 2.53-4.79 3-2.59 4.52-9.2 3.26-14.24-1.12-4.44-5.46-8.63-9-8.63H775v-11.72c0-10.79-.22-12.16-2.66-16.79-6.39-12.1-21.22-20.46-36.28-20.46Zm-.77 5.35c9.69-.16 20.76 4.13 27.67 11.81 6.08 6.77 7.78 12.72 7.44 26.12l-.11 4.64c0 2.39.67 5.3 4.69 5.3 5.2.53 7.87 5.12 6.42 11.65-1.06 4.78-2.27 5.69-5 3.74-5.05-3.53-11.92-.86-17.64 5.11-2.7 2.83-2.46 6.76-1.7 10.76.75 3.85 1.36 7.78 1.39 8.75.11 5.14-6.95-2.41-13.46-14.41-1.48-2.71-3-5.21-4.13-7-1-1.52-3.22-3.06-5.57-.23-11.43 13.73-19 18.36-31.2 19.14-9.06.59-15.6-1.36-21.49-6.4-4.61-3.95-7.11-8-7.11-11.64 0-2.2-.38-2.37-5.09-2.3-4.43.06-5.41-.31-7.61-2.87s-2.46-3.57-2-7.86a25.24 25.24 0 0 1 2.48-8.14c1.45-2.46 1.79-4.46 1.41-8.41-.73-7.54 1.78-13.2 9-20.27 8.27-8.14 18.75-13.27 27.12-13.24 6.83 0 11.33 1.83 14.48 5.84 2.76 3.51 4.53 3.26 4-.55-.37-2.55.1-3.49 2.74-5.51 3.51-2.68 8.2-4 13.27-4.07Zm83.44 18.78q-5.41-.09-13.26 2.94c-10 3.86-14.2 7.73-13.77 12.71.37 4.31 3.48 6.88 9.8 8.12 12.15 2.38 22.88.26 26.47-5.21 2.09-3.19 2.35-9.79.52-13.2s-5.13-5.28-9.76-5.36Zm-1.26 6.06a8 8 0 0 1 3.88.73c2.89 1.54 2.94 7.06.1 9.63-3.36 3-20 2.81-23.11-.32-1.62-1.62-.24-3 6.25-6.28 4.73-2.39 9.41-3.71 12.88-3.76Zm-181.13 5.89c-1.06 0-2.24 0-3.54.07-7.06.28-9.84.87-13.8 2.91-6.92 3.56-11 9.52-11 16.12 0 4.24.43 5.36 2.81 7.41 9.5 8.18 34.69-6.1 34.69-19.68 0-5.21-1.75-6.8-9.18-6.83Zm-2.28 5.05c2.91-.05 5 .7 5.28 2.43.42 2.92-6.78 10.75-12.26 13.32-4.79 2.25-12 2.83-13.07 1.06-1.4-2.27.66-7.84 4-10.75 4.12-3.71 11.16-5.97 16.05-6.06Zm137 31.17a4.54 4.54 0 0 1 1.07.13c2.82.71 4.11 4.65 2.78 8.46-1.1 3.15-11.16 9.08-11.73 6.93-.2-.73-.91-3-1.59-5.14-1.09-3.37-1-4.07.6-5.86 2.44-2.69 6.18-4.55 8.86-4.52Zm-33.23 4.54 3.27 6.12a88.39 88.39 0 0 0 5.91 9.58c3 3.95 3.45 3.9-10 1.24-13.8-2.74-13.26-2.4-9-5.82a44.5 44.5 0 0 0 6.77-7.06Zm68.08 3.2a20.15 20.15 0 0 0-6.91 1c-2.27.86-2.57 1.42-2 3.75 1.92 7.88 9.37 18.28 16.05 22.38 4.31 2.65 10.61 2.44 13.31-.44 7.76-8.26 2.81-20.94-9.75-25a36.76 36.76 0 0 0-10.69-1.67Zm-168.67 4c14.21-.19 36.14 4 48.27 9.69 6.45 3 18.4 4.14 25.56 2.34 3.81-1 6.58-.69 19.7 1.88 18.14 3.56 31.55 7.61 45.15 13.65 7 3.09 10.19 4.07 10.69 3.27.89-1.45 7.33-.36 11.1 1.87 5.47 3.23 6 8.33 2.44 22.38-1.31 5.14-2.68 11-3 13.08-.89 5-5 9.78-8.47 9.78-3.72 0-5.31-1.71-3.81-4.11 2-3.19-.55-4.37-10.1-4.66-28.87-.9-58.07-2.38-74-3.77-14.48-1.26-18.63-1.34-19.79-.37-2.35 1.94-.15 3.18 7.81 4.37l7.22 1.09-3.77 2.22a16.51 16.51 0 0 1-5.15 2.23c-2.25 0-2.94 2.2-1.12 3.53 3 2.19 11.32-.66 15.12-5.16 1.39-1.64 2.65-2.19 4.11-1.79 2.08.57 2.06.65-.85 6a29.7 29.7 0 0 0-3.49 11.33c-.49 5.4-.32 6.09 2.17 8.58 2.29 2.29 3.32 2.63 6.61 2.19a34.24 34.24 0 0 0 8.48-2.74c2.51-1.21 4.7-2.05 4.85-1.84s.86 1.84 1.58 3.64c3.71 9.32 12.63 9.52 22.43.49l3.5-3.22 5.88 5.88c9.5 9.5 17.23 10.42 21.23 2.53 1.85-3.65 2-21.39.29-26.21-1-2.7-.94-3.25.23-3.25.85 0 1.19.6.85 1.48s.69 2.73 2.46 4.5c4.84 4.84 13.55 3.67 17.5-2.37l1.63-2.48 6.16 6.41c10 10.39 17.72 12.78 23.58 7.27 2.09-2 2.53-2 5-.73 5.23 2.79 17.14 14.93 20.28 20.68C867.87 416.06 886 459.6 893.24 484c8.59 29.09-2.49 50.37-30.28 58.11-5.09 1.42-10 1.62-32.5 1.31-14.57-.2-31.31-.36-37.19-.39h-10.69l-3.68 4.31q-7.32 8.55-10.28-.31c-1.62-4.85-1.09-37.4.68-41.77 1.86-4.57 5.34-5.47 11.35-2.94 2.8 1.19 5.37 2 5.71 1.77s8.94-1.39 19.11-2.63c19.39-2.37 47.29-3.17 54.34-1.55 3.47.79 3.82.69 3.5-1-.56-3-6.57-5.38-13.6-5.38-5 0-6.25-.32-6.25-1.55 0-1.86 2.66-7.29 4.73-9.64 1.49-1.71 1-3.81-.86-3.81-.56 0-2.39 1.37-4.06 3s-3.15 2.91-3.28 2.75-3.73-9.07-8-19.79-8.86-21.7-10.22-24.39c-2.19-4.32-2.64-4.71-4-3.38-1.6 1.6-.56 5.4 6.46 23.62l2.84 7.36-1.89 3.81a60.42 60.42 0 0 0-3.42 12.15c-2 11-1.95 10.82-4.41 10.82-1.63 0-2-.42-1.46-1.75 1.42-3.66 1.71-10.91.6-15-2-7.31-5.31-10-15.31-12.38l-8.74-2.07.64-4c1-6.27-1.6-20.4-5.24-28.46s-4-8.07 7.39-2.13c4 2.1 8.62 3.81 10.25 3.81 11.7 0 9.83-23.56-2.34-29.33-7.25-3.44-17.64-1.1-22.91 5.15a22.39 22.39 0 0 0-3 4.26c-.24.71-2.07 0-4.85-1.83-6-4-11-5.5-18.53-5.5-9.16 0-17 4.29-23 12.55-2 2.76-2.06 2.77-5.71 1.25a19 19 0 0 0-15.3.33c-14.45 6.56-18.94 31.65-5.35 29.83l3.89-.52V455c0 8 2.85 12.89 7.87 13.37 3.93.38 6.16-1.35 8.55-6.66l1.71-3.77 5.69.37c19.92 1.29 22.26-21.25 3.38-32.53l-3.31-2 3.42-3.62a35 35 0 0 1 9.31-6.26c4.71-2.15 6.71-2.53 11-2.09 9.87 1 18.92 7.6 23.88 17.38l1.6 3.16-3.64-1c-8.61-2.38-18.22 2.38-20.29 10-1.88 7 2.25 15.16 8.49 16.73 4.48 1.12 9-1.83 13.7-9.05 2.35-3.58 4.57-6.53 4.93-6.53.79 0 2.51 7.5 3.42 14.88l.66 5.4-12.87-.69c-14.57-.78-25.48.4-31.32 3.37-4.13 2.11-4.43 2.81-5.59 13.09-.61 5.32-.75 5.55-3.29 5.21-6.23-.83-14.07 9-12.78 16a21.37 21.37 0 0 1-.89 8.12c-2.4 7.9-2 17.26 1.09 23.38a28.2 28.2 0 0 0 12.49 12.2c2.19 1 2.46 1.76 2.53 7.11.1 7.2 2.07 10.36 8.5 13.63 8 4 16.43 5.63 29.9 5.59 21.95-.07 29-3 32.33-13.39a37.88 37.88 0 0 0 1.67-6.54c0-1.49 3.7-1.87 5.72-.58s3.89 14.56 2.51 17.59c-1.53 3.35-7.47 7-20 12.23-5.65 2.37-12.19 5.39-14.52 6.72-5.14 2.92-14.41 5.25-26.32 6.62-4.9.56-9.36 1-9.91.89s-5.05-.51-10-1c-16.13-1.55-39.72-8.68-59.45-18-14.46-6.81-22-14.33-22-21.82 0-4.16 3-11.8 6.95-17.48 3-4.3 3.57-6.61 6.69-24.91C672 499.11 677.33 471.13 682 448c11.71-58.31 13.11-67.39 10.61-68.93-1.56-1-2.81 1.75-4.12 8.93-.7 3.85-1.57 7.81-1.92 8.79-.51 1.42-5.6-3.11-25.27-22.5-13.55-13.36-27.36-27.79-30.69-32.08-11.42-14.67-18.14-28.75-18.09-37.93s6.88-17.6 16.3-19.85a39.76 39.76 0 0 1 8.39-.86Zm165.32 1.93h3.31c11.56 0 20.45 7.2 17.72 14.37-2.25 5.93-11.52 1.09-18-9.38Zm29.92 39.13c6.2.06 9.68 1.27 11 3.76 1.5 2.85 2.33 11.84 1.16 12.56-2 1.24-1.1 2.47 4.92 6.55 4.88 3.31 6 4.59 6 6.81 0 6.08-6.6 9.91-14.81 8.6l-3.94-.62 1-4.15c1.26-5.48.45-12.25-1.75-14.68-4.16-4.6-10.28-1.08-12.51 7.19-1.87 7 1.42 8.18 4.56 1.68 2.91-6.06 4.49-6.07 4.49 0s-2.25 12.78-5.21 15.93c-4 4.23-8.34 2.5-18.63-7.38l-6.16-5.87 1.36-6.5c.75-3.58 2.12-9.73 3.05-13.69l1.69-7.19 5.16-1.15a111.7 111.7 0 0 1 13.87-1.7c1.73-.11 3.3-.16 4.73-.14ZM713.74 356.1c1 0 4.47.16 7.83.25 5.41.15 6 .37 5.34 1.92-.42 1-1.53 4.67-2.47 8.25-1.71 6.47-1.74 6.51-7.1 8.72s-9 2.82-10.21 1.61c-2.45-2.44 3.43-20.85 6.61-20.75Zm20 1.15 10.92.52c6 .28 11.16.75 11.45 1 1.66 1.65-9.83 17.4-15.89 21.79-4.54 3.29-6.87 3.63-9.16 1.35-2.68-2.68-2.39-11.16.66-19.31Zm31.06 1.37c.65 0 1.48 0 2.56.1 4.52.29 4.62.37 5.31 4.3 1.09 6.13 1 20.4-.21 22.56-1.73 3.24-5.44 2.3-11.84-3a74.05 74.05 0 0 1-6.5-5.81c-.29-.47 1.29-3.52 3.5-6.77s4.27-7.19 4.58-8.73c.4-2 .66-2.56 2.6-2.61Zm31 48.78a11 11 0 0 1 7.61 3.16c3.14 3.14 4.52 7.52 3.94 12.54-.44 3.85-2 3.87-9.83.19-4.33-2.06-8.07-3.09-11.22-3.12-5.57-.05-6.81-1.79-4-5.6 3.52-4.77 8.73-7.29 13.48-7.17Zm-78 16.19c5.36-.18 11.53 3 17.92 9.39 6.9 6.9 8.61 11.07 6.35 15.44s-7.76 5.87-13 3.7c-2.1-.87-4.2-1.35-4.68-1.05s-1.7 2.43-2.73 4.74a19.11 19.11 0 0 1-3.46 5.52c-3.55 2.94-4.44-4.79-2.5-21.71.42-3.65-1.49-3.52-5.5.37-4.66 4.53-7.73 4.72-7.73.48 0-5.45 4.77-12.72 10.2-15.55a12 12 0 0 1 5.08-1.33Zm57 12.93c2.42 0 4.66.26 5 .58.68.69-4.45 8.71-8.09 12.67-1.4 1.52-3 2.75-3.69 2.75-2.18 0-4.47-3.65-4.44-7.08 0-5.87 3.89-8.92 11.24-8.92Zm-12.05 31.16a198 198 0 0 1 36.39 3.32c8.86 1.65 9.24 1.82 10.82 5.15a17 17 0 0 1 1.37 11.3l-1.41 7.79L800 497c-6.07.93-11.73 2.06-12.58 2.52-1 .55-2.41.19-4-1.06a12.16 12.16 0 0 0-12.61-1.57c-5.05 2.4-16.23 2.17-22.38-.48l-4.9-2.1.62-11.65c.34-6.69 1.07-12 1.7-12.36 2.53-1.65 8.75-2.52 16.82-2.62Zm66.47 7.76c.88-.38 7.1 13.94 7.25 16.83 0 .86-1.75 1.25-5.81 1.25h-5.88l1.9-8.25c1-4.54 2.15-8.93 2.47-9.75 0 0 0-.07.07-.08Zm-93.43 14.4c1.58 0 2.74 1.08 2.74 3.17 0 3.08 5 8 9.75 9.62a40.84 40.84 0 0 0 10 1.33l6.25.06s-.67 3.15-1.48 7a113.83 113.83 0 0 0-1.5 18.75v11.75l-6.25-.11c-12-.21-18.11-2.32-24.12-8.32-4.18-4.18-6.13-11.3-5.12-18.66.69-5 .78-5.1 3.56-4.55 3.82.77 4.65-1 1.88-3.91-3.39-3.6-3.3-10.56.18-14a6.33 6.33 0 0 1 4.13-2.1Zm24.83 56c1.24-.12 1.86.77 2.93 3.78 3.6 10.23 13.1 10.14 20.33-.18 1.43-2 2-2.11 11.51-1.43 11.09.79 10.55.17 7 8.12-2.14 4.88-4.47 6-14.89 7.36-13.53 1.74-25.35.74-35.33-3-6.24-2.33-8.13-4.48-9-10.22l-.56-3.75h7.68a63.21 63.21 0 0 0 9.7-.56 2.67 2.67 0 0 1 .58-.11ZM665 574c1.7 0 6.44 2.5 6.44 3.57a22.71 22.71 0 0 1-2.84 4.54 37.89 37.89 0 0 1-4.54 5.31c-1.59 1.31-1.66.94-1-5.5.37-3.8 1-7.3 1.45-7.77a.7.7 0 0 1 .49-.15Zm153.67 2.51c.65 0 3.5 14.15 4.28 21.25.61 5.54.55 5.75-1.69 5.67-6.91-.22-15-6-18.87-13.45-2-3.79-2.17-4.84-1-5.24.78-.27 4.88-2.23 9.13-4.37s7.94-3.86 8.2-3.86Zm-141.8 3.41 8.54 3.67c12.34 5.31 32.42 11.63 42.54 13.39 11.37 2 29.48 2 39.21 0a122.85 122.85 0 0 0 17.17-5.43l9.53-3.85 2.68 4.69c3.2 5.6 10.69 12.76 15.44 14.74a23.58 23.58 0 0 0 7.58 1.42h4.19l-.65 9.75c-.35 5.36-.65 11.44-.65 13.5 0 3.42-.25 3.74-2.75 3.77-6.42.05-15.75 6.48-21.45 14.77-2.8 4.06-3.09 5.24-3.17 12.6s.28 8.91 3.32 15.44c6.7 14.38 17.41 19.57 33.05 16 2.57-.59 1.65 10.5-1.53 18.44-2.2 5.5-3.54 7.35-7.11 9.81-12.56 8.64-23 11.54-38.19 10.59-9.79-.61-17-1.89-25.36-5.88-4-1.91-5.46-5.75-6.36-9l-2.34-9.69c-3.11-12.93-9.11-47.37-9.11-52.34 0-.44 1.94-.81 4.31-.81 4.89 0 8.31-2 7.43-4.24-.44-1.16-1.64-1.42-4.91-1.06-8 .89-25.92-5.07-37.06-12.35-2.12-1.4-3-1.52-3.93-.59s-.28 2.06 3 5.07a37.44 37.44 0 0 0 8 5.6l3.85 1.73.64 15.67c.84 20.22.75 53.53-.16 58.67-.82 4.65-1.74 5.08-19.18 9.06-10.39 2.38-24.7 3.69-30.5 2.8-12.15-1.86-22.35-10.23-24.38-17.12-2.28-7.73-3.39-19.7-2.76-30.74.7-12.28 2.83-26.23 8.61-56.5 2.15-11.28 4.66-24.66 5.57-29.75 1.3-7.25 2-9.25 3.31-9.26 3 0 8.21-4 10.91-8.31Zm145.46 61.78c7.65-.06 12.13 4.11 12.13 11.55 0 4.77-2 7.73-7 10.28-5.79 3-14.18 2.66-20.21-.69-2.6-1.45-5-3.47-5.32-4.5-1.5-4.71 9.4-15.22 17-16.36a25.41 25.41 0 0 1 3.4-.28Zm-179 6.82c1.69 0 2 .48 1.52 2.75-.29 1.52-1.08 6.11-1.75 10.23l-1.19 7.5-2.23-5.17c-2.83-6.59-3-12.83-.28-14.26a10 10 0 0 1 4-1Zm179.76 4.07a2.91 2.91 0 0 0-1.36.53c-2.24 1.37-2.94 5.38-1.15 6.52 1.88 1.19 2.48 1.09 4.27-.69 1.94-1.94 2-2.54.13-5-.72-1-1.24-1.4-1.89-1.37Zm-94.83.2a25.75 25.75 0 0 1 4.39.87l4.49 1.2.58 11.08c.94 17.75 5.68 42.54 10.7 55.87C750.9 728.3 754 731 764.13 735c3.65 1.48 6 3 6.17 4.17.7 3.93 10.7 33.57 15.7 46.83 6.77 17.91 23.06 51.5 26.77 55.22 1.19 1.18.88 1.93-2.07 5.09-3.41 3.63-13.21 17.82-13.21 19.11 0 .36-2.25 3-5 6s-5.51 7-6.16 9.21l-1.17 3.9h-60.57l-.69-4.75c-1-7.21-6-21.53-11.6-33.35-4.64-9.85-4.92-10.86-4-14.5 1.48-5.56 5.8-32 7.26-44.4 1.39-11.87 1.75-38.64.62-47.15-.71-5.36-.63-5.67 1.59-6.23 3.38-.85 7.65-4.48 8.82-7.51 2.07-5.31 2.61-20.3 1.7-46.5-.51-14.79-.75-27.06-.53-27.28.05-.06.23-.08.51-.06Zm110.27 9.73c.41 0 2.12 1.38 3.81 3.07 3.68 3.68 4 7.86 1.08 12.7-2.58 4.23-9.88 8.82-16.15 10.17-5.69 1.22-7.2 1.22-11.35 0-3.19-.94-7.56-4.56-10-8.29-1.79-2.73-5.74-13.95-4.72-13.42 13 6.76 26.54 6.26 33.73-1.25 1.57-1.64 3.19-3 3.6-3ZM639 672c1.87 0 2 .5 1.5 7.5-.27 4.12-.48 11.44-.45 16.25 0 5.48-.34 8.74-1 8.74a11.85 11.85 0 0 1-3.85-1.85c-7.35-4.85-7.94-11.28-2.12-22.86C636 674 637.47 672 639 672Zm185.59 56.9c.21 0 .59 2.1.92 4.85 0 2.89.88 13.12 1.95 22.75s2.24 22 2.62 27.59l.69 10.09-10.79.66c-5.94.36-13.81.66-17.5.66h-6.71l-3.77-9.73c-3-7.81-16.52-45.93-16.52-46.58 0-.1 6-.17 13.25-.17 15.13 0 20.73-1.3 30.12-7a46.07 46.07 0 0 1 5.7-3.1Zm-115.11 8.93c.43 0 .72 0 .81.13 1.2 1.2.42 43.5-1 53L708 800l-11 .08c-18.76.12-22.4-.33-23-2.88s-7.6-55.08-7.6-56.72c0-.62 4.16 1.09 14.84.52 11.32-.6 16.33-.44 21.55-1.87a33.59 33.59 0 0 1 6.68-1.3Zm121.28 62.67-.45 18.94c-.32 13.49-.83 19.38-1.75 20.5-2.53 3-6.15 1.87-11.39-3.69-3.7-3.93-6.66-8.89-11.77-19.75l-6.85-14.5 9.71-.64c5.34-.34 12.57-.68 16.08-.75Zm-153.91 4.1a8.91 8.91 0 0 1 1.49.22c1.56.31 8.54.88 15.5 1.27 11.14.61 12.66.91 12.66 2.45 0 1-.93 8-2.06 15.61-1.91 12.9-2.27 14.08-5.25 17.23a49.3 49.3 0 0 1-7.64 6.25c-4.26 2.75-8 3.62-9.39 2.2-1.08-1.08-.76-5.84.49-7.08.87-.87.74-2.46-.51-6.46-2.25-7.21-6.64-26.75-6.64-29.67 0-1.56.19-2.07 1.34-2Zm28.42 38.16 5 12.62c2.75 6.94 5.29 13.86 5.64 15.37l.63 2.75h-6.77c-3.73 0-11 .22-16.27.48-10.62.53-13.59-.13-26.88-6-4.61-2-10.69-4-13.5-4.34L648 863l4.5-2.6c12.49-7.21 22.07-12 23-11.4 1.35 6.31 6 7.5 9.4 7.5 4.08 0 12.29-4.79 16.79-9.77Zm128 .63 4.28 5.3c4.43 5.51 13.63 23.49 12.56 24.56-.33.34-4.31.77-8.85 1-8.19.34-8.26.32-12.73-3.31-6.93-5.63-14.35-8.72-19.51-8.14l-4.32.49 6.6-8.81c5.49-7.34 6.89-8.65 8.35-7.87 3.11 1.67 9.09 1.09 11.44-1.12Zm-24.1 25.13c3.58-.09 8.38.31 13.82 5.23 4.8 4.33 10.72 7.07 19.54 5.75 9.95.48 10.52.61 10.82 2.75l.32 2.25H822c-25.94 0-31.57-.24-31.57-1.36 0-2.23 7.95-10.57 12.08-12.69a15 15 0 0 1 6.56-1.93Zm-159.35.23c4.09.1 8.76 1.67 16.39 5.07 14.07 6.27 17.59 6.94 32.82 6.21 7.15-.34 14.41-.83 16.14-1.1 2.85-.44 3.17-.22 3.57 2.54l.44 3h-89.75l1.57-3.75c2.24-5.37 5.71-8.58 11.52-10.68a19.54 19.54 0 0 1 7.23-1.31Z"></path></svg>