<svg xmlns="http://www.w3.org/2000/svg" xmlns:xlink="http://www.w3.org/1999/xlink" data-name="Layer 1" viewBox="0 0 3000 2250" id="payment-failure"><defs><linearGradient id="a" x1="8712.193" x2="8114.863" y1="5107.74" y2="4510.411" gradientTransform="scale(1 -1) rotate(-54.98 -516.7 7919.77)" gradientUnits="userSpaceOnUse"><stop offset="0" stop-color="#ff5607"></stop><stop offset="1" stop-color="#ffa700"></stop></linearGradient><linearGradient id="b" x1="11113.463" x2="10697.726" y1="-1175.417" y2="-1175.417" gradientTransform="scale(1 -1) rotate(-28.74 7149.122 16550.132)" xlink:href="#a"></linearGradient><linearGradient id="c" x1="11081.873" x2="10676.226" y1="-1290.804" y2="-1290.804" gradientTransform="scale(1 -1) rotate(-28.74 7149.122 16550.132)" xlink:href="#a"></linearGradient><linearGradient id="d" x1="11060.344" x2="10652.995" y1="-1406.674" y2="-1406.674" gradientTransform="scale(1 -1) rotate(-28.74 7149.122 16550.132)" xlink:href="#a"></linearGradient><linearGradient id="e" x1="11076.934" x2="10617.783" y1="-1530.34" y2="-1530.34" gradientTransform="scale(1 -1) rotate(-28.74 7149.122 16550.132)" xlink:href="#a"></linearGradient></defs><g data-name="payment failure"><circle cx="1720.958" cy="1416.726" r="636.214" fill="#fcfbd9"></circle><path fill="#fff" d="M1035.518 1544.946a165.611 165.611 0 0 1-72.356-16.751L740.92 1419.531a81.029 81.029 0 0 1-44.827-65.286l-8.031-97.372 1118.313-474.094 44.58 21.829 10.53 5.116c25.768 12.606 43.56 38.217 50.089 72.111 6.642 34.476.87 73.645-16.252 110.295-27.623 59.086-78.961 98.79-127.746 98.8a79.985 79.985 0 0 1-34-7.373l-2.025-.943-599.829 431.333a163.779 163.779 0 0 1-96.204 30.999Z"></path><path fill="#081f2d" d="m1806.261 786.974 43.036 21.072 10.5 5.1c24.675 12.071 41.731 36.721 48.028 69.409 6.49 33.691.821 72.031-15.961 107.954-13.5 28.886-32.814 53.39-55.843 70.863-22.189 16.835-45.857 25.734-68.446 25.734a76.182 76.182 0 0 1-32.39-7.017l-4.051-1.883-3.627 2.607-598.016 430.03a159.987 159.987 0 0 1-93.975 30.284 161.787 161.787 0 0 1-70.678-16.362L742.6 1416.1a76.768 76.768 0 0 1-42.7-62.151l-7.8-94.643 1114.161-472.332m.228-8.389L684.031 1254.436l8.259 100.144a84.4 84.4 0 0 0 46.953 68.38l222.243 108.665a168.53 168.53 0 0 0 172.464-14.582l598.016-430.029a83.813 83.813 0 0 0 35.61 7.729c48.828 0 102.268-39.1 131.2-101 36.213-77.516 19.774-160.351-35.628-187.455l-10.519-5.111-46.145-22.594Z"></path><path fill="#c3e1a1" d="M1128.555 1400.514a168.592 168.592 0 0 1-188.141 27.332l-209.442-102.431c-42.767-20.9-70.229-90.26-20.919-136.938l574.043-543.4a168.552 168.552 0 0 1 189.949-29.036l389.108 190.249Z"></path><path fill="#ffecaf" d="M1700.311 803.548c-6.7-31.4-25.547-138.665 32.33-253.616 63.217-125.555 174.232-173.424 202.008-184.476l-286.543-140.117a84.1 84.1 0 0 0-77.346 1.693c-46.175 25.3-115.745 75.346-160.913 165.056-57.878 114.951-39.035 222.214-32.331 253.616Z"></path><path fill="none" stroke="#081f2d" stroke-miterlimit="10" stroke-width="7.635" d="m877.451 1235.498 167.584-158.647M999.507 1295.183l167.583-158.648M944.414 1091.103l230.861 112.89M866.443 1164.917l230.861 112.889M1705.88 806.271l-337.482-165.026"></path><path fill="#081f2d" stroke="#081f2d" stroke-linecap="round" stroke-linejoin="round" stroke-width="7.635" d="M1982.572 1177.546c-6.814 25.43-26.971 105.02 4.6 178.564 5.278 12.3 18.088 41.331 34.966 41.278 20.713-.066 36.767-43.643 42-61.355 16.823-56.947 42.73-242.962 66.441-495.883-40.793 69.184-110.589 197.769-148.007 337.396Z"></path><path fill="url(#a)" d="m2194.921 1311.938 66.92-407.006c-101.224-42.2-174.014-88.883-221.378-123.255-67.4-48.838-122.384-101.168-220.763-128.637-89.967-25.078-113-.589-117.347 4.565-11.514 13.582-10.433 31.82-9.926 40.312a88.553 88.553 0 0 0 5.626 25.771c-33.728-18.838-68.614-27.854-93.038-16.6a73.218 73.218 0 0 0-34.848 36.252c-11.752 27.385-1.474 54.12 1.512 61.282-25-4.168-47.365-2.144-62.285 8.545a50.417 50.417 0 0 0-16.932 21.842c-16.625 43.38 38.859 96.419 43.778 101.011-39.221-.948-75.935 10.959-93.908 37.344-26.2 38.4-3.783 94.295 1.551 106.551 51.6 118.67 235.165 124.4 244.116 124.542-62.368 35.553-98.751 77.263-116.947 101.126-43.359 56.9-107.535 175.546-63.6 243.165 4.419 6.89 21.325 30.687 46.144 32.629 41.635 3.235 74.262-57.519 101.036-96.722 79.336-116.352 217.236-205.523 331.358-216.434 39.391-3.793 114.701 3.371 208.931 43.717Z"></path><path fill="none" stroke="#081f2d" stroke-miterlimit="10" stroke-width="7.635" d="M1745.534 1176.927c-98.461 38.727-151.256 98.156-174.48 128.636M2007.444 1009.735a235.742 235.742 0 0 0-91.21 3.763c-60.03 14.541-98.329 49.2-114.593 65.9"></path><path fill="url(#b)" d="M1839.562 701.435c10.566 15.12 40.216 57.553 23.681 89.6-7.77 15.055-22.341 21.241-24.038 21.933-49.014 19.989-142.658-45.955-146.769-115.031-.424-7.126-2.138-26.168 9.917-40.33 15.9-18.683 44.772-16.253 52.433-15.608 45.945 3.865 74.314 44.462 84.776 59.436Z"></path><path fill="url(#c)" d="M1728.119 901.455a55.412 55.412 0 0 0 23.584 1.271c24.989-4.352 45.506-27.327 50.255-43.935 17.146-59.958-129.579-182.65-196.914-151.662-10.934 5.032-26.838 17.367-34.87 36.231-11.287 26.5-1.525 52.959 1.569 61.344 23.551 63.823 103.166 83.56 156.376 96.751Z"></path><path fill="url(#d)" d="M1660.843 992.688c20.113 1.384 47 2.851 64.281-14.746 14.381-14.641 15.028-35.266 15.069-39.006.824-75.85-172.306-167.733-230.8-125.75a49.488 49.488 0 0 0-16.931 21.9c-15.267 40.246 33.063 89.929 43.852 101.02 3.84 3.945 51.546 51.558 124.529 56.582Z"></path><path fill="url(#e)" d="M1508.3 1063.721c6.438 6.385 45.382 43.81 98.462 37.528 5.9-.7 61.343-8 72.777-45.545 10.372-34.064-22.964-68.438-28.348-73.99-53.735-55.408-171.57-63.036-208.873-8.333a67.512 67.512 0 0 0-8.492 17.526 89.538 89.538 0 0 0-3.948 28.162"></path><path fill="none" stroke="#081f2d" stroke-miterlimit="10" stroke-width="7.635" d="M1839.543 701.381c26.849 30.678 36.3 65.544 23.681 89.6-1.035 1.974-8.416 15.563-24.038 21.934-13.412 5.47-30.167 4.5-47.514-1.2"></path><path fill="none" stroke="#081f2d" stroke-miterlimit="10" stroke-width="7.635" d="M1728.1 901.4a55.886 55.886 0 0 0 23.584 1.27c25.814-4.339 45.65-27.828 50.256-43.934 13.172-46.061-70.366-129.144-140.326-151.136"></path><path fill="none" stroke="#081f2d" stroke-miterlimit="10" stroke-width="7.635" d="M1660.825 992.634c5.553 1.105 42.391 7.885 64.28-14.746 14.036-14.512 15.015-33.974 15.069-39.006.682-62.73-117.616-136.426-191.65-136.3"></path><path fill="none" stroke="#081f2d" stroke-miterlimit="10" stroke-width="7.635" d="M1508.28 1063.667c6.438 6.385 45.382 43.809 98.462 37.528 5.9-.7 61.344-8 72.777-45.545 10.373-34.064-22.963-68.438-28.348-73.99-35-36.089-97.192-51.908-146.614-43.437"></path><path fill="#b29adc" d="m2493.072 951.829-148.039 589.147c-108.12-52.131-185.514-83.6-236.192-105.414q-46.038-19.836-91.687-38.95c.233.058.931.231 1.678.36a12.227 12.227 0 0 0 1.821.318 7.965 7.965 0 0 0 1.5.07c20.665-.039 36.74-43.591 41.98-61.331 16.83-56.931 42.746-242.93 66.467-495.866Z"></path><path fill="none" stroke="#081f2d" stroke-miterlimit="10" stroke-width="7.635" d="M2100.332 1431.9a210.242 210.242 0 0 0 67.425-121.424l74.922-435.785"></path><path fill="none" stroke="#081f2d" stroke-linecap="round" stroke-linejoin="round" stroke-width="7.635" d="M1987.172 1356.11c5.278 12.3 18.088 41.331 34.966 41.278 20.713-.066 36.767-43.643 42-61.355 16.823-56.947 42.73-242.962 66.441-495.883"></path><circle cx="761.476" cy="451.608" r="254.486" fill="#f16091"></circle><path fill="none" stroke="#081f2d" stroke-miterlimit="10" stroke-width="12.724" d="m850.542 431.389-55.098-31.811M807.087 443.032l31.811-55.097M706.015 470.115l-55.098-31.811M662.56 481.758l31.811-55.097M837.813 557.7a125.833 125.833 0 0 0-101.433 25.739"></path></g></svg>