<svg width="20" height="20" viewBox="0 0 20 20" fill="none" xmlns="http://www.w3.org/2000/svg">
<g clip-path="url(#clip0_1015_7153)">
<mask id="mask0_1015_7153" style="mask-type:luminance" maskUnits="userSpaceOnUse" x="0" y="0" width="20" height="20">
<path d="M20 0H0V20H20V0Z" fill="white"/>
</mask>
<g mask="url(#mask0_1015_7153)">
<path d="M18.3346 18.3327L16.668 16.666M9.58464 17.4993C10.6243 17.4993 11.6537 17.2946 12.6142 16.8967C13.5747 16.4989 14.4474 15.9157 15.1826 15.1806C15.9177 14.4455 16.5008 13.5728 16.8987 12.6123C17.2965 11.6518 17.5013 10.6223 17.5013 9.58268C17.5013 8.54305 17.2965 7.5136 16.8987 6.5531C16.5008 5.59261 15.9177 4.71988 15.1826 3.98475C14.4474 3.24962 13.5747 2.66649 12.6142 2.26864C11.6537 1.87079 10.6243 1.66602 9.58464 1.66602C7.485 1.66602 5.47137 2.50009 3.98671 3.98475C2.50204 5.46942 1.66797 7.48305 1.66797 9.58268C1.66797 11.6823 2.50204 13.6959 3.98671 15.1806C5.47137 16.6653 7.485 17.4993 9.58464 17.4993Z" stroke="#4D4D4D" stroke-width="1.5" stroke-linecap="round" stroke-linejoin="round"/>
</g>
</g>
<defs>
<clipPath id="clip0_1015_7153">
<rect width="20" height="20" fill="white"/>
</clipPath>
</defs>
</svg>
