<svg width="24" height="24" viewBox="0 0 24 24" fill="none" xmlns="http://www.w3.org/2000/svg">
<path d="M18.4718 16.83L18.8618 19.99C18.9618 20.82 18.0718 21.4 17.3618 20.97L13.1718 18.48C12.7118 18.48 12.2618 18.45 11.8218 18.39C12.5618 17.52 13.0018 16.42 13.0018 15.23C13.0018 12.39 10.5418 10.09 7.5018 10.09C6.3418 10.09 5.27181 10.42 4.38181 11C4.35181 10.75 4.3418 10.5 4.3418 10.24C4.3418 5.68999 8.2918 2 13.1718 2C18.0518 2 22.0018 5.68999 22.0018 10.24C22.0018 12.94 20.6118 15.33 18.4718 16.83Z" stroke="#4D4D4D" stroke-width="1.5" stroke-linecap="round" stroke-linejoin="round"/>
<path d="M13.001 15.2298C13.001 16.4198 12.561 17.5198 11.821 18.3898C10.831 19.5898 9.26098 20.3598 7.50098 20.3598L4.89098 21.9098C4.45098 22.1798 3.89097 21.8098 3.95097 21.2998L4.20097 19.3298C2.86097 18.3998 2.00098 16.9098 2.00098 15.2298C2.00098 13.4698 2.94098 11.9198 4.38098 10.9998C5.27098 10.4198 6.34098 10.0898 7.50098 10.0898C10.541 10.0898 13.001 12.3898 13.001 15.2298Z" stroke="#4D4D4D" stroke-width="1.5" stroke-linecap="round" stroke-linejoin="round"/>
</svg>
