<svg width="173" height="44" viewBox="0 0 173 44" fill="none" xmlns="http://www.w3.org/2000/svg">
<g clip-path="url(#clip0_654_873)">
<path d="M1.94643 8.80173C1.94643 8.16891 1.91408 7.6659 1.84399 7.2927C1.77389 6.9195 1.67684 6.62742 1.54743 6.41648C1.41802 6.20554 1.26166 6.06492 1.07294 5.9946C0.884224 5.92429 0.663155 5.89184 0.409734 5.89184C0.177881 5.89184 0.0430833 5.76744 0.00533976 5.52404C-0.0324037 5.28065 0.11857 5.15625 0.442086 5.15625H9.12848C10.4603 5.15625 11.5656 5.36719 12.4553 5.78907C13.345 6.21095 14.019 6.74101 14.4881 7.38465C14.9572 8.02828 15.2214 8.72601 15.2915 9.47241C15.3615 10.2242 15.2375 10.9328 14.9248 11.598C14.6067 12.2633 14.1106 12.8421 13.4366 13.318C12.7572 13.7994 11.9053 14.0752 10.8809 14.1456C12.1641 14.2159 13.221 14.5512 14.0513 15.1462C14.8817 15.7411 15.4748 16.4821 15.836 17.3583C16.1973 18.2346 16.3375 19.1757 16.2566 20.1709C16.1757 21.1661 15.8522 22.0856 15.2915 22.9293C14.7307 23.7731 13.9435 24.4762 12.9298 25.0387C11.9161 25.6012 10.6598 25.8825 9.16622 25.8825H0.442086C0.113178 25.8825 -0.0324037 25.7581 0.00533976 25.5147C0.0430833 25.2713 0.17249 25.1469 0.409734 25.1469C0.668547 25.1469 0.889616 25.1199 1.07294 25.0604C1.26166 25.0009 1.41802 24.8711 1.54743 24.6763C1.67684 24.4762 1.77389 24.1896 1.84399 23.8164C1.91408 23.4432 1.94643 22.9401 1.94643 22.3073V8.80173ZM7.83442 13.8968C8.53537 13.8968 9.12309 13.6966 9.60297 13.3018C10.0829 12.9015 10.4495 12.4148 10.7083 11.8252C10.9671 11.2411 11.0965 10.5974 11.1127 9.8943C11.1235 9.19116 11.0157 8.54752 10.7784 7.96338C10.5466 7.37924 10.1853 6.88704 9.69463 6.4868C9.20397 6.08655 8.5839 5.89184 7.83981 5.89184H6.15753V13.9022H7.83442V13.8968ZM6.15214 25.174H7.69423C8.69713 25.174 9.52748 24.9143 10.1799 24.4005C10.8323 23.8867 11.3176 23.2376 11.6357 22.4534C11.9485 21.6691 12.1048 20.8199 12.0886 19.9059C12.0779 18.9918 11.8999 18.1426 11.5656 17.3583C11.2259 16.5741 10.7353 15.925 10.0936 15.4112C9.452 14.8974 8.65399 14.6377 7.69423 14.6377H6.15214V25.174Z" fill="white"/>
<path d="M23.3092 22.3285C23.3092 23.4319 23.4386 24.1783 23.692 24.5785C23.9508 24.9788 24.3337 25.1735 24.8459 25.1735C25.0777 25.1735 25.1964 25.2925 25.1964 25.5251C25.1964 25.7576 25.067 25.8766 24.8135 25.8766H17.6045C17.3457 25.8766 17.2217 25.7576 17.2217 25.5251C17.2217 25.2925 17.3403 25.1735 17.5722 25.1735C17.831 25.1735 18.0521 25.1356 18.2354 25.0491C18.4241 24.968 18.5805 24.8219 18.7099 24.611C18.8393 24.4001 18.9363 24.1134 19.0064 23.751C19.0765 23.3886 19.1089 22.9127 19.1089 22.3285V16.3573C19.1089 15.2106 18.9795 14.4588 18.7261 14.1072C18.4672 13.7557 18.0844 13.5826 17.5722 13.5826C17.3403 13.5826 17.2055 13.4744 17.1678 13.2635C17.13 13.0525 17.281 12.9119 17.6045 12.8416L22.4734 11.8572C22.8724 11.7653 23.1097 11.7382 23.1906 11.7869C23.2714 11.8356 23.3146 12.079 23.3146 12.5225V22.3285H23.3092ZM18.7584 7.15162C18.7584 6.39981 18.9795 5.83189 19.4216 5.44787C19.8638 5.06385 20.4029 4.86914 21.0338 4.86914C21.6647 4.86914 22.1985 5.0909 22.646 5.53441C23.0881 5.97793 23.3092 6.5188 23.3092 7.15162C23.3092 7.78445 23.0881 8.32532 22.646 8.76883C22.2038 9.21235 21.6647 9.43411 21.0338 9.43411C20.4029 9.43411 19.8638 9.21235 19.4216 8.76883C18.9795 8.32532 18.7584 7.78445 18.7584 7.15162Z" fill="white"/>
<path d="M45.2651 9.43411C44.2353 9.43411 43.3294 9.67209 42.5314 10.1535C41.7388 10.6348 41.0433 11.2298 40.4501 11.9438C39.857 12.6577 39.3502 13.4257 38.9458 14.2425C38.536 15.0646 38.2179 15.8002 37.9806 16.4546L33.322 29.56C33.2304 29.8196 33.0794 30.1333 32.8691 30.5065C32.6588 30.8797 32.3838 31.2475 32.0441 31.6153C31.7044 31.9777 31.3216 32.286 30.8903 32.5456C30.4589 32.8052 29.9736 32.9296 29.4344 32.9296C28.9438 32.9296 28.5394 32.7674 28.2266 32.4374C27.9139 32.1075 27.7306 31.7505 27.6821 31.3665C27.6335 30.9825 27.7468 30.6147 28.0164 30.2793C28.286 29.9386 28.7551 29.7439 29.4344 29.7006C29.6232 29.7006 29.8766 29.6844 30.2055 29.6465C30.5344 29.6087 30.8849 29.5113 31.2569 29.349C31.6289 29.1868 31.9902 28.938 32.3407 28.6135C32.6912 28.2835 32.9823 27.8292 33.2142 27.245L33.9151 25.4548L33.0039 25.8388C32.5833 26.0281 32.2436 25.9794 31.9902 25.6981C31.7314 25.4169 31.5373 25.1032 31.3971 24.7516L28.9114 17.9366C28.5394 16.9306 28.2212 16.0923 27.9678 15.427C27.709 14.7617 27.4718 14.2316 27.2507 13.8476C27.0296 13.4636 26.814 13.1878 26.6037 13.0201C26.3934 12.8578 26.1615 12.7767 25.9027 12.7767C25.6709 12.7767 25.5522 12.6523 25.5522 12.4089C25.5522 12.1655 25.6817 12.0411 25.9351 12.0411H32.7613C33.0201 12.0411 33.1441 12.1655 33.1441 12.4089C33.1441 12.6523 33.0255 12.7767 32.7936 12.7767C32.5348 12.7767 32.3407 12.847 32.2005 12.9876C32.0603 13.1283 32.001 13.3933 32.028 13.7773C32.0495 14.1613 32.1627 14.6914 32.3623 15.3567C32.5618 16.0219 32.8691 16.8711 33.2897 17.9042L35.042 22.1879L37.1449 16.4276C37.3066 15.957 37.5385 15.3458 37.8297 14.5832C38.1208 13.8206 38.4551 13.0147 38.8272 12.1601C39.1992 11.3055 39.6198 10.4455 40.0889 9.58014C40.558 8.71475 41.0594 7.93048 41.5932 7.22735C42.1324 6.52421 42.7094 5.95629 43.3294 5.5236C43.9441 5.08549 44.5911 4.86914 45.2651 4.86914C46.0362 4.86914 46.6077 5.10712 46.9798 5.5885C47.3518 6.06988 47.5405 6.58912 47.5405 7.15162C47.5405 7.71413 47.3518 8.23337 46.9798 8.71475C46.6077 9.19612 46.0362 9.43411 45.2651 9.43411Z" fill="white"/>
<path d="M40.6821 18.8133C40.6821 17.2935 40.9679 16.0279 41.5394 15.0218C42.111 14.0158 42.8227 13.237 43.6747 12.6853C44.5266 12.1336 45.4486 11.7928 46.4407 11.6684C47.4328 11.5386 48.3548 11.6035 49.2068 11.8631C50.0587 12.1228 50.7704 12.5446 51.342 13.1288C51.9135 13.7129 52.1993 14.4539 52.1993 15.3409C52.1993 15.9035 52.0375 16.466 51.7086 17.0285C51.3797 17.591 50.9214 18.1102 50.3283 18.5916C49.7352 19.073 49.0288 19.4948 48.2093 19.8572C47.3897 20.2196 46.5054 20.4846 45.5456 20.6469C45.9447 21.8206 46.4785 22.6752 47.1578 23.2106C47.8372 23.7515 48.5274 24.0328 49.2391 24.0544C49.9509 24.076 50.6302 23.8543 51.2719 23.3891C51.9135 22.9186 52.3988 22.2641 52.7277 21.4204C52.8463 21.1607 52.9919 21.058 53.1644 21.1067C53.337 21.1553 53.3909 21.3176 53.3208 21.5988C53.0404 22.7455 52.5336 23.6758 51.7949 24.3897C51.0616 25.1037 50.2258 25.5959 49.293 25.8663C48.3602 26.1368 47.3843 26.1854 46.3706 26.0232C45.3569 25.8609 44.4295 25.4823 43.5884 24.8982C42.7472 24.314 42.0517 23.5081 41.5071 22.4913C40.9517 21.469 40.6821 20.2467 40.6821 18.8133ZM50.1018 15.1246C50.1018 14.5134 49.9724 13.9942 49.719 13.5615C49.4602 13.1288 49.1475 12.8097 48.7754 12.6149C48.4034 12.4148 47.9882 12.3337 47.5299 12.3716C47.077 12.4094 46.6618 12.5879 46.2843 12.9178C45.9123 13.2478 45.5942 13.7183 45.3408 14.3403C45.0819 14.9623 44.9579 15.752 44.9579 16.7094C44.9579 17.9534 45.0873 19.0513 45.3408 20.0141C46.8828 19.6409 48.0583 19.0135 48.8779 18.1373C49.692 17.2502 50.1018 16.2496 50.1018 15.1246Z" fill="white"/>
<path d="M98.2516 25.1349C98.5104 25.1565 98.7315 25.1024 98.9148 24.9618C99.1035 24.8212 99.2599 24.5562 99.3893 24.1721C99.5187 23.7881 99.6158 23.2581 99.6859 22.5928C99.756 21.9275 99.7883 21.0621 99.7883 20.0128V8.87084C99.7883 7.74582 99.6589 7.03187 99.4055 6.72898C99.1467 6.42609 98.7639 6.27465 98.2516 6.27465C98.0198 6.27465 97.885 6.15025 97.8472 5.90686C97.8095 5.66346 97.9605 5.53906 98.284 5.53906H105.498C105.827 5.53906 105.973 5.66346 105.935 5.90686C105.897 6.15025 105.768 6.27465 105.531 6.27465C105.018 6.27465 104.63 6.44773 104.377 6.7993C104.118 7.15086 103.994 7.854 103.994 8.9087V15.7237L110.545 8.03249C110.847 7.65929 111.041 7.34558 111.122 7.10219C111.203 6.85879 111.214 6.66408 111.16 6.52345C111.101 6.38283 110.993 6.28547 110.826 6.22597C110.664 6.16648 110.475 6.13943 110.265 6.13943C110.055 6.13943 109.952 6.02585 109.952 5.80409C109.952 5.58233 110.071 5.46875 110.303 5.46875H114.611C114.843 5.46875 114.961 5.58233 114.961 5.80409C114.961 6.02585 114.843 6.13943 114.611 6.13943C114.212 6.13943 113.786 6.25302 113.333 6.47477C112.88 6.69653 112.384 7.113 111.845 7.72419L107.574 12.711L112.724 22.4792C113.026 23.0904 113.279 23.5664 113.478 23.9179C113.678 24.2695 113.845 24.5399 113.985 24.7238C114.125 24.9131 114.26 25.0321 114.39 25.0916C114.519 25.1511 114.686 25.1782 114.897 25.1782C115.155 25.1782 115.274 25.2971 115.263 25.5297C115.252 25.7623 115.118 25.8813 114.859 25.8813H107.714C107.456 25.8813 107.337 25.7569 107.348 25.5135C107.359 25.2701 107.493 25.1457 107.752 25.1457C108.173 25.1457 108.41 24.8969 108.469 24.3885C108.529 23.8855 108.356 23.2472 107.962 22.4738L104.738 16.3241L104.005 17.1678V19.9804C104.005 21.9924 104.134 23.3716 104.388 24.1072C104.646 24.8428 105.029 25.189 105.542 25.1457C105.66 25.1457 105.752 25.1836 105.822 25.2539C105.892 25.3242 105.935 25.4053 105.946 25.4973C105.957 25.5892 105.93 25.6812 105.86 25.7623C105.79 25.8434 105.671 25.8867 105.509 25.8867H98.2948C98.133 25.8867 98.0144 25.8488 97.9443 25.7623C97.8742 25.6812 97.8472 25.5946 97.858 25.4973C97.8688 25.4053 97.9119 25.3242 97.982 25.2539C98.0413 25.1727 98.133 25.1349 98.2516 25.1349Z" fill="white"/>
<path d="M128.576 18.8123C128.576 20.4295 128.241 21.7763 127.578 22.8526C126.915 23.929 126.085 24.7403 125.093 25.2757C124.1 25.8166 123.027 26.0816 121.868 26.0816C120.709 26.0816 119.636 25.8112 118.644 25.2757C117.652 24.7349 116.821 23.929 116.158 22.8526C115.495 21.7763 115.161 20.4295 115.161 18.8123C115.161 17.1951 115.495 15.8483 116.158 14.772C116.821 13.6956 117.652 12.8843 118.644 12.3489C119.636 11.808 120.709 11.543 121.868 11.543C123.027 11.543 124.095 11.8134 125.093 12.3489C126.085 12.8897 126.915 13.6956 127.578 14.772C128.241 15.8537 128.576 17.2005 128.576 18.8123ZM124.338 18.8123C124.338 16.6813 124.079 15.0749 123.567 13.9985C123.054 12.9222 122.488 12.3813 121.868 12.3813C121.248 12.3813 120.682 12.9168 120.17 13.9769C119.658 15.0424 119.399 16.6542 119.399 18.8069C119.399 20.9866 119.658 22.6146 120.17 23.691C120.682 24.7673 121.248 25.3082 121.868 25.3082C122.488 25.3082 123.054 24.7619 123.567 23.6747C124.084 22.593 124.338 20.9704 124.338 18.8123Z" fill="white"/>
<path d="M142.794 9.43456C142.072 9.43456 141.425 9.59682 140.853 9.92675C140.282 10.2567 139.78 10.684 139.349 11.2086C138.918 11.7333 138.535 12.3282 138.211 12.9827C137.882 13.6371 137.602 14.2754 137.37 14.8974C137.138 15.5194 136.939 16.0981 136.777 16.639C136.615 17.1799 136.464 17.6017 136.324 17.9046V20.7172C136.324 21.7232 136.362 22.5183 136.432 23.1078C136.502 23.692 136.599 24.1409 136.728 24.4438C136.858 24.7467 137.014 24.9414 137.203 25.0225C137.392 25.1036 137.613 25.1469 137.866 25.1469C138.098 25.1469 138.233 25.2713 138.27 25.5147C138.308 25.7581 138.157 25.8825 137.834 25.8825H130.619C130.29 25.8825 130.145 25.7581 130.183 25.5147C130.22 25.2713 130.35 25.1469 130.587 25.1469C130.846 25.1469 131.067 25.1145 131.25 25.0441C131.439 24.9738 131.595 24.7953 131.725 24.4979C131.854 24.2058 131.951 23.7677 132.021 23.1781C132.091 22.594 132.124 21.7827 132.124 20.755V18.7538C132.124 17.6991 132.091 16.8337 132.021 16.1522C131.951 15.4761 131.854 14.9406 131.725 14.5566C131.595 14.1726 131.439 13.9076 131.25 13.7669C131.061 13.6263 130.84 13.5668 130.587 13.5939C130.468 13.6155 130.377 13.5993 130.307 13.5398C130.237 13.4803 130.193 13.4046 130.183 13.3126C130.172 13.2207 130.199 13.1341 130.269 13.0476C130.339 12.9665 130.458 12.9016 130.619 12.8529L135.488 11.8685C135.887 11.7765 136.124 11.7495 136.205 11.7982C136.286 11.8468 136.329 12.0902 136.329 12.5338V16.0116C136.448 15.541 136.594 14.9406 136.766 14.2051C136.939 13.4695 137.154 12.6906 137.413 11.8685C137.672 11.0464 137.969 10.2242 138.308 9.39129C138.648 8.55834 139.036 7.81194 139.484 7.14126C139.926 6.47598 140.422 5.9297 140.972 5.50782C141.522 5.08594 142.131 4.875 142.81 4.875C143.582 4.875 144.158 5.11298 144.547 5.59436C144.93 6.07574 145.118 6.59498 145.107 7.15748C145.097 7.71999 144.897 8.23923 144.514 8.72061C144.105 9.19657 143.538 9.43456 142.794 9.43456Z" fill="white"/>
<path d="M153.826 19.6943C153.826 20.749 153.864 21.5712 153.934 22.1715C154.004 22.7665 154.101 23.2208 154.231 23.5237C154.36 23.8266 154.517 24.0159 154.705 24.0862C154.894 24.1565 155.115 24.1673 155.368 24.1187C155.6 24.097 155.735 24.1944 155.773 24.4161C155.811 24.6379 155.66 24.7839 155.336 24.8542L150.467 25.8386C150.068 25.9306 149.831 25.9576 149.75 25.9089C149.669 25.8603 149.626 25.6169 149.626 25.1734V23.594C149.276 24.1349 148.823 24.5946 148.262 24.9841C147.701 25.3681 147.092 25.6656 146.439 25.8603C145.787 26.0604 145.124 26.1361 144.461 26.0874C143.797 26.0388 143.193 25.8495 142.66 25.5087C142.12 25.168 141.684 24.6649 141.344 23.9997C141.004 23.3344 140.837 22.4582 140.837 21.3818V18.7802C140.837 17.7255 140.805 16.8601 140.735 16.1786C140.665 15.4971 140.568 14.9671 140.438 14.5831C140.309 14.1991 140.152 13.934 139.964 13.7934C139.775 13.6528 139.554 13.5933 139.3 13.6203C139.182 13.642 139.09 13.6257 139.02 13.5662C138.95 13.5067 138.907 13.431 138.896 13.3391C138.885 13.2471 138.912 13.1606 138.982 13.074C139.052 12.9929 139.171 12.928 139.333 12.8793L144.202 11.8949C144.601 11.803 144.838 11.7759 144.919 11.8246C145 11.8733 145.043 12.1167 145.043 12.5602V21.3764C145.043 22.1986 145.135 22.8422 145.323 23.3074C145.512 23.7779 145.749 24.097 146.04 24.2755C146.332 24.4486 146.66 24.5081 147.022 24.4486C147.383 24.3891 147.733 24.2593 148.073 24.0646C148.413 23.8645 148.72 23.6211 149.001 23.329C149.281 23.0369 149.491 22.7394 149.631 22.4311V18.7802C149.631 17.7255 149.599 16.8601 149.529 16.1786C149.459 15.4971 149.362 14.9671 149.232 14.5831C149.103 14.1991 148.947 13.934 148.758 13.7934C148.569 13.6528 148.348 13.5933 148.095 13.6203C147.976 13.642 147.884 13.6257 147.814 13.5662C147.744 13.5067 147.701 13.431 147.69 13.3391C147.68 13.2471 147.707 13.1606 147.777 13.074C147.847 12.9929 147.965 12.928 148.127 12.8793L152.996 11.8949C153.395 11.803 153.632 11.7759 153.713 11.8246C153.794 11.8733 153.837 12.1167 153.837 12.5602V19.6943H153.826Z" fill="white"/>
<path d="M171.091 20.7108C171.091 21.7168 171.118 22.5119 171.177 23.1014C171.237 23.6856 171.328 24.1345 171.458 24.4374C171.587 24.7403 171.744 24.935 171.932 25.0161C172.121 25.0973 172.342 25.1405 172.595 25.1405C172.827 25.1405 172.962 25.2649 173 25.5083C173.038 25.7517 172.887 25.8761 172.563 25.8761H165.349C165.02 25.8761 164.874 25.7517 164.912 25.5083C164.95 25.2649 165.079 25.1405 165.316 25.1405C165.575 25.1405 165.796 25.1081 165.98 25.0378C166.168 24.9674 166.325 24.7944 166.454 24.5131C166.583 24.2319 166.681 23.7992 166.751 23.215C166.821 22.6309 166.858 21.8087 166.858 20.754V16.3297C166.858 15.0911 166.659 14.2473 166.265 13.7984C165.866 13.3549 165.408 13.1656 164.88 13.2359C164.357 13.3062 163.844 13.5496 163.354 13.9715C162.863 14.3934 162.513 14.8261 162.302 15.2696V20.7162C162.302 21.7222 162.34 22.5173 162.41 23.1068C162.48 23.691 162.577 24.1399 162.707 24.4428C162.836 24.7457 162.992 24.9404 163.181 25.0215C163.37 25.1027 163.591 25.1459 163.844 25.1459C164.076 25.1459 164.211 25.2703 164.249 25.5137C164.286 25.7571 164.136 25.8815 163.812 25.8815H156.598C156.269 25.8815 156.123 25.7571 156.161 25.5137C156.199 25.2703 156.328 25.1459 156.565 25.1459C156.824 25.1459 157.045 25.1135 157.228 25.0432C157.417 24.9729 157.574 24.7998 157.703 24.5185C157.832 24.2373 157.929 23.8046 158 23.2204C158.07 22.6363 158.102 21.8142 158.102 20.7595V18.7582C158.102 17.7035 158.07 16.8381 158 16.1566C157.929 15.4805 157.832 14.9451 157.703 14.5611C157.574 14.177 157.417 13.912 157.228 13.7714C157.04 13.6307 156.819 13.5713 156.565 13.5983C156.447 13.6199 156.355 13.6037 156.285 13.5442C156.215 13.4847 156.172 13.409 156.161 13.317C156.15 13.2251 156.177 13.1386 156.247 13.052C156.317 12.9709 156.436 12.906 156.598 12.8573L161.467 11.8729C161.866 11.781 162.103 11.7539 162.184 11.8026C162.265 11.8513 162.308 12.0947 162.308 12.5382V14.1175C162.658 13.5767 163.111 13.1169 163.672 12.7329C164.233 12.3489 164.836 12.0514 165.494 11.8567C166.147 11.6566 166.81 11.5808 167.473 11.6295C168.136 11.6782 168.74 11.8675 169.274 12.2083C169.813 12.549 170.25 13.0574 170.59 13.7389C170.929 14.4204 171.097 15.2858 171.097 16.3405V20.7108H171.091Z" fill="white"/>
<path d="M74.6729 29.8081L74.4356 29.7757C72.0147 28.7318 69.4858 27.5365 67.3398 25.8868C67.3021 25.8544 67.2644 25.8273 67.2266 25.7949C67.1943 25.7678 67.1619 25.7462 67.1296 25.7192C65.4904 24.4319 64.013 23.004 62.7244 21.4625L62.6974 21.43L62.5734 21.284C62.3092 20.9595 62.0504 20.6295 61.8023 20.2942C61.7484 20.2239 61.6999 20.159 61.6514 20.0887C61.0313 19.2341 60.4651 18.3362 59.9745 17.433L59.8828 17.2599C56.7986 11.4293 57.0197 5.73931 60.4436 2.39671C62.1582 0.725417 64.0993 -0.069666 66.2075 0.0168737C70.3216 0.195362 73.767 3.67317 74.5542 4.52775C75.3415 3.67317 78.7923 0.195362 82.9009 0.0168737C85.0092 -0.0750747 86.9449 0.725417 88.6541 2.39671C89.0477 2.78073 89.3982 3.1918 89.684 3.60827C89.7217 3.65695 89.7649 3.72185 89.808 3.78676L89.8511 3.85707C90.2825 4.51153 90.6222 5.23089 90.8702 5.99893C90.8864 6.04761 90.9026 6.09628 90.9134 6.14496L90.9241 6.18282C90.9349 6.22609 90.9565 6.28018 90.9673 6.33968C91.4094 7.88657 91.4903 9.60655 91.2045 11.4563C91.2045 11.5591 91.183 11.651 91.1614 11.743C91.1021 12.0675 91.0428 12.3812 90.9673 12.6949C90.9511 12.7598 90.9349 12.8247 90.9187 12.8842L90.9134 12.9059C89.1987 19.8615 83.1382 26.1735 74.6998 29.7973L74.6729 29.8081ZM63.0802 21.0947L63.0964 21.1163C64.3635 22.6362 65.8247 24.0533 67.4369 25.3189C67.4746 25.3459 67.507 25.373 67.5447 25.4054C67.5771 25.4325 67.6094 25.4595 67.6472 25.4866C69.7339 27.093 72.2141 28.2667 74.592 29.2943C82.7176 25.7895 88.7889 19.4721 90.4496 12.8031L90.455 12.7707C90.4712 12.7003 90.4874 12.6354 90.5036 12.5651C90.5737 12.2622 90.633 11.9593 90.6869 11.6619L90.6923 11.624C90.7085 11.5429 90.7246 11.478 90.7246 11.4239L90.73 11.386C91.005 9.60655 90.9349 7.95148 90.509 6.46949C90.4928 6.4154 90.4766 6.36672 90.4658 6.31804C90.4443 6.24232 90.4281 6.19905 90.4173 6.15578C90.1801 5.43101 89.8565 4.75492 89.4575 4.13832L89.3982 4.05719C89.3659 4.00852 89.3335 3.95443 89.2904 3.90575C89.01 3.49469 88.6811 3.11608 88.3144 2.75369C86.7023 1.18516 84.896 0.427937 82.9279 0.514477C78.5551 0.703782 74.8131 4.98749 74.7753 5.03076L74.6998 5.1173H74.4195L74.344 5.03076C74.3062 4.98749 70.5642 0.703782 66.186 0.514477C64.2233 0.427937 62.4062 1.17975 60.794 2.75369C57.5319 5.93402 57.3486 11.3914 60.3142 17.0003L60.4166 17.1896C60.8911 18.0712 61.4465 18.9528 62.0665 19.802C62.1151 19.8777 62.1528 19.9264 62.1959 19.9859C62.444 20.3158 62.6974 20.6458 62.9562 20.9649L63.0802 21.0947Z" fill="white"/>
<path d="M90.6978 12.2884C90.6978 12.3695 90.6762 12.456 90.6546 12.548C90.6007 12.8292 90.5414 13.1159 90.4713 13.3971C90.4551 13.462 90.4389 13.5269 90.4228 13.5919C88.9022 19.39 83.3971 25.8264 74.5867 29.3907L74.4627 29.3367C71.8637 28.2765 69.6153 26.9622 67.6095 25.5073C67.534 25.4532 67.4747 25.4045 67.3992 25.3504C65.7493 24.1281 64.3097 22.8029 63.0911 21.4237C63.0911 21.4237 63.0911 21.4237 63.0857 21.4183C63.0426 21.3696 62.9994 21.3209 62.9563 21.2722C62.6975 20.9694 62.444 20.6665 62.2014 20.3636C62.1475 20.2987 62.1097 20.25 62.0666 20.1851C61.4465 19.3792 60.902 18.5625 60.4275 17.7403C60.3951 17.6863 60.3682 17.6322 60.3358 17.5835C60.3304 17.5781 60.3304 17.5727 60.325 17.5673C57.4511 12.4452 57.4673 7.19333 60.8426 4.08872C67.2213 -1.76352 74.522 6.21435 74.522 6.21435H74.5759C74.5759 6.21435 81.8766 -1.76893 88.2444 4.08872C88.6111 4.42406 88.9454 4.79185 89.2258 5.17587C89.2905 5.2516 89.339 5.33273 89.3929 5.40845C89.8081 6.00341 90.1316 6.64705 90.3634 7.33396C90.3796 7.37723 90.3904 7.4205 90.4066 7.46377C90.412 7.47458 90.412 7.47999 90.4174 7.49081C90.4335 7.53949 90.4497 7.58817 90.4659 7.63684C90.9026 9.05393 90.9727 10.6333 90.6978 12.2884Z" fill="#EE2D42"/>
<path d="M73.5891 11.5488L73.9989 11.5705L74.0798 11.803L73.7563 11.8247L73.5784 11.5813L73.5891 11.5488Z" fill="#D51C56"/>
<path d="M74.0365 10.877L73.9988 11.4178L74.2252 11.38L74.387 11.1907L74.0365 10.877Z" fill="#D51C56"/>
<path d="M74.7214 11.1641L74.3547 11.4832L74.4248 11.7266L74.6621 11.6346L74.7214 11.1641Z" fill="#D51C56"/>
<path d="M90.6977 12.2895C90.6977 12.3706 90.6761 12.4571 90.6546 12.5491C90.6007 12.8303 90.5413 13.117 90.4712 13.3982C90.4551 13.4631 90.4389 13.528 90.4227 13.593L90.3634 13.6038C90.3418 13.6092 90.3203 13.6146 90.2987 13.62C90.2771 13.6254 90.2556 13.6308 90.234 13.6362C90.1801 13.647 90.1208 13.6633 90.0615 13.6741C89.5978 13.7714 88.9615 13.9121 88.6865 13.9499H88.6703C88.4601 13.9824 88.0934 14.0365 87.6189 14.0365C87.3925 14.0365 87.1444 14.0257 86.8748 13.9878C86.7832 14.3069 86.2332 14.5882 85.0901 14.9127C84.9337 14.9505 84.7935 14.9668 84.6695 14.9668C83.9201 14.9668 83.6073 14.3934 83.5264 14.2095C83.4725 14.2041 83.4186 14.2041 83.3647 14.1987L83.2946 14.1933C82.8093 14.1501 82.378 13.9445 82.0167 13.6903C81.952 13.8363 81.8603 13.9391 81.7363 14.0094C81.6285 14.0689 81.5045 14.096 81.3805 14.096C81.003 14.096 80.6202 13.8634 80.5986 13.8526L80.5878 13.8418C80.2212 13.5335 79.9354 13.2143 79.709 12.906C79.6766 12.9169 79.6443 12.9277 79.6173 12.9331C79.1482 13.0575 78.5281 13.1819 77.9566 13.1819C77.7787 13.1819 77.6115 13.1711 77.4497 13.144H77.4444C76.986 13.0413 76.6895 12.8682 76.5385 12.6194C76.5277 12.6032 76.5169 12.5815 76.5062 12.5653C76.5008 12.5545 76.4954 12.5491 76.4954 12.5383C76.4846 12.522 76.4792 12.5004 76.4738 12.4788C76.4684 12.4679 76.463 12.4571 76.463 12.4463C76.463 12.4409 76.4576 12.4301 76.4576 12.4247C76.4522 12.4139 76.4522 12.4084 76.4522 12.3976C76.4468 12.3706 76.4415 12.3435 76.4361 12.3165C76.4361 12.3057 76.4307 12.2949 76.4307 12.284C76.4307 12.2678 76.4253 12.2516 76.4253 12.2354C76.4145 12.019 76.4684 11.8027 76.5115 11.6134L76.5169 11.5809L76.5223 11.5485C76.5277 11.5376 76.5277 11.5214 76.5331 11.5106C76.5331 11.5052 76.5385 11.4998 76.5385 11.4944C76.5385 11.489 76.5439 11.4836 76.5439 11.4781C76.5493 11.4727 76.5493 11.4673 76.5547 11.4619C76.5601 11.4511 76.5655 11.4457 76.5709 11.4349L76.5763 11.4241C76.5816 11.4186 76.587 11.4132 76.5924 11.4024C76.6841 11.2888 76.8458 11.1915 77.0615 11.0995C77.0777 11.0941 77.0939 11.0887 77.11 11.0779C77.1262 11.0725 77.1478 11.0617 77.164 11.0563C77.1801 11.0509 77.1909 11.0454 77.2071 11.04C77.2341 11.0292 77.2664 11.0184 77.2988 11.0076C77.4983 10.9373 77.7193 10.8778 77.9674 10.8183C77.9943 10.8129 78.0267 10.8021 78.0536 10.7966C78.086 10.7858 78.1237 10.7804 78.1561 10.775C78.1938 10.7642 78.237 10.7588 78.2801 10.748C78.334 10.7371 78.3879 10.7263 78.4419 10.7155C78.485 10.7047 78.5335 10.6993 78.5767 10.6885C78.6791 10.6668 78.7816 10.6506 78.884 10.629C79.0134 10.0556 79.3477 9.58509 79.8815 9.2227C79.5903 9.35792 79.2992 9.52559 78.9595 9.72571C78.6629 9.89879 78.3448 10.0827 77.9512 10.2936C77.8595 10.3423 77.7679 10.391 77.6654 10.4397C77.6115 10.4667 77.5576 10.4938 77.4983 10.5208C77.4767 10.5316 77.4551 10.5424 77.439 10.5532C77.0561 10.7426 76.7164 10.867 76.4199 10.9373H76.4145C76.2473 10.9751 76.091 10.9968 75.9508 10.9968C75.9238 10.9968 75.8969 10.9968 75.8753 10.9968C75.5626 10.9805 75.3253 10.8561 75.169 10.629L75.1582 10.6127C74.9748 10.2179 75.5248 9.83389 76.0155 9.49855C76.0856 9.44987 76.1503 9.40119 76.215 9.35792C76.3228 9.2822 76.4199 9.19025 76.5062 9.08748C77.6061 7.80021 79.5418 6.79418 80.1511 6.60488L80.1619 6.59947H80.1727C81.1594 6.51834 82.1138 6.37771 83.1221 6.22627C83.8554 6.11809 84.6102 6.00451 85.3867 5.91797H85.3974C85.419 5.91797 85.4352 5.91797 85.4568 5.91797C87.8562 5.91797 89.6517 6.8645 90.3688 7.31342C90.385 7.35669 90.3958 7.39996 90.4119 7.44323C90.3958 7.44864 90.3904 7.45405 90.4227 7.47027C90.4389 7.51895 90.4551 7.56763 90.4712 7.61631C90.9026 9.05503 90.9727 10.6344 90.6977 12.2895Z" fill="#FFFDFD"/>
<path d="M81.375 15.4741C81.1809 15.8419 80.6794 16.1015 79.8922 16.253C79.0025 16.4206 77.9996 16.6208 77.1369 16.7884C76.5223 16.9291 76.0693 17.021 76.0586 17.021L76.0532 16.9994C75.7081 17.0697 75.4277 17.1292 75.2552 17.167C75.115 17.1995 74.8723 17.2265 74.565 17.259C73.3842 17.3942 71.195 17.643 70.3755 18.5355C70.3215 18.622 70.2676 18.7085 70.2137 18.7897C69.7554 19.509 69.5289 19.9039 69.8632 20.2825C69.9603 20.3906 70.2029 20.5367 70.4833 20.7098C71.4431 21.2885 73.0499 22.2567 72.7533 24.0199C72.7641 24.1227 72.8072 24.577 72.5484 24.7014C72.5053 24.723 72.4621 24.7339 72.4082 24.7339C72.1818 24.7339 71.8798 24.5229 71.4646 24.0902L71.3244 23.9712C70.149 22.976 69.0329 22.0403 66.558 21.7104C66.38 21.6887 66.1913 21.6671 65.9864 21.6455C65.1938 21.5643 64.2934 21.467 63.5385 21.0992C63.5008 21.083 63.4684 21.0667 63.4361 21.0451L63.0856 21.4129C63.0424 21.3642 62.9993 21.3155 62.9562 21.2669C62.6974 20.964 62.4439 20.6611 62.2013 20.3582C62.1474 20.2933 62.1096 20.2446 62.0665 20.1797C61.4464 19.3738 60.9018 18.5571 60.4274 17.735C60.395 17.6809 60.368 17.6268 60.3357 17.5781C60.7778 17.1562 61.193 16.7614 61.441 16.5234C61.468 16.4964 61.495 16.4693 61.5219 16.4477C62.3199 15.6851 64.0615 15.1658 65.9056 14.6141L66.256 14.5114C66.8923 14.3221 67.4261 14.1165 67.8898 13.9218C68.03 13.792 69.3025 12.5696 70.2353 11.4608C71.0441 10.5035 72.0092 9.34061 72.3381 8.94578C72.392 8.88087 72.4298 8.8376 72.446 8.82138C72.4567 8.79974 72.4837 8.74025 72.5214 8.66452C72.5969 8.51849 72.7102 8.29132 72.845 8.06956C73.2763 7.34479 73.492 7.29071 73.616 7.30693C73.8209 7.33938 73.8694 7.63146 73.8856 7.74504C74.0096 8.01007 74.1013 8.30755 74.0689 8.68075C73.7454 9.35143 73.4057 10.0437 73.1146 10.6333C72.4837 11.4987 71.7181 12.4236 71.3514 12.8509C72.1656 12.6129 73.1307 12.2776 73.8155 11.9909C73.9072 11.953 73.9934 11.9152 74.0743 11.8773H74.0797C74.1229 11.8611 74.1606 11.8394 74.2037 11.8232C74.2361 11.807 74.2738 11.7908 74.3062 11.7745C74.3439 11.7583 74.3817 11.7421 74.4194 11.7205C74.4787 11.6934 74.538 11.6664 74.6027 11.6339C74.6189 11.6231 74.6405 11.6177 74.6567 11.6069C74.6782 11.5961 74.6998 11.5852 74.7214 11.5744C75.1258 11.3797 75.5301 11.1742 75.8752 11.0011C76.0586 10.9091 76.2203 10.8226 76.3551 10.7523C76.587 10.6333 76.7271 10.5576 76.7325 10.5522L76.7433 10.5468C76.8404 10.5089 77.1369 10.3953 77.4497 10.3358C77.6276 10.298 77.8055 10.2817 77.9565 10.298C78.0697 10.3142 78.1668 10.3466 78.2261 10.417C78.3016 10.4981 78.3178 10.6117 78.2854 10.7523C78.2746 10.7847 78.2639 10.8226 78.2531 10.8605C78.2369 10.8983 78.2207 10.9362 78.2045 10.9741C78.2045 10.9795 78.1992 10.9849 78.1938 10.9903L78.1884 10.9957C78.0913 11.1417 77.9295 11.3202 77.7085 11.5257C77.5036 11.7096 77.2502 11.9152 76.9482 12.1261C76.8512 12.1964 76.7487 12.2667 76.6409 12.337C76.6139 12.3587 76.5816 12.3749 76.5546 12.3965C76.5276 12.4128 76.4953 12.4344 76.4683 12.4506C76.0424 12.7265 75.5463 13.0131 75.0017 13.289C74.8184 13.3863 74.6243 13.4783 74.4302 13.5702C73.9233 13.8082 73.3788 14.0408 72.8072 14.2517C73.7993 14.3491 76.2796 14.5925 78.3178 14.7493C78.6952 14.6628 79.0672 14.5817 79.3962 14.5059C80.3667 14.2842 80.7172 14.2085 80.7927 14.2085C80.8304 14.2085 80.9544 14.2247 80.9922 14.414C81.0137 14.5222 80.9976 14.6953 80.9275 14.8846C81.0191 14.8846 81.1 14.8792 81.1647 14.8792C81.2294 14.8737 81.2833 14.8683 81.3211 14.8629C81.3696 14.8521 81.4127 14.8792 81.4343 14.9224C81.4343 14.9441 81.5314 15.1874 81.375 15.4741Z" fill="#FFFDFD"/>
<path d="M72.3489 8.95236C72.3489 8.95236 73.2817 9.37424 73.8155 8.07074C73.8155 8.07074 73.9071 7.26484 73.5675 7.40006C73.2278 7.53528 72.3489 8.95236 72.3489 8.95236Z" fill="#F0BCD3"/>
<path d="M80.3938 15.595C80.3938 15.595 81.181 15.5787 81.3158 15.2975C81.4506 15.0162 81.1648 14.9946 81.1648 14.9946C81.1648 14.9946 80.9168 14.9892 80.8952 14.9946C80.8683 15 80.3938 15.595 80.3938 15.595Z" fill="#F0BCD3"/>
<path d="M81.429 14.9403C81.4128 14.8971 81.3643 14.87 81.3158 14.8808C81.278 14.8916 81.2241 14.8971 81.1594 14.8971C81.0947 14.9025 81.0138 14.9025 80.9222 14.9025C80.9923 14.7078 81.003 14.5401 80.9869 14.4319C80.9491 14.2426 80.8251 14.2264 80.7874 14.2264C80.7119 14.2264 80.3614 14.3021 79.3909 14.5239C79.0619 14.5996 78.6899 14.6807 78.3125 14.7672C76.2689 14.6104 73.7886 14.367 72.8019 14.2696C73.3735 14.0587 73.918 13.8261 74.4249 13.5881C74.619 13.4962 74.8131 13.3988 74.9964 13.3069C75.541 13.0256 76.0317 12.7444 76.463 12.4685C76.49 12.4523 76.5223 12.4307 76.5493 12.4145C76.5817 12.3928 76.6086 12.3766 76.6356 12.355C76.7434 12.2846 76.8459 12.2143 76.9429 12.144C76.9807 12.117 77.0184 12.0899 77.0507 12.0629C77.0777 12.0412 77.1047 12.025 77.1316 12.0034C77.1424 11.9926 77.1532 11.9872 77.1694 11.9763C77.1802 11.9655 77.1909 11.9601 77.2071 11.9493C77.2449 11.9223 77.2772 11.8952 77.315 11.8682C77.3311 11.8574 77.3473 11.8411 77.3635 11.8303C77.3797 11.8195 77.3958 11.8033 77.412 11.7924C77.4282 11.7816 77.4444 11.7708 77.4551 11.7546C77.4713 11.7438 77.4875 11.7275 77.4983 11.7167C77.5145 11.7059 77.5252 11.6897 77.5414 11.6789C77.5576 11.668 77.5684 11.6572 77.5846 11.641C77.6061 11.6248 77.6277 11.6031 77.6439 11.5869C77.6654 11.5707 77.6816 11.5545 77.6978 11.5382C77.6978 11.5382 77.6978 11.5382 77.7032 11.5328C77.9242 11.3327 78.0914 11.1542 78.1831 11.0028L78.1884 10.9974C78.1938 10.992 78.1938 10.9865 78.1992 10.9811C78.2208 10.9433 78.237 10.9054 78.2478 10.8676C78.2639 10.8297 78.2747 10.7918 78.2801 10.7594C78.3179 10.6188 78.2963 10.5052 78.2208 10.424C78.1615 10.3537 78.0644 10.3159 77.9512 10.305C77.8002 10.2888 77.6223 10.305 77.4444 10.3429C77.137 10.4078 76.8405 10.516 76.738 10.5538L76.7272 10.5593C76.7218 10.5593 76.5763 10.6404 76.3498 10.7594C76.215 10.8297 76.0532 10.9108 75.8699 11.0082C75.8484 11.019 75.8268 11.0298 75.8052 11.0406C75.7405 11.0731 75.6704 11.1109 75.6003 11.1434C75.568 11.1596 75.5302 11.1813 75.4925 11.1975C75.4224 11.2353 75.3469 11.2678 75.2768 11.3057C75.0935 11.3976 74.9048 11.4896 74.7161 11.5815C74.6945 11.5923 74.6729 11.6031 74.6513 11.614C74.6352 11.6248 74.6136 11.6302 74.5974 11.641C74.5381 11.668 74.4734 11.7005 74.4141 11.7275C74.3764 11.7438 74.3386 11.76 74.3009 11.7816C74.2685 11.7979 74.2308 11.8141 74.1984 11.8303C74.1553 11.8465 74.1175 11.8682 74.0744 11.8844H74.069C73.9881 11.9223 73.9019 11.9601 73.8102 11.998C73.12 12.2846 72.1549 12.62 71.3461 12.858C71.7127 12.4253 72.4838 11.5058 73.1093 10.6404C73.2171 10.4889 73.3195 10.3429 73.4166 10.2023C73.8479 9.56946 74.0259 9.08267 74.0582 8.68784C74.0906 8.31463 73.9989 8.01715 73.8749 7.75213C73.8587 7.63313 73.8156 7.34647 73.6053 7.31402C73.4813 7.29239 73.2656 7.35188 72.8343 8.07665C72.7049 8.29841 72.5862 8.52558 72.5107 8.67161C72.473 8.74733 72.446 8.80142 72.4353 8.82846C72.4191 8.84469 72.3813 8.88796 72.3274 8.95286C72.0039 9.3477 71.0334 10.5052 70.2246 11.4679C69.2918 12.5713 68.0193 13.7991 67.8791 13.9289C67.4208 14.1182 66.8816 14.3237 66.2453 14.5184L65.8949 14.6212C64.0508 15.1729 62.3146 15.6921 61.5112 16.4548C61.4843 16.4764 61.4573 16.5034 61.4303 16.5305C61.1392 16.8063 60.7294 17.1849 60.3142 17.569C60.3196 17.5744 60.3196 17.5798 60.325 17.5852C60.3573 17.6393 60.3843 17.6934 60.4167 17.742C60.8804 17.3148 61.3441 16.8875 61.646 16.5954C62.4117 15.8652 64.1317 15.3514 65.9488 14.8105L66.2992 14.7078C67.2914 14.4103 68.0408 14.0803 68.6447 13.8153C69.2217 13.5611 69.6369 13.3772 69.955 13.3664C70.6182 13.3448 72.7857 12.6578 73.9881 12.1386C74.0421 12.117 74.0906 12.0953 74.1337 12.0737C74.2847 12.0034 74.4411 11.9331 74.6028 11.8574C75.2606 11.5436 75.967 11.1867 76.3929 10.9595H76.3983C76.4037 10.9595 76.4037 10.9541 76.4091 10.9541C76.6248 10.8405 76.7704 10.7648 76.7973 10.7486C77.0022 10.6674 77.2556 10.5917 77.4821 10.543C77.6978 10.4998 77.8973 10.4835 77.9997 10.5268C77.9997 10.5268 78.0051 10.5268 78.0051 10.5322C78.0213 10.5376 78.0375 10.5484 78.0483 10.5593L78.0536 10.5647C78.0536 10.5647 78.0536 10.5647 78.0536 10.5701C78.0914 10.6133 78.0806 10.7053 78.0321 10.8243C78.0213 10.8513 78.0051 10.8838 77.9889 10.9162C77.9836 10.9271 77.9782 10.9325 77.9728 10.9433C77.9458 10.9811 77.9135 11.0244 77.8757 11.0677C77.7463 11.2191 77.563 11.3922 77.3311 11.5869C77.2988 11.614 77.2664 11.6356 77.2341 11.6626C77.1586 11.7221 77.0777 11.787 76.9914 11.8465C76.8674 11.9385 76.7326 12.0304 76.5924 12.1278C76.5601 12.1494 76.5277 12.1711 76.49 12.1981C76.4576 12.2197 76.4253 12.2414 76.3929 12.263C75.967 12.5389 75.4763 12.8255 74.9317 13.1068C74.7592 13.1987 74.5812 13.2853 74.3925 13.3718C73.7455 13.6801 73.0392 13.9776 72.2843 14.2372L72.1711 14.2751C72.0956 14.3021 72.1117 14.4103 72.1872 14.4157L72.3059 14.4265C72.5 14.4481 75.2013 14.724 77.6115 14.9187C76.7272 15.108 75.9346 15.2648 75.7405 15.2486C75.266 15.2108 73.1416 15.3784 72.6078 15.4217C72.5431 15.4271 72.4946 15.4812 72.5 15.5515C72.5054 15.6164 72.5647 15.6651 72.6294 15.6597C73.1524 15.6164 75.2714 15.4487 75.7243 15.4866C75.9939 15.5082 77.0615 15.2865 78.4311 14.9836C78.4473 14.9836 78.4634 14.9836 78.4796 14.989C79.283 15.0485 80.0055 15.0918 80.5339 15.108C80.5285 15.1134 80.5285 15.1188 80.5231 15.1188C80.3668 15.3568 80.0756 15.6489 79.5526 15.8544C78.2747 16.3466 76.0047 16.8009 75.9831 16.8063L75.9885 16.828C75.6381 16.8983 75.3577 16.9578 75.1851 16.9956C75.0557 17.0227 74.8185 17.0497 74.5165 17.0876C73.3088 17.2282 71.0603 17.4824 70.1976 18.4344L70.1868 18.4506C70.1329 18.5425 70.0736 18.6291 70.0197 18.7102C69.6422 19.2998 69.3349 19.7811 69.5452 20.2301L68.634 19.7379C68.5854 19.7108 68.5261 19.7325 68.4992 19.7811C68.4884 19.7974 68.4884 19.8136 68.4884 19.8298C68.4884 19.8623 68.5099 19.9001 68.5423 19.9164L70.0898 20.7439C70.1707 20.798 70.2623 20.8521 70.3594 20.9062C70.8824 21.2199 71.6103 21.658 72.0848 22.2854C72.4407 22.7559 72.6563 23.3239 72.5323 24.0324V24.0486V24.0648C72.5593 24.2325 72.5431 24.5084 72.4407 24.557C72.3921 24.5787 72.1818 24.6111 71.5833 23.9837L71.4324 23.8539C71.2814 23.7241 71.1304 23.5997 70.9741 23.4753C69.9172 22.6099 68.7741 21.8419 66.5635 21.5498C66.3855 21.5282 66.1914 21.5065 65.9865 21.4849C65.2101 21.4038 64.3258 21.3118 63.6033 20.9548C62.7999 20.56 62.3577 19.9164 62.2499 18.9806C62.2445 18.9266 62.196 18.8887 62.1421 18.8941C62.0882 18.8995 62.0504 18.9428 62.0504 18.9915C62.0504 18.9969 62.0504 18.9969 62.0504 19.0023C62.1529 19.8947 62.5411 20.5438 63.2366 20.9765L62.9347 21.301C62.9778 21.3497 63.021 21.3983 63.0641 21.447C63.0641 21.447 63.0641 21.447 63.0695 21.4524L63.42 21.0846C63.4523 21.1009 63.4901 21.1225 63.5224 21.1387C64.2773 21.5119 65.1777 21.6039 65.9703 21.685C66.1752 21.7066 66.364 21.7283 66.5419 21.7499C69.0168 22.0798 70.1275 23.021 71.3083 24.0108L71.4485 24.1298C71.8637 24.5625 72.1657 24.7734 72.3921 24.7734C72.4406 24.7734 72.4892 24.7626 72.5323 24.7409C72.7911 24.6165 72.748 24.1622 72.7372 24.0594C73.0284 22.2908 71.427 21.328 70.4672 20.7493C70.1868 20.5816 69.9442 20.4356 69.8471 20.322C69.5128 19.9434 69.7393 19.5486 70.1976 18.8292C70.2515 18.7481 70.3055 18.6615 70.3594 18.575C71.1789 17.6826 73.3735 17.4337 74.5489 17.2985C74.8562 17.2607 75.0989 17.2336 75.2391 17.2066C75.4116 17.1687 75.692 17.1092 76.0371 17.0389L76.0425 17.0605C76.0532 17.0605 76.5062 16.9686 77.1208 16.828C77.9836 16.6603 78.9865 16.4602 79.8761 16.2925C80.6633 16.1411 81.1594 15.8814 81.3589 15.5137C81.5314 15.1891 81.4344 14.9457 81.429 14.9403ZM69.9712 13.1663C69.6153 13.1771 69.1839 13.3664 68.5854 13.6314C68.5261 13.6585 68.4668 13.6855 68.4075 13.7125C68.8874 13.2366 69.7285 12.3874 70.3971 11.5977C71.2652 10.5701 72.3113 9.30984 72.5593 9.01236C72.5916 8.96909 72.6132 8.94746 72.6132 8.94746L72.624 8.93664L72.6294 8.92582C72.6294 8.92041 72.8073 8.5418 73.023 8.17942C73.422 7.50873 73.5784 7.50873 73.5945 7.51414C73.6215 7.51955 73.67 7.58446 73.7024 7.80081V7.81703L73.7078 7.83326C73.7401 7.90357 73.7778 7.9847 73.8156 8.08747C73.9396 8.46067 73.9774 9.06645 73.271 10.0995C72.4676 11.284 71.1897 12.7714 71.0172 12.9661C70.5589 13.0797 70.1814 13.1554 69.9712 13.1663ZM79.132 14.8267C79.2345 14.8051 79.3369 14.7781 79.4394 14.7564C80.0271 14.6212 80.5879 14.4968 80.7496 14.4698C80.7604 14.5184 80.7604 14.632 80.7119 14.7889C80.7011 14.8213 80.6849 14.8592 80.6687 14.9025C80.2751 14.8916 79.7413 14.8646 79.132 14.8267ZM81.1702 15.4325C81.03 15.6381 80.6903 15.8977 79.8546 16.0599C79.7413 16.0816 79.6227 16.1032 79.5041 16.1302C79.5634 16.1086 79.6173 16.087 79.6766 16.0653C80.0109 15.9355 80.2643 15.7733 80.4585 15.5894C80.631 15.4271 80.755 15.2594 80.8413 15.0972C81.0192 15.0972 81.1648 15.0918 81.2672 15.0864C81.278 15.1567 81.2726 15.2649 81.2025 15.3893C81.1918 15.4055 81.181 15.4163 81.1702 15.4325Z" fill="#4A4A4A"/>
<path d="M74.414 13.604C74.4895 13.5661 74.3655 12.9117 74.2361 12.5709C74.1714 12.3924 73.9126 11.9651 73.9126 11.9651L74.6028 11.7812C74.6028 11.7812 74.7537 12.1274 74.867 12.6358C74.9802 13.1442 74.9964 13.3173 74.9964 13.3173L74.414 13.604Z" fill="#4A4A4A"/>
<path d="M78.4688 14.8915C78.4688 14.8915 78.8839 16.049 80.4476 15.1782C81.1431 14.7887 80.8358 14.3182 80.6848 14.3344C80.5393 14.3452 78.4688 14.8915 78.4688 14.8915Z" fill="#F0BCD3"/>
<path d="M76.4306 10.954C76.4306 10.954 76.1934 12.1602 77.3634 11.576C78.5281 10.9919 78.086 10.5646 78.086 10.5646C78.086 10.5646 77.6816 10.1481 76.4306 10.954Z" fill="#F0BCD3"/>
<path d="M90.4712 7.63284C90.4442 7.6112 90.4119 7.58957 90.3741 7.56793C89.754 7.16228 87.9208 6.11839 85.4135 6.13462C84.6425 6.22116 83.8876 6.33474 83.1651 6.44292C82.1568 6.59436 81.2078 6.73499 80.2157 6.81612C79.5903 7.01624 77.6114 8.05472 76.5654 9.36363L76.5546 9.37985C76.4468 9.4718 76.2958 9.57457 76.1394 9.68274C75.762 9.94236 75.2444 10.2993 75.3468 10.5427C75.5517 10.8348 75.9399 10.8618 76.3659 10.7699C76.6948 10.6996 77.0561 10.5535 77.3688 10.3967C77.4011 10.3805 77.4281 10.3697 77.4604 10.3534C78.0536 10.0614 78.4903 9.80714 78.8785 9.57998C79.5094 9.21218 80.1025 8.98502 80.7441 8.83357L80.6633 8.96879L80.6525 8.99043C80.6147 9.00124 80.5824 9.00665 80.5446 9.01747C80.3128 9.07697 80.1079 9.1581 79.903 9.25005C79.6118 9.38526 79.3207 9.55293 78.981 9.75306C78.6844 9.92614 78.3663 10.11 77.9727 10.321C77.881 10.3697 77.7894 10.4183 77.6869 10.467C77.633 10.4941 77.5791 10.5211 77.5198 10.5481C77.4982 10.559 77.4766 10.5698 77.4604 10.5806C77.0776 10.7699 76.7379 10.8943 76.4414 10.9646H76.436C76.2688 11.0025 76.1125 11.0241 75.9723 11.0241C75.9453 11.0241 75.9184 11.0241 75.8968 11.0241C75.5841 11.0079 75.3468 10.8835 75.1904 10.6563L75.1797 10.6401C74.9963 10.2453 75.5463 9.86123 76.037 9.52589C76.1071 9.47721 76.1718 9.42853 76.2365 9.38526C76.3443 9.30954 76.4414 9.21759 76.5276 9.11483C77.6276 7.82755 79.5633 6.82153 80.1726 6.63222L80.1834 6.62681H80.1942C81.1809 6.54568 82.1352 6.40505 83.1435 6.25361C83.8768 6.14544 84.6317 6.03185 85.4081 5.94531H85.4189C85.4405 5.94531 85.4567 5.94531 85.4782 5.94531C87.8777 5.94531 89.6732 6.89184 90.3903 7.34076C90.4065 7.38403 90.4172 7.4273 90.4334 7.47057C90.4388 7.48139 90.4388 7.4868 90.4442 7.49762C90.4442 7.53548 90.4604 7.58416 90.4712 7.63284Z" fill="#4A4A4A"/>
<path d="M83.8715 8.5627C83.8715 8.5627 79.4447 8.20031 78.9756 10.7478C78.9756 10.7478 79.0025 12.3921 80.6579 13.7821C80.6579 13.7821 82.0436 14.6313 82.0328 13.0519C82.0328 13.0519 79.531 10.3638 83.1112 9.62281L83.8715 8.5627Z" fill="white"/>
<path d="M83.8822 8.46525L83.8768 8.54638V8.5626L83.8714 8.65996C83.8714 8.65996 83.8498 8.65996 83.8121 8.65455C83.7851 8.65455 83.7527 8.64914 83.715 8.64914C83.6665 8.64914 83.6072 8.64373 83.5371 8.64373C83.1219 8.63292 82.3832 8.64373 81.6229 8.79518C80.1995 9.07643 79.3583 9.68221 79.1157 10.6071C79.1049 10.6396 79.0995 10.6774 79.0887 10.7099C79.0833 10.7261 79.0833 10.7369 79.0779 10.7531C79.0779 10.764 79.0779 10.7856 79.0833 10.8126C79.1049 11.0452 79.2181 11.8295 79.8005 12.6895C79.822 12.7165 79.8382 12.7436 79.8598 12.776C79.8813 12.803 79.8975 12.8301 79.9191 12.8625C80.1294 13.1438 80.3882 13.4305 80.7171 13.7063C80.7764 13.7442 81.3156 14.0471 81.6445 13.8577C81.7362 13.8037 81.8063 13.7117 81.8548 13.5873C81.8656 13.5549 81.8763 13.5224 81.8871 13.4845C81.8979 13.4467 81.9033 13.4142 81.9087 13.371C81.9195 13.2898 81.9303 13.1979 81.9303 13.0951C81.8494 13.0086 81.6229 12.7381 81.4234 12.3758C81.4073 12.3487 81.3911 12.3163 81.3749 12.2892C81.3587 12.2622 81.3425 12.2297 81.3318 12.1973C81.3156 12.1702 81.3048 12.1378 81.2886 12.1107C81.1107 11.7159 81.0029 11.2561 81.1431 10.818C81.3426 10.1906 81.995 9.76334 83.0841 9.53617L83.1057 9.63353L83.1273 9.73089C82.1136 9.94183 81.5097 10.3258 81.3318 10.8775C81.2185 11.2291 81.294 11.6077 81.4342 11.9485C81.4612 12.0134 81.4935 12.0783 81.5205 12.1432C81.5367 12.1756 81.5528 12.2027 81.569 12.2297C81.5852 12.2622 81.6014 12.2892 81.6175 12.3163C81.844 12.7057 82.092 12.9815 82.0974 12.9869L82.1244 13.014V13.0518C82.1244 13.2195 82.1136 13.371 82.0812 13.5008C82.0759 13.5386 82.0651 13.5711 82.0543 13.6035C82.0435 13.636 82.0327 13.6684 82.0165 13.7009C81.9518 13.8469 81.8602 13.9497 81.7362 14.02C81.6283 14.0795 81.5043 14.1065 81.3803 14.1065C81.0029 14.1065 80.62 13.874 80.5985 13.8632L80.5877 13.8523C80.221 13.544 79.9353 13.2249 79.7088 12.9166C79.6872 12.8896 79.6657 12.8625 79.6495 12.8301C79.6279 12.803 79.6117 12.7706 79.5902 12.7435C79.0186 11.8836 78.9 11.1101 78.8784 10.8397C78.873 10.7856 78.873 10.7531 78.873 10.7423V10.7315V10.7207C78.8784 10.6936 78.8838 10.6666 78.8892 10.6396C79.0186 10.0662 79.3529 9.59567 79.8867 9.23329C80.1294 9.07102 80.4097 8.9304 80.7279 8.81681C80.9867 8.72486 81.2671 8.64914 81.569 8.58965C82.5881 8.38952 83.5748 8.43279 83.8121 8.44902C83.8606 8.45984 83.8768 8.46525 83.8822 8.46525Z" fill="#4A4A4A"/>
<path d="M80.9597 12.4688C80.9597 12.4688 81.9249 13.9886 83.2998 14.113C84.3512 14.1671 84.7556 14.2104 85.063 13.3558C85.063 13.3558 80.8249 11.5493 82.615 10.6406L80.9597 12.4688Z" fill="white"/>
<path d="M85.1871 13.3019L85.1547 13.3884C85.1439 13.4209 85.1332 13.4533 85.117 13.4858C84.8636 14.1132 84.5293 14.2376 83.9308 14.2376C83.8714 14.2376 83.8067 14.2376 83.742 14.2322C83.6719 14.2322 83.5965 14.2268 83.521 14.2214C83.467 14.2159 83.4131 14.2159 83.3592 14.2105L83.2891 14.2051C82.8038 14.1619 82.3725 13.9563 82.0112 13.7021C81.9843 13.6805 81.9573 13.6643 81.9303 13.6426C81.9034 13.621 81.8764 13.5994 81.8495 13.5777C81.3049 13.1504 80.9544 12.642 80.8843 12.5338C80.8789 12.523 80.8735 12.5176 80.8735 12.5122L80.9544 12.4581L81.0353 12.404C81.0353 12.404 81.0515 12.4311 81.0784 12.4689C81.1863 12.6204 81.4774 13.0098 81.898 13.3614C81.925 13.383 81.9573 13.41 81.9843 13.4317C82.0112 13.4533 82.0436 13.475 82.0705 13.4966C82.4156 13.7508 82.8362 13.9617 83.2945 13.9996L83.3592 14.005C84.3082 14.0537 84.6533 14.0753 84.9229 13.3992C84.8582 13.3722 84.7665 13.3289 84.6479 13.2748C84.6425 13.2748 84.6425 13.2694 84.6371 13.2694C84.3621 13.1396 83.9631 12.9395 83.5641 12.7069C83.1705 12.4743 82.8524 12.258 82.6151 12.047C82.5828 12.02 82.5558 11.993 82.5235 11.9659C82.4965 11.9389 82.4642 11.9118 82.4372 11.8848C82.2053 11.6468 82.0759 11.4305 82.0598 11.2303C82.0598 11.2195 82.0598 11.2087 82.0598 11.1979C82.049 10.9383 82.2161 10.7219 82.5558 10.5488L82.599 10.6354L82.6421 10.7219C82.3779 10.8571 82.2485 11.0086 82.2539 11.1871C82.2593 11.3872 82.421 11.6089 82.6637 11.8307C82.6906 11.8577 82.723 11.8848 82.7553 11.9118C82.7877 11.9389 82.82 11.9659 82.8524 11.993C83.3862 12.4148 84.1572 12.8259 84.7072 13.0909C84.8474 13.1558 84.9768 13.2153 85.0792 13.2586L85.1871 13.3019Z" fill="#4A4A4A"/>
<path d="M86.8856 13.8965C86.8856 13.9289 86.8803 13.9614 86.8695 13.9992C86.7778 14.3184 86.2278 14.5996 85.0847 14.9241C84.9284 14.962 84.7882 14.9782 84.6642 14.9782C83.9147 14.9782 83.602 14.4049 83.5211 14.221C83.5049 14.1886 83.4995 14.1669 83.4995 14.1669L83.6181 14.1291L83.6882 14.1074C83.6882 14.1128 83.6936 14.1182 83.699 14.1345C83.7098 14.1561 83.726 14.194 83.7475 14.2372C83.877 14.4752 84.2382 14.935 85.0416 14.7348C86.2278 14.3995 86.5999 14.1453 86.6754 13.9722C86.6861 13.9452 86.6915 13.9235 86.6915 13.9019L86.8856 13.8965Z" fill="#4A4A4A"/>
<path d="M90.4766 13.404C90.4604 13.4689 90.4442 13.5338 90.4281 13.5987C90.4119 13.6041 90.3903 13.6095 90.3687 13.6095C90.3472 13.6149 90.3256 13.6204 90.304 13.6258C90.2825 13.6312 90.2609 13.6366 90.2393 13.642C90.1854 13.6528 90.1261 13.669 90.0668 13.6798C89.6031 13.7772 88.9668 13.9178 88.6919 13.9557H88.6757C88.4654 13.9881 88.0987 14.0422 87.6243 14.0422C87.3978 14.0422 87.1498 14.0314 86.8802 13.9936C86.8155 13.9881 86.7454 13.9773 86.6807 13.9665C86.3356 13.9124 85.9635 13.8205 85.5699 13.6798L85.5645 13.6744L85.1278 13.4797L85.0361 13.4419L84.6695 13.2796H84.6641H84.6587L84.6964 13.1877L84.7342 13.0957L85.64 13.4959C87.0419 14.0044 88.2066 13.8259 88.6433 13.7556H88.6595C88.9237 13.7123 89.56 13.5771 90.0237 13.4797C90.0776 13.4689 90.1207 13.4581 90.1639 13.4473C90.2663 13.4256 90.3418 13.4094 90.4011 13.3986C90.4227 13.3932 90.4496 13.3986 90.4766 13.404Z" fill="#4A4A4A"/>
<path d="M85.1817 7.70898C85.1817 7.70898 83.1435 9.02871 82.6744 9.28292C82.2053 9.53713 80.0593 10.5432 79.4608 10.6513C78.8677 10.7595 76.7487 11.0732 76.6247 11.5925C76.5007 12.1117 76.2796 12.7932 77.4712 13.0636C78.1452 13.1772 79.0295 13.0041 79.601 12.8581C80.1726 12.7121 83.1435 11.533 85.0576 11.706L85.1817 7.70898Z" fill="white"/>
<path d="M85.1762 7.82289C85.1708 7.83371 85.16 7.83912 85.1492 7.84452C84.9282 7.99056 84.3027 8.39081 83.7366 8.74778C83.3052 9.01822 82.9008 9.26702 82.7175 9.36438C82.2699 9.60236 80.097 10.6246 79.4769 10.7436C79.4176 10.7544 79.3421 10.7652 79.2559 10.7815C79.2019 10.7923 79.1426 10.8031 79.0779 10.8139C79.0456 10.8193 79.0132 10.8247 78.9809 10.8301C78.9485 10.8356 78.9162 10.841 78.8838 10.8464C78.5279 10.9113 78.0966 10.9978 77.7138 11.106C76.8726 11.3386 76.7432 11.5387 76.7216 11.609L76.7055 11.6739C76.6354 11.9552 76.5545 12.2797 76.7109 12.5285C76.8349 12.7286 77.0883 12.8692 77.4927 12.9612C78.1775 13.0748 79.0887 12.88 79.574 12.7556C79.5794 12.7556 79.5902 12.7502 79.5955 12.7502C79.6225 12.7448 79.6603 12.734 79.698 12.7178C79.7303 12.707 79.7627 12.6962 79.8004 12.6853C79.8867 12.6583 79.9946 12.6204 80.1078 12.5826C80.3936 12.4852 80.7548 12.3662 81.1646 12.2418C81.2185 12.2256 81.2778 12.2094 81.3317 12.1931C81.3641 12.1823 81.3965 12.1715 81.4288 12.1661C81.4612 12.1553 81.4935 12.1445 81.5259 12.1391C81.8224 12.0525 82.1351 11.966 82.4587 11.8903C82.4964 11.8794 82.5341 11.874 82.5719 11.8632C82.6096 11.8524 82.6474 11.847 82.6851 11.8362C83.467 11.6631 84.2811 11.5441 84.9659 11.5928C85.0144 11.5982 85.0522 11.636 85.0522 11.6901C85.0522 11.6955 85.0522 11.6955 85.0522 11.7009V11.7064C85.0468 11.7604 85.0037 11.7983 84.9497 11.7929C84.3243 11.7496 83.591 11.847 82.8738 11.9984C82.8307 12.0092 82.793 12.0147 82.7498 12.0255C82.7121 12.0363 82.6689 12.0417 82.6312 12.0525C82.2861 12.1336 81.941 12.2256 81.6229 12.3175C81.5906 12.3284 81.5582 12.3392 81.5259 12.3446C81.4935 12.3554 81.4612 12.3662 81.4288 12.3716C81.3156 12.4041 81.2023 12.4419 81.0945 12.4744C81.0621 12.4852 81.0298 12.496 80.9975 12.5068C80.9651 12.5177 80.9327 12.5285 80.9004 12.5393C80.6254 12.6258 80.3828 12.707 80.1779 12.7773C80.0862 12.8097 79.9999 12.8368 79.9245 12.8584C79.8867 12.8692 79.8544 12.88 79.822 12.8909C79.7843 12.9017 79.7519 12.9125 79.7196 12.9233C79.6872 12.9341 79.6549 12.945 79.6279 12.9504C79.1588 13.0748 78.5387 13.1992 77.9672 13.1992C77.7893 13.1992 77.6221 13.1883 77.4603 13.1613H77.4549C76.9966 13.0585 76.7001 12.8855 76.5491 12.6367C76.3496 12.3175 76.4467 11.9335 76.5221 11.6306L76.5383 11.5711C76.6408 11.1438 77.703 10.8734 78.9054 10.6517C78.9431 10.6462 78.9755 10.6408 79.0132 10.63C79.051 10.6246 79.0833 10.6192 79.1211 10.6084C79.1588 10.603 79.2019 10.5922 79.2397 10.5867C79.326 10.5705 79.4014 10.5597 79.4607 10.5489C80.0269 10.4461 82.1298 9.46714 82.642 9.1913C82.8037 9.10476 83.1542 8.88841 83.5424 8.64502C83.591 8.61256 83.6449 8.58011 83.6934 8.54766C83.7419 8.51521 83.7905 8.48816 83.839 8.45571C84.3512 8.13119 84.8635 7.80125 85.0576 7.67685C85.1007 7.64981 85.1654 7.66063 85.1924 7.7039C85.2032 7.74717 85.2032 7.79044 85.1762 7.82289Z" fill="#4A4A4A"/>
<path d="M73.9073 10.6777L73.2603 11.316L73.821 11.9921H74.3009L74.6136 11.7973L74.7161 11.7378L74.7323 11.5756L74.8131 10.7805L73.9073 10.6777ZM74.6082 11.6459V11.6621V11.6838L74.3386 11.8514L74.3171 11.7865L74.22 11.462L74.6675 11.0726L74.6514 11.2348L74.6082 11.6459ZM74.6999 10.8887L74.4465 11.1104L74.0798 10.813L74.6999 10.8887ZM73.972 10.8779L74.0313 10.9265L74.3548 11.1862L74.1338 11.3809L74.0043 11.3701L73.9181 11.3646L73.972 10.8779ZM73.8588 10.8833L73.8048 11.3538L73.8426 11.3592L73.4166 11.3268L73.8588 10.8833ZM73.8749 11.8839L73.821 11.819L73.5999 11.5431L73.5191 11.4458L74.1068 11.489L74.2092 11.8244L74.2254 11.8785H73.8749V11.8839Z" fill="#4A4A4A"/>
<path d="M77.6384 12.7333C77.385 12.7333 77.2232 12.663 77.1208 12.5927C76.9752 12.4954 76.9105 12.3601 76.8997 12.279C76.8727 12.1113 76.9051 11.9815 76.9374 11.8896C76.986 11.749 77.0938 11.6408 77.2394 11.5975C77.4712 11.5272 77.8972 11.4353 77.9996 11.4136C78.2261 11.3649 78.5281 11.6516 78.5982 11.9815C78.6736 12.3277 78.4687 12.5873 78.059 12.6793C77.8918 12.7171 77.757 12.7333 77.6384 12.7333ZM78.0428 11.5326C78.032 11.5326 78.0266 11.5326 78.0158 11.5326C77.8648 11.5651 77.4712 11.6516 77.2663 11.7165C77.1639 11.749 77.083 11.8301 77.0453 11.9274C77.0183 12.014 76.9914 12.1168 77.0129 12.2628C77.0183 12.3115 77.0614 12.4142 77.1855 12.4954C77.3149 12.5819 77.5683 12.6684 78.0266 12.5657C78.4957 12.4575 78.5065 12.1763 78.4741 12.014C78.4148 11.749 78.1884 11.5326 78.0428 11.5326Z" fill="#4A4A4A"/>
<path d="M83.9739 13.9722C83.8607 13.9722 83.7529 13.9506 83.6612 13.8965C83.3431 13.7126 83.2406 13.4638 83.3862 13.215C83.5426 12.9392 83.8985 12.8472 84.1734 13.0041C84.3622 13.1122 84.5778 13.2961 84.6156 13.4854C84.6318 13.5612 84.6156 13.6369 84.5724 13.7018C84.4484 13.8749 84.2004 13.9722 83.9739 13.9722ZM83.8823 13.0636C83.7313 13.0636 83.5803 13.1447 83.4995 13.2853C83.37 13.5125 83.5534 13.6802 83.7259 13.7829C83.9362 13.9073 84.319 13.8262 84.4592 13.6261C84.4808 13.5936 84.4862 13.5612 84.4808 13.5179C84.4484 13.3827 84.2705 13.2204 84.1033 13.1231C84.0333 13.0852 83.9524 13.0636 83.8823 13.0636Z" fill="#4A4A4A"/>
<path d="M80.825 13.9273C80.8196 13.9273 80.8089 13.9273 80.8035 13.9273L80.8143 13.8029C80.9275 13.8191 81.2887 13.6839 81.4235 13.473C81.4828 13.3864 81.4882 13.2999 81.4397 13.2079L81.5529 13.1484C81.623 13.2782 81.6123 13.4135 81.5314 13.5433C81.375 13.7813 80.9922 13.9273 80.825 13.9273Z" fill="#4A4A4A"/>
<path d="M27.7307 41.1994C27.7792 41.3184 27.8277 41.4374 27.8762 41.5564C27.9248 41.432 27.9733 41.313 28.0218 41.194C28.0703 41.075 28.1297 40.9614 28.1836 40.8533L30.3619 36.7643C30.3889 36.7156 30.4158 36.6723 30.4482 36.6399C30.4751 36.6074 30.5075 36.5858 30.5452 36.575C30.583 36.5642 30.6207 36.5533 30.6639 36.5479C30.707 36.5425 30.7609 36.5425 30.8202 36.5425H31.8555V43.92H30.6477V39.1495C30.6477 39.063 30.6477 38.9656 30.6531 38.8575C30.6585 38.7547 30.6639 38.6465 30.6746 38.5383L28.4478 42.7247C28.3993 42.822 28.3292 42.8924 28.2483 42.9465C28.1674 43.0005 28.0703 43.0276 27.9625 43.0276H27.7738C27.666 43.0276 27.5689 43.0005 27.488 42.9465C27.4071 42.8924 27.3424 42.822 27.2885 42.7247L25.0347 38.5221C25.0509 38.6357 25.0563 38.7439 25.0617 38.852C25.067 38.9602 25.067 39.0576 25.067 39.1495V43.92H23.8593V36.5371H24.8945C24.9538 36.5371 25.0077 36.5371 25.0509 36.5425C25.094 36.5479 25.1371 36.5533 25.1695 36.5696C25.2018 36.5858 25.2396 36.6074 25.2665 36.6345C25.2989 36.6669 25.3259 36.7048 25.3528 36.7589L27.5527 40.8587C27.6282 40.9669 27.6821 41.0804 27.7307 41.1994Z" fill="white"/>
<path d="M37.4684 38.5977C37.7973 38.5977 38.0993 38.6517 38.3797 38.7545C38.6547 38.8627 38.8919 39.0141 39.0968 39.2143C39.2963 39.4144 39.4527 39.6632 39.5659 39.9607C39.6791 40.2527 39.733 40.5935 39.733 40.9721C39.733 41.0694 39.7276 41.1452 39.7223 41.2101C39.7115 41.275 39.7007 41.3237 39.6737 41.3561C39.6522 41.394 39.6198 41.4156 39.5821 41.4318C39.5443 41.4481 39.4958 41.4535 39.4419 41.4535H36.2121C36.2499 41.9889 36.3954 42.3838 36.6435 42.638C36.8969 42.8922 37.2258 43.0166 37.641 43.0166C37.8459 43.0166 38.0184 42.995 38.1694 42.9463C38.315 42.8976 38.4444 42.8435 38.5576 42.7894C38.6654 42.7299 38.7625 42.6812 38.8488 42.6326C38.9296 42.5839 39.0105 42.5623 39.0914 42.5623C39.1399 42.5623 39.1885 42.5731 39.2262 42.5947C39.2639 42.6163 39.2963 42.6434 39.3233 42.6812L39.6899 43.141C39.5497 43.3032 39.3933 43.4439 39.2208 43.552C39.0483 43.6602 38.8649 43.7522 38.6762 43.8171C38.4875 43.882 38.2934 43.9307 38.0993 43.9577C37.9052 43.9847 37.7165 44.001 37.5331 44.001C37.1719 44.001 36.8322 43.9415 36.5195 43.8171C36.2067 43.6981 35.9371 43.5196 35.7053 43.2816C35.4734 43.0436 35.2955 42.7516 35.1607 42.4054C35.0259 42.0592 34.9612 41.6536 34.9612 41.1938C34.9612 40.8369 35.0205 40.5015 35.1337 40.1824C35.247 39.8687 35.4141 39.5929 35.6298 39.3603C35.8455 39.1277 36.1097 38.9438 36.417 38.8086C36.7297 38.668 37.0802 38.5977 37.4684 38.5977ZM37.4954 39.5063C37.1287 39.5063 36.843 39.6091 36.6327 39.82C36.4278 40.0256 36.293 40.323 36.2337 40.7017H38.5953C38.5953 40.5394 38.5738 40.3825 38.5306 40.2419C38.4875 40.0959 38.4174 39.9715 38.3257 39.8633C38.2341 39.7551 38.1209 39.6686 37.9807 39.6037C37.8405 39.5334 37.6787 39.5063 37.4954 39.5063Z" fill="white"/>
<path d="M44.9472 38.5977C45.2761 38.5977 45.578 38.6517 45.8584 38.7545C46.1334 38.8627 46.3707 39.0141 46.5755 39.2143C46.7751 39.4144 46.9314 39.6632 47.0446 39.9607C47.1579 40.2527 47.2118 40.5935 47.2118 40.9721C47.2118 41.0694 47.2064 41.1452 47.201 41.2101C47.1902 41.275 47.1794 41.3237 47.1525 41.3561C47.1309 41.394 47.0986 41.4156 47.0608 41.4318C47.0231 41.4481 46.9746 41.4535 46.9206 41.4535H43.6909C43.7286 41.9889 43.8742 42.3838 44.1222 42.638C44.3756 42.8922 44.7046 43.0166 45.1197 43.0166C45.3246 43.0166 45.4972 42.995 45.6481 42.9463C45.7937 42.8976 45.9231 42.8435 46.0364 42.7894C46.1442 42.7299 46.2412 42.6812 46.3275 42.6326C46.4084 42.5839 46.4893 42.5623 46.5702 42.5623C46.6187 42.5623 46.6672 42.5731 46.705 42.5947C46.7427 42.6163 46.7751 42.6434 46.802 42.6812L47.1687 43.141C47.0285 43.3032 46.8721 43.4439 46.6996 43.552C46.527 43.6602 46.3437 43.7522 46.155 43.8171C45.9663 43.882 45.7722 43.9307 45.578 43.9577C45.3839 43.9847 45.1952 44.001 45.0119 44.001C44.6506 44.001 44.3109 43.9415 43.9982 43.8171C43.6855 43.6981 43.4159 43.5196 43.184 43.2816C42.9522 43.0436 42.7742 42.7516 42.6394 42.4054C42.5046 42.0592 42.4399 41.6536 42.4399 41.1938C42.4399 40.8369 42.4993 40.5015 42.6125 40.1824C42.7257 39.8687 42.8929 39.5929 43.1085 39.3603C43.3242 39.1277 43.5884 38.9438 43.8958 38.8086C44.2085 38.668 44.559 38.5977 44.9472 38.5977ZM44.9741 39.5063C44.6075 39.5063 44.3217 39.6091 44.1114 39.82C43.9065 40.0256 43.7717 40.323 43.7124 40.7017H46.0741C46.0741 40.5394 46.0525 40.3825 46.0094 40.2419C45.9663 40.0959 45.8962 39.9715 45.8045 39.8633C45.7128 39.7551 45.5996 39.6686 45.4594 39.6037C45.3246 39.5334 45.1575 39.5063 44.9741 39.5063Z" fill="white"/>
<path d="M51.9836 44.0017C51.5307 44.0017 51.1856 43.8719 50.9375 43.6177C50.6949 43.3581 50.5709 43.0065 50.5709 42.5522V39.6261H50.0425C49.9724 39.6261 49.9185 39.6045 49.8646 39.5612C49.816 39.5179 49.7891 39.453 49.7891 39.3611V38.858L50.6302 38.7228L50.8944 37.2949C50.9106 37.2246 50.9375 37.1759 50.9861 37.1381C51.0346 37.1002 51.0993 37.084 51.1694 37.084H51.8218V38.7336H53.1968V39.6315H51.8218V42.4711C51.8218 42.6333 51.865 42.7632 51.9458 42.8551C52.0267 42.947 52.1346 42.9903 52.2694 42.9903C52.3448 42.9903 52.4149 42.9795 52.4635 42.9633C52.512 42.947 52.5605 42.9254 52.6036 42.9038C52.6414 42.8821 52.6791 42.8659 52.7061 42.8443C52.7384 42.8281 52.7654 42.8172 52.7978 42.8172C52.8355 42.8172 52.8679 42.8281 52.8894 42.8443C52.911 42.8605 52.938 42.893 52.9649 42.9308L53.3423 43.542C53.159 43.6935 52.9487 43.8124 52.7115 43.8882C52.485 43.9639 52.237 44.0017 51.9836 44.0017Z" fill="white"/>
<path d="M62.9508 36.457C63.2473 36.457 63.5169 36.5057 63.7542 36.5977C63.9914 36.6896 64.1909 36.814 64.3581 36.9654C64.5252 37.1169 64.66 37.2954 64.7571 37.4901C64.8541 37.6902 64.908 37.8903 64.9296 38.1013L64.1316 38.269C64.1208 38.2744 64.11 38.2744 64.0992 38.2744C64.0885 38.2744 64.0777 38.2744 64.0669 38.2744C64.0076 38.2744 63.959 38.2581 63.9105 38.2257C63.862 38.1932 63.8296 38.1446 63.8027 38.0742C63.7703 37.9877 63.7326 37.9012 63.6841 37.82C63.6355 37.7389 63.5762 37.6686 63.5115 37.6091C63.4414 37.5496 63.3659 37.5009 63.2743 37.4685C63.1826 37.4306 63.0748 37.4144 62.9562 37.4144C62.816 37.4144 62.6866 37.4414 62.5733 37.4901C62.4601 37.5388 62.3684 37.6037 62.2875 37.6902C62.2121 37.7714 62.1528 37.8687 62.1096 37.9823C62.0665 38.0959 62.0503 38.2095 62.0503 38.3339C62.0503 38.4366 62.0611 38.534 62.0827 38.6313C62.1042 38.7287 62.142 38.8206 62.1851 38.918C62.2336 39.0154 62.2929 39.1127 62.3684 39.2101C62.4439 39.3128 62.541 39.421 62.6488 39.5346L64.6061 41.5737C64.7193 41.3573 64.8056 41.1302 64.8757 40.8922C64.9458 40.6542 64.9889 40.4108 65.0105 40.1674C65.0159 40.0917 65.0428 40.0268 65.086 39.9781C65.1291 39.9294 65.1938 39.9078 65.2693 39.9078H66.0565C66.0511 40.3567 65.9864 40.784 65.8624 41.1951C65.7384 41.6061 65.5551 41.9793 65.3232 42.3255L66.8653 43.9265H65.6359C65.5712 43.9265 65.5173 43.9211 65.4634 43.9157C65.4149 43.9103 65.3663 43.894 65.3232 43.8778C65.2801 43.8616 65.2369 43.8345 65.1938 43.8021C65.1507 43.7696 65.1129 43.7318 65.0644 43.6831L64.5576 43.1584C64.234 43.4235 63.8674 43.629 63.4684 43.7804C63.0694 43.9319 62.638 44.0076 62.1743 44.0076C61.8885 44.0076 61.6136 43.9589 61.3386 43.8616C61.069 43.7642 60.8263 43.6236 60.6107 43.4397C60.395 43.2558 60.2224 43.034 60.093 42.7744C59.9636 42.5148 59.8989 42.2227 59.8989 41.8928C59.8989 41.6656 59.9367 41.4493 60.0122 41.2438C60.0876 41.0382 60.1901 40.8489 60.3249 40.6704C60.4597 40.4919 60.6161 40.3351 60.794 40.1891C60.9773 40.0484 61.1768 39.924 61.3925 39.8213C61.2146 39.5671 61.0798 39.3182 60.9989 39.0749C60.918 38.8315 60.8749 38.5881 60.8749 38.3447C60.8749 38.0905 60.9234 37.8471 61.0151 37.6145C61.1067 37.3819 61.2415 37.1872 61.4248 37.0141C61.6028 36.8465 61.8185 36.7112 62.0773 36.6085C62.3307 36.5057 62.6219 36.457 62.9508 36.457ZM61.1768 41.79C61.1768 41.9793 61.2092 42.147 61.2739 42.293C61.3386 42.4445 61.4248 42.5689 61.5381 42.6717C61.6513 42.7744 61.7807 42.8556 61.9263 42.9096C62.0719 42.9637 62.2282 42.9962 62.3954 42.9962C62.6919 42.9962 62.9669 42.9475 63.215 42.8556C63.463 42.7636 63.6841 42.6338 63.889 42.4661L61.9533 40.4757C61.6837 40.6542 61.4842 40.8543 61.3601 41.0761C61.2415 41.2924 61.1768 41.5304 61.1768 41.79Z" fill="white"/>
<path d="M77.0074 42.9092C77.3147 42.9092 77.5843 42.8821 77.8162 42.8227C78.0426 42.7686 78.2637 42.6874 78.4686 42.5901V41.2487H77.5466C77.4603 41.2487 77.3902 41.2217 77.3363 41.173C77.2878 41.1243 77.2608 41.0648 77.2608 40.9891V40.2102H79.7087V43.1959C79.52 43.3311 79.3259 43.4501 79.1264 43.5528C78.9269 43.6556 78.7112 43.7367 78.4794 43.8016C78.2529 43.8665 78.0049 43.9152 77.7461 43.9477C77.4819 43.9801 77.2015 43.9963 76.8995 43.9963C76.3657 43.9963 75.8697 43.9044 75.4168 43.7151C74.9638 43.5258 74.5756 43.2662 74.2467 42.9362C73.9178 42.6009 73.659 42.2061 73.4757 41.7409C73.2924 41.2758 73.2007 40.7727 73.2007 40.2265C73.2007 39.6694 73.2923 39.1609 73.4703 38.7012C73.6482 38.2361 73.907 37.8412 74.2359 37.5059C74.5648 37.1705 74.9692 36.9109 75.4383 36.727C75.9074 36.5431 76.4412 36.4512 77.029 36.4512C77.6275 36.4512 78.1505 36.5431 78.5872 36.7216C79.0294 36.9001 79.4014 37.1327 79.7034 37.4193L79.3043 38.0413C79.2289 38.1657 79.121 38.2306 78.9916 38.2306C78.9107 38.2306 78.8245 38.2036 78.7436 38.1495C78.6357 38.0846 78.5225 38.0197 78.4093 37.9548C78.2961 37.8899 78.172 37.8358 78.0319 37.7871C77.8971 37.7384 77.7407 37.7006 77.5681 37.6681C77.3956 37.6357 77.2015 37.6195 76.975 37.6195C76.6138 37.6195 76.2849 37.679 75.9883 37.8034C75.6971 37.9278 75.4437 38.1008 75.2388 38.328C75.0339 38.5552 74.8722 38.831 74.759 39.1501C74.6457 39.4692 74.5918 39.8262 74.5918 40.2211C74.5918 40.6483 74.6511 41.027 74.7697 41.3569C74.8884 41.6868 75.0555 41.9681 75.2712 42.1952C75.4869 42.4224 75.7403 42.5955 76.0368 42.7199C76.3334 42.8497 76.6569 42.9092 77.0074 42.9092Z" fill="white"/>
<path d="M85.1115 38.5977C85.4404 38.5977 85.7423 38.6517 86.0227 38.7545C86.2977 38.8627 86.535 39.0141 86.7399 39.2143C86.9394 39.4144 87.0957 39.6632 87.209 39.9607C87.3222 40.2527 87.3761 40.5935 87.3761 40.9721C87.3761 41.0694 87.3707 41.1452 87.3653 41.2101C87.3545 41.275 87.3438 41.3237 87.3168 41.3561C87.2952 41.394 87.2629 41.4156 87.2251 41.4318C87.1874 41.4481 87.1389 41.4535 87.0849 41.4535H83.8552C83.8929 41.9889 84.0385 42.3838 84.2865 42.638C84.54 42.8922 84.8689 43.0166 85.284 43.0166C85.4889 43.0166 85.6615 42.995 85.8124 42.9463C85.958 42.8976 86.0874 42.8435 86.2007 42.7894C86.3085 42.7299 86.4056 42.6812 86.4918 42.6326C86.5727 42.5839 86.6536 42.5623 86.7345 42.5623C86.783 42.5623 86.8315 42.5731 86.8693 42.5947C86.907 42.6163 86.9394 42.6434 86.9663 42.6812L87.333 43.141C87.1928 43.3032 87.0364 43.4439 86.8639 43.552C86.6913 43.6602 86.508 43.7522 86.3193 43.8171C86.1306 43.882 85.9365 43.9307 85.7424 43.9577C85.5482 43.9847 85.3595 44.001 85.1762 44.001C84.8149 44.001 84.4752 43.9415 84.1625 43.8171C83.8498 43.6981 83.5802 43.5196 83.3483 43.2816C83.1165 43.0436 82.9386 42.7516 82.8038 42.4054C82.669 42.0592 82.6042 41.6536 82.6042 41.1938C82.6042 40.8369 82.6636 40.5015 82.7768 40.1824C82.89 39.8687 83.0572 39.5929 83.2728 39.3603C83.4885 39.1277 83.7527 38.9438 84.0601 38.8086C84.3674 38.668 84.7179 38.5977 85.1115 38.5977ZM85.1331 39.5063C84.7664 39.5063 84.4806 39.6091 84.2704 39.82C84.0655 40.0256 83.9307 40.323 83.8714 40.7017H86.233C86.233 40.5394 86.2114 40.3825 86.1683 40.2419C86.1252 40.0959 86.0551 39.9715 85.9634 39.8633C85.8718 39.7551 85.7585 39.6686 85.6183 39.6037C85.4835 39.5334 85.3218 39.5063 85.1331 39.5063Z" fill="white"/>
<path d="M92.1481 44.0017C91.6952 44.0017 91.3501 43.8719 91.1021 43.6177C90.8595 43.3581 90.7354 43.0065 90.7354 42.5522V39.6261H90.207C90.1369 39.6261 90.083 39.6045 90.0291 39.5612C89.9806 39.5179 89.9536 39.453 89.9536 39.3611V38.858L90.7948 38.7228L91.059 37.2949C91.0751 37.2246 91.1021 37.1759 91.1506 37.1381C91.1991 37.1002 91.2639 37.084 91.3339 37.084H91.9864V38.7336H93.3613V39.6315H91.9864V42.4711C91.9864 42.6333 92.0295 42.7632 92.1104 42.8551C92.1913 42.947 92.2991 42.9903 92.4339 42.9903C92.5094 42.9903 92.5795 42.9795 92.628 42.9633C92.6819 42.947 92.7251 42.9254 92.7682 42.9038C92.8059 42.8821 92.8437 42.8659 92.8706 42.8443C92.903 42.8281 92.93 42.8172 92.9623 42.8172C93.0001 42.8172 93.0324 42.8281 93.054 42.8443C93.0755 42.8605 93.1025 42.893 93.1295 42.9308L93.5069 43.542C93.3236 43.6935 93.1133 43.8124 92.876 43.8882C92.6442 43.9639 92.4015 44.0017 92.1481 44.0017Z" fill="white"/>
<path d="M104.334 41.1994C104.382 41.3184 104.431 41.4374 104.479 41.5564C104.528 41.432 104.576 41.313 104.625 41.194C104.673 41.075 104.733 40.9614 104.787 40.8533L106.965 36.7643C106.992 36.7156 107.019 36.6723 107.051 36.6399C107.078 36.6074 107.111 36.5858 107.148 36.575C107.186 36.5642 107.224 36.5533 107.267 36.5479C107.31 36.5425 107.364 36.5425 107.423 36.5425H108.459V43.92H107.251V39.1495C107.251 39.063 107.251 38.9656 107.256 38.8575C107.262 38.7547 107.267 38.6465 107.278 38.5383L105.051 42.7247C105.002 42.822 104.932 42.8924 104.851 42.9465C104.771 43.0005 104.673 43.0276 104.566 43.0276H104.377C104.269 43.0276 104.172 43.0005 104.091 42.9465C104.01 42.8924 103.946 42.822 103.892 42.7247L101.638 38.5221C101.654 38.6357 101.659 38.7439 101.665 38.852C101.67 38.9602 101.67 39.0576 101.67 39.1495V43.92H100.462V36.5371H101.498C101.557 36.5371 101.611 36.5371 101.654 36.5425C101.697 36.5479 101.74 36.5533 101.773 36.5696C101.81 36.5858 101.843 36.6074 101.87 36.6345C101.902 36.6669 101.929 36.7048 101.956 36.7589L104.156 40.8587C104.231 40.9669 104.285 41.0804 104.334 41.1994Z" fill="white"/>
<path d="M116.007 43.9209H115.441C115.323 43.9209 115.231 43.9047 115.161 43.8668C115.091 43.8289 115.042 43.7586 115.01 43.6505L114.897 43.2773C114.762 43.3963 114.632 43.499 114.508 43.591C114.379 43.6829 114.25 43.7586 114.115 43.8181C113.98 43.8776 113.834 43.9263 113.683 43.9588C113.532 43.9912 113.36 44.002 113.177 44.002C112.955 44.002 112.751 43.9696 112.567 43.9101C112.379 43.8506 112.222 43.7586 112.087 43.6396C111.953 43.5207 111.85 43.3692 111.775 43.1961C111.699 43.0176 111.661 42.8121 111.661 42.5741C111.661 42.374 111.715 42.1793 111.818 41.99C111.92 41.7953 112.093 41.6222 112.335 41.4653C112.578 41.3085 112.896 41.1787 113.295 41.0759C113.694 40.9731 114.19 40.9245 114.789 40.9245V40.6216C114.789 40.27 114.713 40.005 114.568 39.8373C114.422 39.6696 114.206 39.5831 113.926 39.5831C113.721 39.5831 113.554 39.6047 113.419 39.6534C113.284 39.7021 113.166 39.7562 113.063 39.8157C112.961 39.8752 112.869 39.9293 112.783 39.9779C112.697 40.0266 112.605 40.0482 112.503 40.0482C112.416 40.0482 112.346 40.0266 112.281 39.9833C112.222 39.9401 112.174 39.886 112.136 39.8211L111.909 39.4154C112.508 38.8637 113.236 38.5879 114.082 38.5879C114.39 38.5879 114.659 38.6366 114.902 38.7393C115.139 38.8421 115.344 38.9773 115.511 39.1558C115.678 39.3343 115.802 39.5506 115.889 39.794C115.975 40.0428 116.018 40.3133 116.018 40.6108V43.9209H116.007ZM113.565 43.1366C113.694 43.1366 113.813 43.1258 113.921 43.0988C114.028 43.0771 114.131 43.0393 114.228 42.996C114.325 42.9473 114.417 42.8932 114.508 42.8229C114.6 42.7526 114.692 42.6715 114.783 42.5795V41.7033C114.417 41.7033 114.109 41.725 113.867 41.7736C113.619 41.8223 113.425 41.8764 113.274 41.9521C113.123 42.0224 113.02 42.109 112.955 42.2063C112.891 42.3037 112.864 42.4065 112.864 42.52C112.864 42.7418 112.928 42.9041 113.058 42.996C113.182 43.088 113.354 43.1366 113.565 43.1366Z" fill="white"/>
<path d="M119.28 43.92V38.6789H120.019C120.148 38.6789 120.24 38.7006 120.289 38.7493C120.337 38.7979 120.375 38.8791 120.391 38.9926L120.466 39.6255C120.655 39.3009 120.871 39.0467 121.124 38.8574C121.378 38.6681 121.658 38.5762 121.971 38.5762C122.23 38.5762 122.44 38.6357 122.612 38.7547L122.451 39.7012C122.44 39.7607 122.418 39.804 122.386 39.831C122.354 39.858 122.305 39.8689 122.246 39.8689C122.197 39.8689 122.127 39.858 122.036 39.831C121.949 39.8094 121.831 39.7931 121.685 39.7931C121.421 39.7931 121.2 39.8634 121.011 40.0095C120.822 40.1555 120.666 40.3665 120.537 40.6477V43.9092H119.28V43.92Z" fill="white"/>
<path d="M125.476 43.92V38.6789H126.214C126.344 38.6789 126.435 38.7006 126.484 38.7493C126.532 38.7979 126.57 38.8791 126.586 38.9926L126.662 39.6255C126.851 39.3009 127.066 39.0467 127.32 38.8574C127.573 38.6681 127.853 38.5762 128.166 38.5762C128.425 38.5762 128.635 38.6357 128.808 38.7547L128.646 39.7012C128.635 39.7607 128.614 39.804 128.581 39.831C128.549 39.858 128.5 39.8689 128.441 39.8689C128.393 39.8689 128.323 39.858 128.231 39.831C128.145 39.8094 128.026 39.7931 127.88 39.7931C127.616 39.7931 127.395 39.8634 127.206 40.0095C127.018 40.1555 126.861 40.3665 126.732 40.6477V43.9092H125.476V43.92Z" fill="white"/>
<path d="M133.202 37.1551C133.202 37.2632 133.18 37.366 133.137 37.4634C133.094 37.5607 133.035 37.6418 132.959 37.7122C132.884 37.7825 132.803 37.842 132.701 37.8852C132.604 37.9285 132.496 37.9501 132.382 37.9501C132.275 37.9501 132.172 37.9285 132.075 37.8852C131.978 37.842 131.892 37.7879 131.822 37.7122C131.752 37.6418 131.692 37.5553 131.649 37.4634C131.606 37.3714 131.584 37.2686 131.584 37.1551C131.584 37.0415 131.606 36.9387 131.649 36.8359C131.692 36.7386 131.746 36.652 131.822 36.5817C131.892 36.5114 131.978 36.4519 132.075 36.4087C132.172 36.3654 132.275 36.3438 132.382 36.3438C132.496 36.3438 132.598 36.3654 132.701 36.4087C132.798 36.4519 132.884 36.506 132.959 36.5817C133.035 36.652 133.089 36.7386 133.137 36.8359C133.175 36.9387 133.202 37.0415 133.202 37.1551ZM133.013 38.6857V43.9268H131.757V38.6857H133.013Z" fill="white"/>
<path d="M138.626 38.5977C138.955 38.5977 139.257 38.6517 139.538 38.7545C139.813 38.8627 140.05 39.0141 140.255 39.2143C140.454 39.4144 140.611 39.6632 140.724 39.9607C140.837 40.2527 140.891 40.5935 140.891 40.9721C140.891 41.0694 140.886 41.1452 140.88 41.2101C140.869 41.275 140.859 41.3237 140.832 41.3561C140.81 41.394 140.778 41.4156 140.74 41.4318C140.702 41.4481 140.654 41.4535 140.6 41.4535H137.37C137.408 41.9889 137.553 42.3838 137.801 42.638C138.055 42.8922 138.384 43.0166 138.799 43.0166C139.004 43.0166 139.176 42.995 139.327 42.9463C139.473 42.8976 139.602 42.8435 139.716 42.7894C139.823 42.7299 139.92 42.6812 140.007 42.6326C140.088 42.5839 140.168 42.5623 140.249 42.5623C140.298 42.5623 140.346 42.5731 140.384 42.5947C140.422 42.6163 140.454 42.6434 140.481 42.6812L140.848 43.141C140.708 43.3032 140.551 43.4439 140.379 43.552C140.206 43.6602 140.023 43.7522 139.834 43.8171C139.645 43.882 139.451 43.9307 139.257 43.9577C139.063 43.9847 138.874 44.001 138.691 44.001C138.33 44.001 137.99 43.9415 137.677 43.8171C137.365 43.6927 137.095 43.5196 136.863 43.2816C136.631 43.0436 136.453 42.7516 136.319 42.4054C136.184 42.0592 136.119 41.6536 136.119 41.1938C136.119 40.8369 136.178 40.5015 136.292 40.1824C136.405 39.8687 136.572 39.5929 136.788 39.3603C137.003 39.1277 137.268 38.9438 137.575 38.8086C137.888 38.668 138.238 38.5977 138.626 38.5977ZM138.653 39.5063C138.287 39.5063 138.001 39.6091 137.791 39.82C137.586 40.0256 137.451 40.323 137.392 40.7017H139.753C139.753 40.5394 139.732 40.3825 139.689 40.2419C139.645 40.0959 139.575 39.9715 139.484 39.8633C139.392 39.7551 139.279 39.6686 139.139 39.6037C139.004 39.5334 138.837 39.5063 138.653 39.5063Z" fill="white"/>
<path d="M147.62 43.9205C147.458 43.9205 147.35 43.8448 147.302 43.6933L147.2 43.1849C147.092 43.3093 146.978 43.4175 146.86 43.5148C146.741 43.6122 146.612 43.6987 146.477 43.769C146.342 43.8393 146.191 43.8934 146.035 43.9367C145.878 43.9746 145.706 43.9962 145.523 43.9962C145.237 43.9962 144.978 43.9367 144.741 43.8177C144.504 43.6987 144.299 43.5256 144.126 43.2985C143.954 43.0713 143.824 42.7901 143.727 42.4601C143.635 42.1248 143.587 41.7462 143.587 41.3189C143.587 40.9295 143.641 40.5725 143.743 40.2371C143.851 39.9018 144.002 39.6151 144.196 39.3663C144.39 39.1229 144.628 38.9282 144.903 38.793C145.178 38.6524 145.485 38.5875 145.83 38.5875C146.121 38.5875 146.369 38.6361 146.579 38.7281C146.784 38.82 146.973 38.9444 147.135 39.1013V36.332H148.391V43.9205H147.62ZM145.949 42.9956C146.207 42.9956 146.434 42.9415 146.617 42.8333C146.801 42.7252 146.973 42.5683 147.135 42.3682V40.0208C146.995 39.8477 146.838 39.7233 146.671 39.653C146.504 39.5827 146.321 39.5448 146.127 39.5448C145.938 39.5448 145.765 39.5827 145.609 39.653C145.453 39.7233 145.323 39.8315 145.215 39.9775C145.107 40.1236 145.027 40.3074 144.967 40.5292C144.908 40.751 144.881 41.016 144.881 41.3189C144.881 41.6272 144.908 41.8868 144.956 42.0977C145.005 42.3087 145.075 42.4818 145.167 42.617C145.258 42.7522 145.372 42.8496 145.501 42.909C145.636 42.9685 145.787 42.9956 145.949 42.9956Z" fill="white"/>
<path d="M19.1952 41.8859L1.56897 40.6473L19.1952 39.4141V41.8859Z" fill="#EE2D42"/>
<path d="M154.436 39.4141L172.056 40.6473L154.436 41.8859V39.4141Z" fill="#EE2D42"/>
</g>
<defs>
<clipPath id="clip0_654_873">
<rect width="173" height="44" fill="white"/>
</clipPath>
</defs>
</svg>
