<svg xmlns="http://www.w3.org/2000/svg" enable-background="new 0 0 512 512" viewBox="0 0 512 512" id="phone"><linearGradient id="a" x1="256" x2="256" y1="-3.124" y2="551.364" gradientUnits="userSpaceOnUse"><stop offset="0" stop-color="#09a7ae"></stop><stop offset=".5" stop-color="#2665ad"></stop><stop offset="1" stop-color="#a14392"></stop></linearGradient><path fill="url(#a)" d="M450,388.2c-3.7-2.4-7.4-4.7-11.2-6.8c-14.9-8.3-29.9-16.6-44.9-24.8c-8-4.3-15.8-9-24.2-12.5
	c-15.4-6.6-26.4-3-35.8,10.6c-4.7,6.7-9.4,13.4-14.1,20.1c-3.4,5-8.2,7.6-14,8.2c-8.2,0.8-16.5,0-23.4-4.1
	c-10.9-6.5-21.7-13.4-31.3-21.6c-47-40.4-81.9-89.3-102.1-148.3c-3.6-10.4-3.9-20.8-1.3-31.3c1.9-7.8,6.4-13.5,14.6-15.9
	c8.4-2.5,16.7-5.4,25-8.4c11.8-4.3,17.7-12.8,17.5-25.3c-0.1-4.1-0.3-8.2-1.1-12.2c-5.6-26.2-11.3-52.4-17.2-78.5
	c-3-13.1-8.5-24.7-22.3-29.9c-3.3-0.5-6.6-1-9.9-1.4c-9.2,1.2-18.7,1.4-27.7,3.7C85.4,20.6,58,45.9,46.7,87.6
	c-0.3,1.3-0.9,2.5-1.4,3.8c-0.8,5.7-1.7,11.4-2.5,17.1c0.2,8.4,0,16.9,0.6,25.3c2.2,28.9,10.7,56.1,22.1,82.6
	c20.4,47.6,48.5,90.5,79.6,131.6c25.4,33.6,52.7,65.4,84.3,93.4c26.3,23.4,54.6,43.7,88.1,55.8c6.7,2.4,13.5,4.3,20.3,6.4
	c5.7,0.8,11.4,1.7,17.1,2.5c7.4-0.3,14.8,0,22.1-1c36.4-5.2,63.1-24.6,80.7-56.6c4-7.2,6.7-15.1,10-22.6c0.5-3.3,1-6.6,1.4-9.9
	C468.1,403,460.1,394.9,450,388.2z"></path></svg>