<svg xmlns="http://www.w3.org/2000/svg" data-name="Layer 1" viewBox="0 0 512 512" id="advisor"><path d="M328,490.754V410.045A60.168,60.168,0,0,0,268.084,350H235V322.89a36.554,36.554,0,0,0,4.715-4.608A99.029,99.029,0,0,0,268,248.824V155.477c8-4.76,13.742-11.642,18.384-20.363,5.827-10.947,9.119-24.635,9.119-38.538a6.935,6.935,0,0,0-8.024-6.915L222.643,99.854a80.462,80.462,0,0,1-33.708-1.821L159.241,90.01a33.159,33.159,0,0,0-29.02,5.726,34.068,34.068,0,0,0-7.095,7.272A97.2,97.2,0,0,0,74,187.331v61.493a99.146,99.146,0,0,0,28.405,69.458c1.48,1.52,3.595,2.979,4.595,4.389V350H74.428C41.447,350,15,377.064,15,410.045v80.709c0,3.867,2.75,7.246,6.616,7.246H320.9A7.3,7.3,0,0,0,328,490.754Zm-189.329-383.9a19.353,19.353,0,0,1,11.779-4.009,19.687,19.687,0,0,1,5.127.683l29.7,8.023a94.44,94.44,0,0,0,39.542,2.136l56.371-8.862c-2.452,25.15-16.013,38.5-27.96,42.488-7.276,1.1-84.113,12.606-119.252,12.606A2.977,2.977,0,0,1,131,157V122.26A19.325,19.325,0,0,1,138.671,106.852ZM117,124.353V157a16.909,16.909,0,0,0,14.434,16.72C117.662,184.411,103,189.3,88,188.3v-.967A83.669,83.669,0,0,1,117,124.353ZM88,248.824V202.315c1,.066,2.6.111,3.837.111,26.6,0,47.211-15,60.885-29.221C190.44,170.77,244,162.835,254,161.305v87.519a85.021,85.021,0,0,1-24.232,59.692c-15.789,16.215-36.545,25.146-58.595,25.146a81.571,81.571,0,0,1-58.727-25.146A85.23,85.23,0,0,1,88,248.824Zm83.12,98.838A94.293,94.293,0,0,0,221,333.425v20.48a79.682,79.682,0,0,1-100,.034V333.272A94.151,94.151,0,0,0,171.12,347.662ZM314,484H29V410.045C29,384.784,49.167,364,74.428,364h37.123a92.453,92.453,0,0,0,119.141,0h37.392A46.152,46.152,0,0,1,314,410.045Z"></path><path d="M136.66 260.756A25.263 25.263 0 0 0 161.9 235.521a7 7 0 0 0-14 0 11.235 11.235 0 0 1-22.47 0 7 7 0 0 0-14 0A25.264 25.264 0 0 0 136.66 260.756zM205.852 260.756a25.264 25.264 0 0 0 25.235-25.235 7 7 0 1 0-14 0 11.235 11.235 0 0 1-22.47 0 7 7 0 0 0-14 0A25.263 25.263 0 0 0 205.852 260.756zM490.384 14H312.858A7.094 7.094 0 0 0 306 21.246v131.98A6.69 6.69 0 0 0 312.858 160H339v31.554a7.071 7.071 0 0 0 7.079 7 7.165 7.165 0 0 0 4.107-1.434L401.551 160h88.833A6.492 6.492 0 0 0 497 153.226V21.246C497 17.379 494.25 14 490.384 14zM483 146H399.292a7.279 7.279 0 0 0-4.146 1.434L353 177.881V153.226A7.106 7.106 0 0 0 346.107 146H320V28H483z"></path><path d="M343.742 64h67.526a7 7 0 0 0 0-14H343.742a7 7 0 0 0 0 14zM343.742 94H461.268a7 7 0 1 0 0-14H343.742a7 7 0 0 0 0 14zM343.742 124H461.268a7 7 0 1 0 0-14H343.742a7 7 0 0 0 0 14z"></path></svg>