<svg xmlns="http://www.w3.org/2000/svg" enable-background="new 0 0 44 44" viewBox="0 0 44 44" id="love"><path d="M29 22H15a1 1 0 0 1 0-2h14a1 1 0 0 1 0 2zM25 25h-6a1 1 0 0 1 0-2h6a1 1 0 0 1 0 2zM22 18c-.476 0-.936-.197-1.263-.541l-5.405-5.668a4.555 4.555 0 0 1 .369-6.771 4.636 4.636 0 0 1 5.479-.239c.304.205.578.441.82.704.242-.263.516-.499.82-.704a4.64 4.64 0 0 1 5.479.239 4.585 4.585 0 0 1 1.695 3.325 4.574 4.574 0 0 1-1.345 3.466l-5.388 5.649c-.326.343-.786.54-1.261.54zm.185-1.921c.001.001 0 .001 0 0zM18.607 6.004c-.591 0-1.181.191-1.646.569a2.553 2.553 0 0 0-.958 1.872 2.564 2.564 0 0 0 .756 1.946L22 15.885l5.221-5.474a2.58 2.58 0 0 0 .775-1.966 2.553 2.553 0 0 0-.958-1.872c-.867-.705-2.172-.762-3.1-.135a2.574 2.574 0 0 0-.996 1.285 1 1 0 0 1-1.886 0 2.577 2.577 0 0 0-.996-1.285 2.592 2.592 0 0 0-1.453-.434zM35 39c-1.654 0-3-1.346-3-3s1.346-3 3-3 3 1.346 3 3-1.346 3-3 3zm0-4c-.551 0-1 .449-1 1s.449 1 1 1 1-.449 1-1-.449-1-1-1zM30 36h-5a1 1 0 0 1 0-2h5a1 1 0 0 1 0 2zM30 39h-7a1 1 0 0 1 0-2h7a1 1 0 0 1 0 2z"></path><path d="M43.68 15.493c-.373-1.029-1.095-1.915-2.071-2.529L36 9.732V3c0-1.654-1.346-3-3-3H11C9.346 0 8 1.346 8 3v6.622l-5.639 3.359A5.007 5.007 0 0 0 .309 15.52 4.72 4.72 0 0 0 0 17.23V41c0 1.078.559 2.047 1.495 2.593A2.98 2.98 0 0 0 3 44h38c.53 0 1.051-.141 1.504-.406A2.977 2.977 0 0 0 44 41V17.23c0-.616-.107-1.2-.32-1.737zm-3.103-.817c.378.238.685.559.92.922L36 20.144V12.04l4.577 2.636zM10 3c0-.551.449-1 1-1h22c.551 0 1 .449 1 1v18.798l-5.178 4.282a.923.923 0 0 0-.155.164l-4.762 3.895a3.003 3.003 0 0 1-3.808 0L10 21.79V3zM3.402 14.689 8 11.95v8.188L2.493 15.59a2.96 2.96 0 0 1 .909-.901zM42 41a.997.997 0 0 1-.505.867A.992.992 0 0 1 41 42H3a.99.99 0 0 1-.496-.134A.996.996 0 0 1 2 41V17.776l16.825 13.906a5.005 5.005 0 0 0 6.349.002l4.938-4.038a.987.987 0 0 0 .164-.172L42 17.776V41z"></path></svg>