<svg xmlns="http://www.w3.org/2000/svg" viewBox="0 0 64 64" id="love"><g data-name="Outline"><path d="M56.623 27.929a2.663 2.663 0 0 0-5.223.731v9.331l-1.158 1.136-.793-.782a3.287 3.287 0 0 0-4.569 0l-5.037 4.937A3.353 3.353 0 0 0 39 44.7L36.3 54h-.9a1 1 0 0 0-1 1v6a1 1 0 0 0 1 1H49a1 1 0 0 0 1-1v-6a1 1 0 0 0-1-1h-.13v-2.63l9.93-9.736.007-.007a3.29 3.29 0 0 0 .843-3.235zM48 60H36.4v-4H48zm9.4-19.791L47.17 50.236a1 1 0 0 0-.3.714V54h-8.489l2.537-8.735a1.341 1.341 0 0 1 .332-.56l5.029-4.93a1.273 1.273 0 0 1 1.769 0l.755.745-3.344 3.34a1 1 0 0 0 1.415 1.414l3.959-3.96a.949.949 0 0 0 .108-.07l2.16-2.12a1 1 0 0 0 .3-.714v-9.75a.669.669 0 0 1 .66-.66.654.654 0 0 1 .64.478l3.029 10.468a1.291 1.291 0 0 1-.33 1.263zM9.94 26a2.665 2.665 0 0 0-2.561 1.922l-3.03 10.472a3.294 3.294 0 0 0 .851 3.24l9.93 9.736V54H15a1 1 0 0 0-1 1v6a1 1 0 0 0 1 1h13.6a1 1 0 0 0 1-1v-6a1 1 0 0 0-1-1h-.9L25 44.7a3.367 3.367 0 0 0-.849-1.419L19.12 38.35a3.288 3.288 0 0 0-4.571 0l-.79.779-1.159-1.138V28.66A2.663 2.663 0 0 0 9.94 26zm3.119 15.244a.949.949 0 0 0 .108.07l3.959 3.96a1 1 0 0 0 1.415-1.414L15.2 40.517l.752-.742a1.275 1.275 0 0 1 1.771 0l5.02 4.925a1.351 1.351 0 0 1 .337.562L25.618 54h-.057a1 1 0 0 0 0 2H27.6v4H16v-4h2a1 1 0 0 0 0-2h-.87v-3.05a1 1 0 0 0-.3-.714L6.607 40.213a1.288 1.288 0 0 1-.336-1.265L9.3 28.472A.651.651 0 0 1 9.94 28a.669.669 0 0 1 .66.66v9.75a1 1 0 0 0 .3.714zM44.435 2.792c-4.027-1.08-8.452.287-12.26 3.752a14.478 14.478 0 0 0-8.907-4.1 10.3 10.3 0 0 0-7.927 2.978c-3.792 3.791-4.847 10.9 1.8 17.539l14.331 14.33a1 1 0 0 0 1.414 0l14.33-14.33C51.172 19 52.787 14.277 51.64 10a10.085 10.085 0 0 0-7.205-7.208zM45.8 21.55 32.174 35.173 18.55 21.55a12.949 12.949 0 0 1-4.189-8.305 8.232 8.232 0 0 1 8.333-8.813c2.692 0 5.769 1.2 8.773 4.2a1.029 1.029 0 0 0 1.414 0c3.442-3.442 7.466-4.864 11.036-3.911a8.108 8.108 0 0 1 5.791 5.791c.957 3.573-.469 7.596-3.908 11.038z"></path><path d="M41.67 7.667a1 1 0 0 0 0 2 3 3 0 0 1 2.85 1.822c.722 1.741-.185 4.118-2.425 6.358a1 1 0 1 0 1.414 1.414c2.832-2.831 3.9-6.023 2.859-8.537a4.966 4.966 0 0 0-4.698-3.057Z"></path><circle cx="39.801" cy="21.306" r="1"></circle><circle cx="22" cy="55" r="1"></circle></g></svg>