<svg width="41" height="40" viewBox="0 0 41 40" fill="none" xmlns="http://www.w3.org/2000/svg">
<circle cx="20.332" cy="20" r="20" fill="#FEEAEC"/>
<path d="M26.0854 24.2916L26.4321 27.1005C26.521 27.8383 25.7298 28.3538 25.0987 27.9716L21.3743 25.7582C20.9654 25.7582 20.5654 25.7316 20.1743 25.6783C20.8321 24.9049 21.2232 23.9271 21.2232 22.8694C21.2232 20.3449 19.0365 18.3005 16.3343 18.3005C15.3032 18.3005 14.3521 18.5938 13.561 19.1094C13.5343 18.8872 13.5254 18.6649 13.5254 18.4338C13.5254 14.3894 17.0365 11.1094 21.3743 11.1094C25.7121 11.1094 29.2232 14.3894 29.2232 18.4338C29.2232 20.8338 27.9876 22.9583 26.0854 24.2916Z" stroke="#F42A41" stroke-width="1.5" stroke-linecap="round" stroke-linejoin="round"/>
<path d="M21.2226 22.8696C21.2226 23.9274 20.8315 24.9052 20.1737 25.6785C19.2937 26.7452 17.8982 27.4296 16.3337 27.4296L14.0137 28.8074C13.6226 29.0474 13.1248 28.7185 13.1782 28.2652L13.4004 26.5141C12.2093 25.6874 11.4448 24.363 11.4448 22.8696C11.4448 21.3052 12.2804 19.9274 13.5604 19.1096C14.3515 18.5941 15.3026 18.3008 16.3337 18.3008C19.0359 18.3008 21.2226 20.3452 21.2226 22.8696Z" stroke="#F42A41" stroke-width="1.5" stroke-linecap="round" stroke-linejoin="round"/>
</svg>
