<svg xmlns="http://www.w3.org/2000/svg" viewBox="0 0 32 32" id="email"><g data-name="1"><path fill="#eee5ff" d="M16 18 3 12.15V21a4 4 0 0 0 4 4h18a4 4 0 0 0 4-4v-8.85Z"></path><path fill="#d1c3fc" d="M29 12.15v-.59a4 4 0 0 0-2.32-3.63L16 3 5.32 7.93A4 4 0 0 0 3 11.56v.59L16 18Z"></path><path fill="#2b3145" d="M25 26H7a5 5 0 0 1-5-5v-9.44A5 5 0 0 1 4.9 7l10.68-4.91a1 1 0 0 1 .84 0L27.1 7a5 5 0 0 1 2.9 4.56V21a5 5 0 0 1-5 5ZM16 4.1 5.74 8.84A3 3 0 0 0 4 11.56V21a3 3 0 0 0 3 3h18a3 3 0 0 0 3-3v-9.44a3 3 0 0 0-1.74-2.72Z"></path><path fill="#8b50ff" d="M16 19a1 1 0 0 1-.41-.09l-9-4a1 1 0 1 1 .82-1.82L16 16.91l8.59-3.82a1 1 0 0 1 .82 1.82l-9 4A1 1 0 0 1 16 19Z"></path><path fill="none" d="M0 0h32v32H0z"></path></g></svg>