<svg xmlns="http://www.w3.org/2000/svg" data-name="Layer 1" viewBox="0 0 512 512" id="premium"><path fill="#ffe64e" d="m304.5 269.34-48.24 83.56-.26.44L170.17 502a4.994 4.994 0 0 1-8.57.14l-27.69-44.61a4.982 4.982 0 0 0-4.09-2.36l-52.47-1.67a5 5 0 0 1-4.17-7.5l75.08-130.05 59.24-102.61Z"></path><path fill="#ffe64e" d="m434.65 453.5-52.47 1.67a4.982 4.982 0 0 0-4.09 2.36l-27.69 44.61a4.994 4.994 0 0 1-8.57-.14L256 353.34l-.26-.44-48.24-83.56 97-56 59.24 102.61L438.82 446a5 5 0 0 1-4.17 7.5Z"></path><path fill="#ffcd85" d="M435.027 178.867c0 18.234-22.398 32.706-27.74 49.159-5.537 17.052 3.886 41.888-6.444 56.082-10.433 14.336-37.035 12.998-51.371 23.431-14.194 10.33-21.084 36.1-38.137 41.637-16.453 5.343-37.1-11.281-55.335-11.281-18.234 0-38.882 16.624-55.335 11.281-17.052-5.536-23.943-31.307-38.137-41.637-14.336-10.433-40.938-9.095-51.37-23.431-10.33-14.194-.908-39.03-6.445-56.082-5.342-16.453-27.74-30.925-27.74-49.159 0-18.234 22.398-32.705 27.74-49.158 5.537-17.052-3.886-41.889 6.444-56.082 10.433-14.336 37.035-12.999 51.371-23.432 14.194-10.33 21.084-36.1 38.137-41.637C217.118 3.216 237.765 19.84 256 19.84c18.234 0 38.882-16.624 55.335-11.282 17.052 5.537 23.943 31.307 38.137 41.637 14.336 10.433 40.938 9.096 51.37 23.432 10.33 14.193.908 39.03 6.445 56.081 5.342 16.454 27.74 30.925 27.74 49.16Z"></path><path fill="#ffd815" d="M363.74 315.95c-5.3 1.68-10.26 3.67-14.27 6.59-14.19 10.33-21.08 36.1-38.13 41.64-16.38 5.31-36.91-11.13-55.08-11.28a3.423 3.423 0 0 0-.52 0c-18.17.15-38.7 16.59-55.07 11.28-17.06-5.54-23.95-31.31-38.14-41.64-4.01-2.92-8.97-4.91-14.27-6.59l59.24-102.61 48.5 28 48.5-28Z"></path><path fill="#f66" d="M435.027 178.867c0 18.234-22.398 32.706-27.74 49.159-5.537 17.052 3.886 41.888-6.444 56.082-10.433 14.336-37.035 12.998-51.371 23.431-14.194 10.33-21.084 36.1-38.137 41.637-16.453 5.343-37.1-11.281-55.335-11.281-18.234 0-38.882 16.624-55.335 11.281-17.052-5.536-23.943-31.307-38.137-41.637-14.336-10.433-40.938-9.095-51.37-23.431-10.33-14.194-.908-39.03-6.445-56.082-5.342-16.453-27.74-30.925-27.74-49.159 0-18.234 22.398-32.705 27.74-49.158 5.537-17.052-3.886-41.889 6.444-56.082 10.433-14.336 37.035-12.999 51.371-23.432 14.194-10.33 21.084-36.1 38.137-41.637C217.118 3.216 237.765 19.84 256 19.84c18.234 0 38.882-16.624 55.335-11.282 17.052 5.537 23.943 31.307 38.137 41.637 14.336 10.433 40.938 9.096 51.37 23.432 10.33 14.193.908 39.03 6.445 56.081 5.342 16.454 27.74 30.925 27.74 49.16Z"></path><path fill="#ff4e4e" d="M318.469 239.518H215.256a10.37 10.37 0 0 1-9.61-6.474l-28.486-70.266 53.899 28.619a5.185 5.185 0 0 0 7.07-2.26l28.733-57.47 28.735 57.47a5.185 5.185 0 0 0 7.07 2.26l53.898-28.619-28.486 70.266a10.37 10.37 0 0 1-9.61 6.474Z"></path><circle cx="267.327" cy="113.5" r="18" fill="#ff4e4e"></circle><circle cx="367.827" cy="152" r="15.5" fill="#ff4e4e"></circle><circle cx="165.827" cy="152" r="15.5" fill="#ff4e4e"></circle><path fill="#ffe64e" d="M307.641 239.518H204.43a10.37 10.37 0 0 1-9.61-6.474l-28.486-70.266 53.898 28.619a5.185 5.185 0 0 0 7.07-2.26l28.734-57.47 28.735 57.47a5.185 5.185 0 0 0 7.069 2.26l53.899-28.619-28.486 70.266a10.37 10.37 0 0 1-9.61 6.474Z"></path><path fill="#ffdf1f" d="M269.77 189.136a5.185 5.185 0 0 0 7.069 2.26l7.16-3.801-27.964-55.928-7.5 15zm56.853-16.209-24.371 60.117a10.37 10.37 0 0 1-9.61 6.474h15a10.37 10.37 0 0 0 9.61-6.474l28.486-70.266zm-121.392 18.47a5.185 5.185 0 0 0 7.07-2.26l.77-1.542-46.738-24.817 4.114 10.15z"></path><circle cx="256.5" cy="113.5" r="18" fill="#ffe64e"></circle><path fill="#ffdf1f" d="M256.5 95.5a17.94 17.94 0 0 0-5.8.973 17.982 17.982 0 0 1 0 34.054 17.995 17.995 0 1 0 5.8-35.027Z"></path><circle cx="357" cy="152" r="15.5" fill="#ffe64e"></circle><path fill="#ffdf1f" d="M357 136.5a15.438 15.438 0 0 0-5.193.91 15.48 15.48 0 0 1 0 29.18A15.494 15.494 0 1 0 357 136.5Z"></path><circle cx="155" cy="152" r="15.5" fill="#ffe64e"></circle><path fill="#ffdf1f" d="M155 136.5a15.44 15.44 0 0 0-5.164.9 15.48 15.48 0 0 1 0 29.2A15.494 15.494 0 1 0 155 136.5Z"></path><path fill="#272a33" d="M322.127 270.628a7.5 7.5 0 0 0-7.5-7.5H197.443a7.5 7.5 0 1 0 0 15h117.184a7.5 7.5 0 0 0 7.5-7.5Zm-117.698-23.61h103.212a17.8 17.8 0 0 0 16.562-11.156l25.198-62.158a22.998 22.998 0 1 0-14.039-13.909l-44.945 23.865-23.457-46.913a25.497 25.497 0 1 0-21.674-.352l-23.633 47.265-45.005-23.896a23.015 23.015 0 1 0-13.987 13.92l25.207 62.178a17.797 17.797 0 0 0 16.561 11.156ZM357 144a8 8 0 1 1-8 8 8.01 8.01 0 0 1 8-8Zm-202 16a8 8 0 1 1 8-8 8.01 8.01 0 0 1-8 8Zm101.5-57a10.5 10.5 0 1 1-10.5 10.5 10.512 10.512 0 0 1 10.5-10.5Zm-75.468 76.075 35.682 18.946a12.685 12.685 0 0 0 17.295-5.53l22.026-44.053 22.027 44.053a12.685 12.685 0 0 0 17.294 5.53l35.682-18.946-20.736 51.15a2.86 2.86 0 0 1-2.66 1.793H204.428a2.859 2.859 0 0 1-2.66-1.792ZM445.316 442.25l-77.73-134.635c2.219-.667 4.526-1.301 6.873-1.945 12.266-3.365 24.95-6.845 32.448-17.149 7.422-10.198 6.837-23.27 6.271-35.91-.373-8.336-.725-16.21 1.242-22.27 1.835-5.65 6.61-11.587 11.665-17.871 7.707-9.582 16.442-20.443 16.442-33.603s-8.735-24.02-16.442-33.602c-5.055-6.285-9.83-12.222-11.665-17.872-1.967-6.06-1.615-13.934-1.242-22.27.566-12.641 1.15-25.712-6.271-35.91-7.499-10.303-20.181-13.783-32.446-17.148-7.985-2.19-15.527-4.26-20.576-7.934-4.944-3.599-9.183-10.07-13.671-16.923-6.69-10.215-14.273-21.793-26.563-25.783-11.787-3.827-23.917.724-35.648 5.126-7.934 2.977-15.427 5.789-22.003 5.789s-14.07-2.812-22.003-5.789c-11.73-4.402-23.861-8.953-35.648-5.126-12.29 3.99-19.873 15.568-26.563 25.783-4.488 6.853-8.726 13.324-13.672 16.923-5.048 3.675-12.59 5.743-20.574 7.934-12.266 3.365-24.948 6.845-32.447 17.148-7.422 10.198-6.837 23.27-6.271 35.91.373 8.336.725 16.211-1.242 22.27-1.835 5.65-6.61 11.587-11.665 17.872-7.707 9.582-16.442 20.442-16.442 33.602 0 13.16 8.735 24.021 16.442 33.603 5.055 6.285 9.83 12.221 11.665 17.873 1.967 6.058 1.615 13.932 1.242 22.27-.566 12.64-1.15 25.71 6.271 35.908 7.499 10.304 20.182 13.784 32.448 17.149 2.347.644 4.654 1.278 6.873 1.945L66.684 442.25a12.5 12.5 0 0 0 10.428 18.744l51.135 1.626 26.975 43.47a12.393 12.393 0 0 0 10.614 5.91l.206-.001a12.396 12.396 0 0 0 10.625-6.247L256.032 368.4l79.3 137.35a12.397 12.397 0 0 0 10.626 6.248l.206.002a12.394 12.394 0 0 0 10.613-5.91l26.976-43.47 51.135-1.626a12.5 12.5 0 0 0 10.428-18.744Zm-279.549 52.385-25.481-41.062a12.473 12.473 0 0 0-10.224-5.903l-48.3-1.536 76.466-132.444c4.896 3.615 9.105 10.037 13.558 16.836 6.69 10.215 14.273 21.793 26.563 25.784a30.137 30.137 0 0 0 9.386 1.436c8.772 0 17.625-3.322 26.262-6.563 3.442-1.291 6.8-2.55 10.037-3.564l3.34 5.784ZM256 330.395c-9.298 0-18.436 3.428-27.272 6.744-9.746 3.657-18.95 7.112-25.747 4.904-7.267-2.36-12.794-10.8-18.647-19.735-5.029-7.68-10.23-15.62-17.393-20.833-7.264-5.287-16.5-7.82-25.432-10.27-10.224-2.806-19.881-5.455-24.288-11.51-4.33-5.95-3.885-15.89-3.414-26.412.416-9.305.847-18.928-1.96-27.573-2.686-8.272-8.562-15.577-14.243-22.641-6.753-8.396-13.131-16.325-13.131-24.202s6.378-15.805 13.13-24.2c5.682-7.064 11.558-14.37 14.244-22.642 2.807-8.645 2.376-18.267 1.96-27.572-.471-10.524-.916-20.463 3.414-26.413 4.407-6.055 14.064-8.705 24.287-11.51 8.932-2.45 18.169-4.984 25.433-10.27 7.164-5.214 12.364-13.155 17.393-20.834 5.852-8.935 11.38-17.374 18.647-19.734 6.798-2.208 16.001 1.247 25.747 4.903 8.836 3.316 17.974 6.745 27.272 6.745s18.436-3.429 27.272-6.745c9.747-3.657 18.953-7.108 25.747-4.904 7.267 2.36 12.794 10.8 18.647 19.736 5.029 7.678 10.23 15.619 17.393 20.832 7.264 5.287 16.5 7.821 25.433 10.272 10.223 2.804 19.88 5.454 24.287 11.509 4.33 5.95 3.885 15.89 3.414 26.412-.416 9.305-.847 18.927 1.96 27.573 2.686 8.272 8.562 15.577 14.244 22.641 6.752 8.396 13.13 16.325 13.13 24.201s-6.378 15.806-13.13 24.201c-5.682 7.064-11.558 14.369-14.244 22.641-2.807 8.646-2.376 18.268-1.96 27.573.471 10.523.916 20.463-3.414 26.413-4.407 6.055-14.064 8.704-24.288 11.51-8.932 2.45-18.168 4.983-25.432 10.27-7.164 5.213-12.364 13.154-17.393 20.833-5.852 8.936-11.38 17.375-18.647 19.735-6.796 2.207-16-1.247-25.746-4.904-8.837-3.316-17.975-6.744-27.273-6.744ZM381.938 447.67a12.473 12.473 0 0 0-10.224 5.903l-25.48 41.06-85.958-148.883c5.48.843 11.465 3.084 17.727 5.433 11.73 4.401 23.86 8.952 35.648 5.127 12.29-3.99 19.873-15.569 26.563-25.784 4.453-6.799 8.662-13.22 13.558-16.836l76.466 132.444Z"></path></svg>