<svg width="161" height="53" viewBox="0 0 161 53" fill="none" xmlns="http://www.w3.org/2000/svg">
<rect x="0.5" y="0.5" width="160" height="52" rx="9.5" fill="black"/>
<g style="mix-blend-mode:lighten" clip-path="url(#clip0_298_1717)">
<path d="M34.9986 28.1569C34.9568 23.984 38.8048 21.9807 38.9789 21.883C36.8135 19.0463 33.4436 18.6577 32.2414 18.612C29.3751 18.3523 26.6457 20.1228 25.1929 20.1228C23.74 20.1228 21.4934 18.6494 19.1168 18.691C15.9883 18.7326 13.1081 20.3182 11.4974 22.8244C8.2505 27.868 10.6688 35.343 13.8299 39.437C15.3779 41.4382 17.2207 43.693 19.6437 43.6098C21.9785 43.5267 22.8604 42.259 25.6779 42.259C28.4955 42.259 29.2892 43.6098 31.7563 43.5704C34.2652 43.5267 35.8573 41.5255 37.3937 39.518C39.1669 37.1946 39.9003 34.9461 39.942 34.8277C39.8863 34.8069 35.0496 33.1465 34.9986 28.1569Z" fill="white"/>
<path d="M30.4133 15.2791C31.699 13.8847 32.567 11.9458 32.328 10.0132C30.4758 10.0798 28.2339 11.1188 26.904 12.5132C25.7134 13.7456 24.6691 15.7197 24.9521 17.613C27.0177 17.7564 29.1273 16.6715 30.4133 15.2791Z" fill="white"/>
</g>
<path d="M55.7012 15.7227H59.1533V20.624C58.6247 20.7926 58.0869 20.9202 57.54 21.0068C56.9932 21.0934 56.3597 21.1367 55.6396 21.1367C54.1175 21.1367 52.9395 20.6855 52.1055 19.7832C51.2715 18.8809 50.8545 17.6208 50.8545 16.0029C50.8545 14.9593 51.0618 14.0479 51.4766 13.2686C51.8913 12.4893 52.4883 11.8945 53.2676 11.4844C54.0514 11.0697 54.9743 10.8623 56.0361 10.8623C57.1025 10.8623 58.096 11.0583 59.0166 11.4502L58.5381 12.5439C57.6585 12.1611 56.7995 11.9697 55.9609 11.9697C54.7715 11.9697 53.8418 12.3298 53.1719 13.0498C52.502 13.7699 52.167 14.7542 52.167 16.0029C52.167 17.3245 52.4883 18.3294 53.1309 19.0176C53.7734 19.7057 54.7077 20.0498 55.9336 20.0498C56.6035 20.0498 57.2575 19.9701 57.8955 19.8105V16.8438H55.7012V15.7227ZM64.5811 21.1367C63.4554 21.1367 62.5713 20.7972 61.9287 20.1182C61.2907 19.4346 60.9717 18.4958 60.9717 17.3018C60.9717 16.0986 61.2702 15.1416 61.8672 14.4307C62.4642 13.7152 63.2708 13.3574 64.2871 13.3574C65.2305 13.3574 65.9824 13.6628 66.543 14.2734C67.1035 14.8796 67.3838 15.7021 67.3838 16.7412V17.4863H62.2432C62.266 18.3385 62.4824 18.9857 62.8926 19.4277C63.3027 19.8698 63.8838 20.0908 64.6357 20.0908C65.0368 20.0908 65.4173 20.0566 65.7773 19.9883C66.1374 19.9154 66.5589 19.7764 67.042 19.5713V20.6514C66.6273 20.8291 66.2376 20.9544 65.873 21.0273C65.5085 21.1003 65.0778 21.1367 64.5811 21.1367ZM64.2734 14.3623C63.6855 14.3623 63.2207 14.5514 62.8789 14.9297C62.5371 15.3079 62.3343 15.8343 62.2705 16.5088H66.0918C66.0827 15.807 65.9209 15.2738 65.6064 14.9092C65.292 14.5446 64.8477 14.3623 64.2734 14.3623ZM71.7998 20.1318C71.9593 20.1318 72.1462 20.1159 72.3604 20.084C72.5745 20.0521 72.7363 20.0156 72.8457 19.9746V20.918C72.7318 20.9681 72.554 21.016 72.3125 21.0615C72.0755 21.1117 71.834 21.1367 71.5879 21.1367C70.1204 21.1367 69.3867 20.3643 69.3867 18.8193V14.4512H68.3271V13.8633L69.4004 13.3711L69.8926 11.7715H70.624V13.4941H72.791V14.4512H70.624V18.7852C70.624 19.2181 70.7266 19.5508 70.9316 19.7832C71.1413 20.0156 71.4307 20.1318 71.7998 20.1318ZM79.2168 21H77.9863V13.4941H79.2168V21ZM77.8906 11.4639C77.8906 11.1904 77.959 10.9922 78.0957 10.8691C78.237 10.7461 78.4102 10.6846 78.6152 10.6846C78.8066 10.6846 78.973 10.7461 79.1143 10.8691C79.2601 10.9922 79.333 11.1904 79.333 11.4639C79.333 11.7327 79.2601 11.931 79.1143 12.0586C78.973 12.1862 78.8066 12.25 78.6152 12.25C78.4102 12.25 78.237 12.1862 78.0957 12.0586C77.959 11.931 77.8906 11.7327 77.8906 11.4639ZM84.1045 20.1318C84.264 20.1318 84.4508 20.1159 84.665 20.084C84.8792 20.0521 85.041 20.0156 85.1504 19.9746V20.918C85.0365 20.9681 84.8587 21.016 84.6172 21.0615C84.3802 21.1117 84.1387 21.1367 83.8926 21.1367C82.4251 21.1367 81.6914 20.3643 81.6914 18.8193V14.4512H80.6318V13.8633L81.7051 13.3711L82.1973 11.7715H82.9287V13.4941H85.0957V14.4512H82.9287V18.7852C82.9287 19.2181 83.0312 19.5508 83.2363 19.7832C83.446 20.0156 83.7354 20.1318 84.1045 20.1318ZM96.8125 17.2334C96.8125 18.4593 96.5026 19.4163 95.8828 20.1045C95.263 20.7926 94.4062 21.1367 93.3125 21.1367C92.6335 21.1367 92.0319 20.9795 91.5078 20.665C90.9837 20.346 90.5804 19.8903 90.2979 19.2979C90.0153 18.7054 89.874 18.0173 89.874 17.2334C89.874 16.012 90.1794 15.0618 90.79 14.3828C91.4007 13.6992 92.2575 13.3574 93.3604 13.3574C94.4176 13.3574 95.2562 13.7061 95.876 14.4033C96.5003 15.096 96.8125 16.0394 96.8125 17.2334ZM91.1455 17.2334C91.1455 18.1768 91.3301 18.8945 91.6992 19.3867C92.0729 19.8743 92.6221 20.1182 93.3467 20.1182C94.0622 20.1182 94.6068 19.8743 94.9805 19.3867C95.3542 18.8945 95.541 18.1768 95.541 17.2334C95.541 16.29 95.3519 15.5814 94.9736 15.1074C94.5999 14.6289 94.0508 14.3896 93.3262 14.3896C91.8724 14.3896 91.1455 15.3376 91.1455 17.2334ZM103.881 21V16.2012C103.881 15.5905 103.744 15.137 103.471 14.8408C103.202 14.54 102.778 14.3896 102.199 14.3896C101.429 14.3896 100.868 14.6038 100.518 15.0322C100.171 15.4561 99.998 16.1488 99.998 17.1104V21H98.7676V13.4941H99.7588L99.9434 14.5195H100.012C100.244 14.1504 100.57 13.8656 100.989 13.665C101.409 13.46 101.871 13.3574 102.377 13.3574C103.298 13.3574 103.981 13.5807 104.428 14.0273C104.874 14.474 105.098 15.1689 105.098 16.1123V21H103.881Z" fill="white"/>
<path d="M59.8086 41L58.2617 37.0186H53.1641L51.6348 41H50L55.0186 28.0977H56.4775L61.4873 41H59.8086ZM57.7783 35.5859L56.3369 31.6924L55.7217 29.7676C55.5459 30.4707 55.3613 31.1123 55.168 31.6924L53.709 35.5859H57.7783ZM67.6133 41.1758C66.3184 41.1758 65.3223 40.71 64.625 39.7783H64.5195L64.5547 40.1387C64.6016 40.5957 64.625 41.0029 64.625 41.3604V45.3242H63.043V31.3496H64.3438L64.5547 32.668H64.625C65 32.1406 65.4336 31.7598 65.9258 31.5254C66.418 31.291 66.9863 31.1738 67.6309 31.1738C68.8848 31.1738 69.8574 31.6104 70.5488 32.4834C71.2461 33.3506 71.5947 34.5752 71.5947 36.1572C71.5947 37.7334 71.2461 38.9639 70.5488 39.8486C69.8516 40.7334 68.873 41.1758 67.6133 41.1758ZM67.3496 32.501C66.3945 32.501 65.7031 32.7705 65.2754 33.3096C64.8535 33.8486 64.6367 34.6953 64.625 35.8496V36.1572C64.625 37.4639 64.8418 38.4102 65.2754 38.9961C65.709 39.5762 66.4121 39.8662 67.3848 39.8662C68.1934 39.8662 68.8232 39.5381 69.2744 38.8818C69.7314 38.2256 69.96 37.3115 69.96 36.1396C69.96 34.9619 69.7314 34.0625 69.2744 33.4414C68.8232 32.8145 68.1816 32.501 67.3496 32.501ZM78.6875 41.1758C77.3926 41.1758 76.3965 40.71 75.6992 39.7783H75.5938L75.6289 40.1387C75.6758 40.5957 75.6992 41.0029 75.6992 41.3604V45.3242H74.1172V31.3496H75.418L75.6289 32.668H75.6992C76.0742 32.1406 76.5078 31.7598 77 31.5254C77.4922 31.291 78.0605 31.1738 78.7051 31.1738C79.959 31.1738 80.9316 31.6104 81.623 32.4834C82.3203 33.3506 82.6689 34.5752 82.6689 36.1572C82.6689 37.7334 82.3203 38.9639 81.623 39.8486C80.9258 40.7334 79.9473 41.1758 78.6875 41.1758ZM78.4238 32.501C77.4688 32.501 76.7773 32.7705 76.3496 33.3096C75.9277 33.8486 75.7109 34.6953 75.6992 35.8496V36.1572C75.6992 37.4639 75.916 38.4102 76.3496 38.9961C76.7832 39.5762 77.4863 39.8662 78.459 39.8662C79.2676 39.8662 79.8975 39.5381 80.3486 38.8818C80.8057 38.2256 81.0342 37.3115 81.0342 36.1396C81.0342 34.9619 80.8057 34.0625 80.3486 33.4414C79.8975 32.8145 79.2559 32.501 78.4238 32.501ZM97.373 37.5635C97.373 38.6826 96.9688 39.5645 96.1602 40.209C95.3516 40.8535 94.2266 41.1758 92.7852 41.1758C91.2617 41.1758 90.084 40.9736 89.252 40.5693V39.0225C89.7969 39.2568 90.3916 39.4414 91.0361 39.5762C91.6865 39.7109 92.293 39.7783 92.8555 39.7783C93.8164 39.7783 94.54 39.5938 95.0264 39.2246C95.5127 38.8555 95.7559 38.3486 95.7559 37.7041C95.7559 37.2764 95.668 36.9248 95.4922 36.6494C95.3164 36.374 95.0205 36.1162 94.6045 35.876C94.1943 35.6357 93.5703 35.3633 92.7324 35.0586C91.543 34.625 90.6934 34.1152 90.1836 33.5293C89.6738 32.9375 89.4189 32.1758 89.4189 31.2441C89.4189 30.2422 89.7939 29.4453 90.5439 28.8535C91.2998 28.2617 92.293 27.9658 93.5234 27.9658C94.8066 27.9658 95.9873 28.2061 97.0654 28.6865L96.5645 30.0752C95.4629 29.6182 94.4375 29.3896 93.4883 29.3896C92.7266 29.3896 92.1289 29.5537 91.6953 29.8818C91.2676 30.21 91.0537 30.6699 91.0537 31.2617C91.0537 31.6836 91.1357 32.0352 91.2998 32.3164C91.4697 32.5918 91.7393 32.8438 92.1084 33.0723C92.4834 33.3008 93.0693 33.5615 93.8662 33.8545C94.8213 34.2061 95.5332 34.5488 96.002 34.8828C96.4707 35.2109 96.8164 35.5918 97.0391 36.0254C97.2617 36.4531 97.373 36.9658 97.373 37.5635ZM102.972 39.8838C103.177 39.8838 103.417 39.8633 103.692 39.8223C103.968 39.7812 104.176 39.7344 104.316 39.6816V40.8945C104.17 40.959 103.941 41.0205 103.631 41.0791C103.326 41.1436 103.016 41.1758 102.699 41.1758C100.812 41.1758 99.8691 40.1826 99.8691 38.1963V32.5801H98.5068V31.8242L99.8867 31.1914L100.52 29.1348H101.46V31.3496H104.246V32.5801H101.46V38.1523C101.46 38.709 101.592 39.1367 101.855 39.4355C102.125 39.7344 102.497 39.8838 102.972 39.8838ZM114.635 36.1572C114.635 37.7334 114.236 38.9639 113.439 39.8486C112.643 40.7334 111.541 41.1758 110.135 41.1758C109.262 41.1758 108.488 40.9736 107.814 40.5693C107.141 40.1592 106.622 39.5732 106.259 38.8115C105.896 38.0498 105.714 37.165 105.714 36.1572C105.714 34.5869 106.106 33.3652 106.892 32.4922C107.677 31.6133 108.778 31.1738 110.196 31.1738C111.556 31.1738 112.634 31.6221 113.431 32.5186C114.233 33.4092 114.635 34.6221 114.635 36.1572ZM107.349 36.1572C107.349 37.3701 107.586 38.293 108.061 38.9258C108.541 39.5527 109.247 39.8662 110.179 39.8662C111.099 39.8662 111.799 39.5527 112.279 38.9258C112.76 38.293 113 37.3701 113 36.1572C113 34.9443 112.757 34.0332 112.271 33.4238C111.79 32.8086 111.084 32.501 110.152 32.501C108.283 32.501 107.349 33.7197 107.349 36.1572ZM121.648 31.1738C122.076 31.1738 122.454 31.209 122.782 31.2793L122.589 32.7383C122.231 32.6562 121.883 32.6152 121.543 32.6152C121.033 32.6152 120.559 32.7559 120.119 33.0371C119.686 33.3184 119.346 33.708 119.1 34.2061C118.854 34.6982 118.73 35.2461 118.73 35.8496V41H117.148V31.3496H118.449L118.625 33.1162H118.695C119.064 32.4775 119.501 31.9941 120.005 31.666C120.509 31.3379 121.057 31.1738 121.648 31.1738ZM128.513 41.1758C127.065 41.1758 125.929 40.7393 125.103 39.8662C124.282 38.9873 123.872 37.7803 123.872 36.2451C123.872 34.6982 124.256 33.4678 125.023 32.5537C125.791 31.6338 126.828 31.1738 128.135 31.1738C129.348 31.1738 130.314 31.5664 131.035 32.3516C131.756 33.1309 132.116 34.1885 132.116 35.5244V36.4824H125.507C125.536 37.5781 125.814 38.4102 126.342 38.9785C126.869 39.5469 127.616 39.8311 128.583 39.8311C129.099 39.8311 129.588 39.7871 130.051 39.6992C130.514 39.6055 131.056 39.4268 131.677 39.1631V40.5518C131.144 40.7803 130.643 40.9414 130.174 41.0352C129.705 41.1289 129.151 41.1758 128.513 41.1758ZM128.117 32.4658C127.361 32.4658 126.764 32.709 126.324 33.1953C125.885 33.6816 125.624 34.3584 125.542 35.2256H130.455C130.443 34.3232 130.235 33.6377 129.831 33.1689C129.427 32.7002 128.855 32.4658 128.117 32.4658Z" fill="white"/>
<rect x="0.5" y="0.5" width="160" height="52" rx="9.5" stroke="white"/>
<defs>
<clipPath id="clip0_298_1717">
<rect width="30" height="33" fill="white" transform="translate(10 10)"/>
</clipPath>
</defs>
</svg>
