<svg width="47" height="47" viewBox="0 0 47 47" fill="none" xmlns="http://www.w3.org/2000/svg">
<path d="M27.875 14.75H19.125C16.7088 14.75 14.75 16.7088 14.75 19.125V27.875C14.75 30.2912 16.7088 32.25 19.125 32.25H27.875C30.2912 32.25 32.25 30.2912 32.25 27.875V19.125C32.25 16.7088 30.2912 14.75 27.875 14.75Z" stroke="#FD123F" stroke-width="1.5" stroke-linecap="round" stroke-linejoin="round"/>
<path d="M26.9995 22.9495C27.1075 23.6777 26.9831 24.4214 26.644 25.0749C26.305 25.7283 25.7685 26.2582 25.1109 26.5892C24.4533 26.9202 23.7081 27.0354 22.9813 26.9184C22.2545 26.8015 21.583 26.4583 21.0625 25.9378C20.5419 25.4172 20.1988 24.7458 20.0818 24.0189C19.9649 23.2921 20.0801 22.5469 20.411 21.8893C20.742 21.2317 21.2719 20.6953 21.9254 20.3562C22.5788 20.0172 23.3225 19.8928 24.0508 20.0008C24.7936 20.1109 25.4812 20.457 26.0122 20.988C26.5432 21.519 26.8894 22.2067 26.9995 22.9495Z" stroke="#FD123F" stroke-width="1.5" stroke-linecap="round" stroke-linejoin="round"/>
<path d="M28.3125 18.6875H28.3247" stroke="#FD123F" stroke-width="2" stroke-linecap="round" stroke-linejoin="round"/>
<rect x="0.5" y="0.5" width="46" height="46" rx="23" stroke="#FD123F" stroke-opacity="0.8"/>
</svg>
