<svg width="47" height="47" viewBox="0 0 47 47" fill="none" xmlns="http://www.w3.org/2000/svg">
<path fill-rule="evenodd" clip-rule="evenodd" d="M33.8128 33.7736H29.497V27.0189C29.497 25.4101 29.4692 23.3373 27.2541 23.3373C25.0059 23.3373 24.6656 25.0904 24.6656 26.9054V33.7736H20.3529V19.8847H24.4903V21.7822H24.5501C25.1256 20.6911 26.5342 19.5402 28.6339 19.5402C33.0064 19.5402 33.8128 22.4174 33.8128 26.1578V33.7746V33.7736ZM15.4875 17.9872C14.8236 17.9872 14.1868 17.7234 13.7173 17.254C13.2479 16.7845 12.9841 16.1478 12.9841 15.4838C12.9841 14.8199 13.2479 14.1832 13.7173 13.7137C14.1868 13.2442 14.8236 12.9805 15.4875 12.9805C16.1514 12.9805 16.7882 13.2442 17.2576 13.7137C17.7271 14.1832 17.9908 14.8199 17.9908 15.4838C17.9908 16.1478 17.7271 16.7845 17.2576 17.254C16.7882 17.7234 16.1514 17.9872 15.4875 17.9872ZM13.3239 19.8847H17.6449V33.7736H13.3239V19.8847Z" fill="#FD123F"/>
<rect x="0.5" y="0.5" width="46" height="46" rx="23" stroke="#FD123F" stroke-opacity="0.8"/>
</svg>
