<svg width="47" height="47" viewBox="0 0 47 47" fill="none" xmlns="http://www.w3.org/2000/svg">
<path fill-rule="evenodd" clip-rule="evenodd" d="M35 17.1363C34.1899 17.4986 33.3197 17.7422 32.4075 17.8509C33.3499 17.2834 34.0552 16.3906 34.3919 15.3387C33.5058 15.8678 32.5363 16.2405 31.5254 16.4408C30.846 15.7093 29.9456 15.2242 28.964 15.0609C27.9824 14.8975 26.9747 15.0651 26.0976 15.5376C25.2204 16.0101 24.5229 16.7609 24.1136 17.6735C23.7042 18.586 23.6059 19.6091 23.834 20.5836C22.0395 20.4931 20.2841 20.0238 18.6816 19.2062C17.0791 18.3886 15.6654 17.241 14.5323 15.8379C14.1302 16.5313 13.9189 17.3199 13.9202 18.1227C13.9197 18.8704 14.1028 19.6066 14.4532 20.266C14.8036 20.9253 15.3104 21.4873 15.9285 21.9021C15.2118 21.8797 14.5109 21.685 13.8842 21.3345V21.3918C13.8843 22.4406 14.2448 23.4571 14.9048 24.2689C15.5647 25.0807 16.4833 25.6378 17.5048 25.8457C16.8395 26.0278 16.1415 26.0543 15.4644 25.9232C15.7528 26.8259 16.3144 27.6154 17.0707 28.181C17.827 28.7466 18.7401 29.0601 19.6822 29.0776C18.0833 30.3396 16.1092 31.0237 14.0772 31.0202C13.7173 31.0213 13.3576 31.0011 13 30.9598C15.0639 32.2943 17.466 33.0026 19.9193 33C28.2208 33 32.7616 26.0792 32.7616 20.0763C32.7616 19.8801 32.7566 19.6838 32.7476 19.4895C33.6313 18.8467 34.394 18.0505 35 17.1383" fill="#FD123F"/>
<rect x="0.5" y="0.5" width="46" height="46" rx="23" stroke="#FD123F" stroke-opacity="0.8"/>
</svg>
