<svg xmlns="http://www.w3.org/2000/svg" width="564.3" height="436.71" enable-background="new 0 0 600 600" viewBox="17.85 81.641 564.3 436.71" id="login-password"><path fill="#fff" d="M383.1 497.5c-1.4.3-2.9.5-4.5.5H185.8c-11 0-20-8.9-20-20V141.4c0-11 8.9-20 20-20 203.9.2 193.2-.4 197.2.5H195.2c-10.6.2-19.1 8.8-19.1 19.5V478c0 10.7 8.7 19.5 19.5 19.5h187.5z"></path><path fill="#eeecf0" d="M408.3 141.4V478c0 11-8.9 20-19.9 20H195.5c-11 0-20-8.9-20-20V141.4c0-11 8.9-20 20-20h192.8c11.1 0 20 9 20 20z"></path><path fill="#fff" d="M394.3 141.4V478c0 3.8-3.1 6.8-6.9 6.8H194.7c-3.8 0-6.8-3.1-6.8-6.8V141.4c0-3.8 3.1-6.8 6.8-6.8h64.7v6.9c0 5.5 4.5 10 10 10h43.5c5.5 0 10-4.5 10-10v-6.9h64.7c3.7 0 6.7 3 6.7 6.8z"></path><path fill="#fcfafc" d="M395.2 419.7V478c0 3.8-3.1 6.8-6.9 6.8H195.5c-3.8 0-6.8-3.1-6.8-6.8v-83.3c12.5 15.8 25.9 25 50.2 25h156.3z"></path><path fill="#fff" d="M274.8 141.5c0 1.5-1.2 2.7-2.7 2.7s-2.7-1.2-2.7-2.7c0-1.5 1.2-2.7 2.7-2.7s2.7 1.2 2.7 2.7z"></path><path fill="#2b2a46" d="M374.7 467.4v1c-.2 1.1-1.1 1.9-2.3 1.9h-28.1c-1.3 0-2.4-1.1-2.4-2.4v-29.5c0-1.3 1-2.4 2.3-2.4h1v29.4c0 1 .8 1.9 1.9 1.9h27.6z"></path><path fill="#fff" d="M377.6 436v29.5c0 1.3-1 2.4-2.4 2.4h-28.1c-1.3 0-2.4-1.1-2.4-2.4V436c0-1.3 1.1-2.4 2.4-2.4h28.1c1.3.1 2.4 1.1 2.4 2.4z"></path><path fill="#797885" d="M354.8 457.8c-.1 0-.3 0-.4-.1-.2-.2-.2-.5 0-.7l14.1-14.1c.2-.2.5-.2.7 0s.2.5 0 .7l-14.1 14.1c-.1.1-.2.1-.3.1z"></path><path fill="#797885" d="M368.9 457.8c-.1 0-.3 0-.4-.1l-14.1-14.1c-.2-.2-.2-.5 0-.7s.5-.2.7 0l14.1 14.1c.2.2.2.5 0 .7-.1.1-.2.1-.3.1z"></path><path fill="#2b2a46" d="M306.9 467.4v1c-.2 1.1-1.2 1.9-2.3 1.9h-28.1c-1.3 0-2.4-1.1-2.4-2.4v-29.5c0-1.3 1-2.3 2.3-2.4h1v29.4c0 1 .8 1.9 1.9 1.9h27.6z"></path><path fill="#fff" d="M309.8 436v29.5c0 1.3-1 2.4-2.4 2.4h-28.1c-1.3 0-2.4-1.1-2.4-2.4V436c0-1.3 1.1-2.4 2.4-2.4h28.1c1.3.1 2.4 1.1 2.4 2.4z"></path><path fill="#797885" d="M287 457.8c-.1 0-.3 0-.4-.1-.2-.2-.2-.5 0-.7l14.1-14.1c.2-.2.5-.2.7 0s.2.5 0 .7l-14.1 14.1c-.1.1-.2.1-.3.1z"></path><path fill="#797885" d="M301.1 457.8c-.1 0-.3 0-.4-.1l-14.1-14.1c-.2-.2-.2-.5 0-.7s.5-.2.7 0l14.1 14.1c.2.2.2.5 0 .7-.1.1-.2.1-.3.1z"></path><path fill="#2b2a46" d="M239.1 467.4v1c-.2 1.1-1.2 1.9-2.3 1.9h-28.1c-1.3 0-2.4-1.1-2.4-2.4v-29.5c0-1.3 1.1-2.4 2.3-2.4h1v29.4c0 1 .8 1.9 1.9 1.9h27.6z"></path><path fill="#fff" d="M242 436v29.5c0 1.3-1 2.4-2.4 2.4h-28.1c-1.3 0-2.4-1.1-2.4-2.4V436c0-1.3 1.1-2.4 2.4-2.4h28.1c1.3.1 2.4 1.1 2.4 2.4z"></path><path fill="#797885" d="M219.2 457.8c-.1 0-.3 0-.4-.1-.2-.2-.2-.5 0-.7l14.1-14.1c.2-.2.5-.2.7 0s.2.5 0 .7l-14.1 14.1c-.1.1-.2.1-.3.1z"></path><path fill="#797885" d="M233.3 457.8c-.1 0-.3 0-.4-.1l-14.1-14.1c-.2-.2-.2-.5 0-.7s.5-.2.7 0l14.1 14.1c.2.2.2.5 0 .7-.1.1-.2.1-.3.1z"></path><path fill="#fff" d="M345.4 223.8c0 28.4-23.1 51.5-51.5 51.5-8.9 0-17.9-2.3-25.9-7-15.3-8.9-25.6-25.5-25.6-44.5 0-28.4 23.1-51.5 51.5-51.5s51.5 23 51.5 51.5z"></path><path fill="#748ce6" d="m315 223.7-.3.3c-.3.2-.5.5-.8.7-.9-3-2-5.8-3.5-8.4l-1.1-2c-9.5 9.5-26.2 9-29.4 8.8 0 2.3 0 11.1.5 13.6.1.2 0 .4-.2.5-.2.1-.4.1-.6-.1-.1 0-5.2-4.6-8.3-3-1.3.7-2.8 1.7-3.7 3.1-.1.1-.2.3-.3.4-.1 0-.3-.1-.4-.1l-.3-.6c-1.9-3.1-10.8-18.3-5-25.1 6.5-7.6 20.4-6 23.5-9.6 3-3.5 12.7-17.3 25.8-12.9 13.1 4.7 20.1 20.4 4.1 34.4z"></path><path fill="#fff" d="m294.2 262.8-.2.5-4.2 11.5c-6.5 0-13-2.1-19.4-5.2-.1-.1-.3-.1-.4-.2l6-20.4.5.1c-7.5 25.1-5.6 19-5.9 20 7 3.4 13.1 5.1 18.9 5.1l4.1-11.2c-2.9-1.1-5.2-3-7-4.8-.2-.2-.2-.5 0-.7s.5-.2.7 0c1.5 1.5 3.4 3.1 5.9 4.2.2.1.5.2.7.3l.3.8z"></path><path fill="#fff" d="m270 269.4 6.1-20.4c-5.9 1.4-9.1-3.4-9.9-7-.8-3.6 1.4-6.4 4.9-8.2s8.9 3.1 8.9 3.1c-.7-3-.5-14.3-.5-14.3s19.7 1.8 30-9.1l1.4 2.6c3.2 5.9 5 12.5 5.2 19.2.3 10.8-1.2 25.6-11.4 28-8.2 1.7-13.4-1.1-17.6-5.3"></path><path fill="#f992c7" d="M378.7 321.9c0 7.8-6.3 14-14 14H221c-7.8 0-14-6.3-14-14 0-7.8 6.3-14 14-14h143.7c7.7 0 14 6.3 14 14z"></path><path fill="#fff" d="M355.6 328.1c-.3 0-.5-.2-.5-.5v-11.3c0-.3.2-.5.5-.5s.5.2.5.5v11.3c0 .3-.2.5-.5.5z"></path><path fill="#fff" d="M361.2 322.4h-11.3c-.3 0-.5-.2-.5-.5s.2-.5.5-.5h11.3c.3 0 .5.2.5.5s-.2.5-.5.5z"></path><path fill="#fff" d="M351.2 326.3c-.2-.2-.2-.5 0-.7l8-8c.2-.2.5-.2.7 0s.2.5 0 .7l-8 8c-.1.2-.5.2-.7 0z"></path><path fill="#fff" d="m359.2 326.3-8-8c-.2-.2-.2-.5 0-.7s.5-.2.7 0l8 8c.2.2.2.5 0 .7s-.5.2-.7 0zM330.5 328.1c-.3 0-.5-.2-.5-.5v-11.3c0-.3.2-.5.5-.5s.5.2.5.5v11.3c0 .3-.2.5-.5.5z"></path><path fill="#fff" d="M336.1 322.4h-11.3c-.3 0-.5-.2-.5-.5s.2-.5.5-.5h11.3c.3 0 .5.2.5.5s-.2.5-.5.5z"></path><path fill="#fff" d="M326.1 326.3c-.2-.2-.2-.5 0-.7l8-8c.2-.2.5-.2.7 0s.2.5 0 .7l-8 8c-.1.2-.5.2-.7 0z"></path><path fill="#fff" d="m334.1 326.3-8-8c-.2-.2-.2-.5 0-.7s.5-.2.7 0l8 8c.2.2.2.5 0 .7s-.5.2-.7 0zM305.4 328.1c-.3 0-.5-.2-.5-.5v-11.3c0-.3.2-.5.5-.5s.5.2.5.5v11.3c0 .3-.2.5-.5.5z"></path><path fill="#fff" d="M311 322.4h-11.3c-.3 0-.5-.2-.5-.5s.2-.5.5-.5H311c.3 0 .5.2.5.5s-.2.5-.5.5z"></path><path fill="#fff" d="M301.1 326.3c-.2-.2-.2-.5 0-.7l8-8c.2-.2.5-.2.7 0s.2.5 0 .7l-8 8c-.2.2-.6.2-.7 0z"></path><path fill="#fff" d="m309 326.3-8-8c-.2-.2-.2-.5 0-.7s.5-.2.7 0l8 8c.2.2.2.5 0 .7s-.5.2-.7 0zM280.3 328.1c-.3 0-.5-.2-.5-.5v-11.3c0-.3.2-.5.5-.5s.5.2.5.5v11.3c0 .3-.2.5-.5.5z"></path><path fill="#fff" d="M286 322.4h-11.3c-.3 0-.5-.2-.5-.5s.2-.5.5-.5H286c.3 0 .5.2.5.5s-.3.5-.5.5z"></path><path fill="#fff" d="M276 326.3c-.2-.2-.2-.5 0-.7l8-8c.2-.2.5-.2.7 0s.2.5 0 .7l-8 8c-.2.2-.5.2-.7 0z"></path><path fill="#fff" d="m283.9 326.3-8-8c-.2-.2-.2-.5 0-.7s.5-.2.7 0l8 8c.2.2.2.5 0 .7s-.5.2-.7 0zM255.2 328.1c-.3 0-.5-.2-.5-.5v-11.3c0-.3.2-.5.5-.5s.5.2.5.5v11.3c0 .3-.2.5-.5.5z"></path><path fill="#fff" d="M260.9 322.4h-11.3c-.3 0-.5-.2-.5-.5s.2-.5.5-.5h11.3c.3 0 .5.2.5.5s-.3.5-.5.5z"></path><path fill="#fff" d="M250.9 326.3c-.2-.2-.2-.5 0-.7l8-8c.2-.2.5-.2.7 0s.2.5 0 .7l-8 8c-.2.2-.5.2-.7 0z"></path><path fill="#fff" d="m258.9 326.3-8-8c-.2-.2-.2-.5 0-.7s.5-.2.7 0l8 8c.2.2.2.5 0 .7s-.6.2-.7 0zM230.1 328.1c-.3 0-.5-.2-.5-.5v-11.3c0-.3.2-.5.5-.5s.5.2.5.5v11.3c0 .3-.2.5-.5.5z"></path><path fill="#fff" d="M235.8 322.4h-11.3c-.3 0-.5-.2-.5-.5s.2-.5.5-.5h11.3c.3 0 .5.2.5.5s-.3.5-.5.5z"></path><path fill="#fff" d="M225.8 326.3c-.2-.2-.2-.5 0-.7l8-8c.2-.2.5-.2.7 0s.2.5 0 .7l-8 8c-.2.2-.5.2-.7 0z"></path><path fill="#fff" d="m233.8 326.3-8-8c-.2-.2-.2-.5 0-.7s.5-.2.7 0l8 8c.2.2.2.5 0 .7s-.5.2-.7 0z"></path><path fill="#f992c7" d="M378.7 368.7c0 7.8-6.3 14-14 14H221c-7.8 0-14-6.3-14-14 0-7.8 6.3-14 14-14h143.7c7.7 0 14 6.2 14 14z"></path><path fill="#fff" d="M355.6 374.8c-.3 0-.5-.2-.5-.5V363c0-.3.2-.5.5-.5s.5.2.5.5v11.3c0 .3-.2.5-.5.5z"></path><path fill="#fff" d="M361.2 369.2h-11.3c-.3 0-.5-.2-.5-.5s.2-.5.5-.5h11.3c.3 0 .5.2.5.5s-.2.5-.5.5z"></path><path fill="#fff" d="M351.2 373c-.2-.2-.2-.5 0-.7l8-8c.2-.2.5-.2.7 0s.2.5 0 .7l-8 8c-.1.2-.5.2-.7 0z"></path><path fill="#fff" d="m359.2 373-8-8c-.2-.2-.2-.5 0-.7s.5-.2.7 0l8 8c.2.2.2.5 0 .7s-.5.2-.7 0zM330.5 374.8c-.3 0-.5-.2-.5-.5V363c0-.3.2-.5.5-.5s.5.2.5.5v11.3c0 .3-.2.5-.5.5z"></path><path fill="#fff" d="M336.1 369.2h-11.3c-.3 0-.5-.2-.5-.5s.2-.5.5-.5h11.3c.3 0 .5.2.5.5s-.2.5-.5.5z"></path><path fill="#fff" d="M326.1 373c-.2-.2-.2-.5 0-.7l8-8c.2-.2.5-.2.7 0s.2.5 0 .7l-8 8c-.1.2-.5.2-.7 0z"></path><path fill="#fff" d="m334.1 373-8-8c-.2-.2-.2-.5 0-.7s.5-.2.7 0l8 8c.2.2.2.5 0 .7s-.5.2-.7 0zM305.4 374.8c-.3 0-.5-.2-.5-.5V363c0-.3.2-.5.5-.5s.5.2.5.5v11.3c0 .3-.2.5-.5.5z"></path><path fill="#fff" d="M311 369.2h-11.3c-.3 0-.5-.2-.5-.5s.2-.5.5-.5H311c.3 0 .5.2.5.5s-.2.5-.5.5z"></path><path fill="#fff" d="M301.1 373c-.2-.2-.2-.5 0-.7l8-8c.2-.2.5-.2.7 0s.2.5 0 .7l-8 8c-.2.2-.6.2-.7 0z"></path><path fill="#fff" d="m309 373-8-8c-.2-.2-.2-.5 0-.7s.5-.2.7 0l8 8c.2.2.2.5 0 .7s-.5.2-.7 0zM280.3 374.8c-.3 0-.5-.2-.5-.5V363c0-.3.2-.5.5-.5s.5.2.5.5v11.3c0 .3-.2.5-.5.5z"></path><path fill="#fff" d="M286 369.2h-11.3c-.3 0-.5-.2-.5-.5s.2-.5.5-.5H286c.3 0 .5.2.5.5s-.3.5-.5.5z"></path><path fill="#fff" d="M276 373c-.2-.2-.2-.5 0-.7l8-8c.2-.2.5-.2.7 0s.2.5 0 .7l-8 8c-.2.2-.5.2-.7 0z"></path><path fill="#fff" d="m283.9 373-8-8c-.2-.2-.2-.5 0-.7s.5-.2.7 0l8 8c.2.2.2.5 0 .7s-.5.2-.7 0zM255.2 374.8c-.3 0-.5-.2-.5-.5V363c0-.3.2-.5.5-.5s.5.2.5.5v11.3c0 .3-.2.5-.5.5z"></path><path fill="#fff" d="M260.9 369.2h-11.3c-.3 0-.5-.2-.5-.5s.2-.5.5-.5h11.3c.3 0 .5.2.5.5s-.3.5-.5.5z"></path><path fill="#fff" d="M250.9 373c-.2-.2-.2-.5 0-.7l8-8c.2-.2.5-.2.7 0s.2.5 0 .7l-8 8c-.2.2-.5.2-.7 0z"></path><path fill="#fff" d="m258.9 373-8-8c-.2-.2-.2-.5 0-.7s.5-.2.7 0l8 8c.2.2.2.5 0 .7s-.6.2-.7 0zM230.1 374.8c-.3 0-.5-.2-.5-.5V363c0-.3.2-.5.5-.5s.5.2.5.5v11.3c0 .3-.2.5-.5.5z"></path><path fill="#fff" d="M235.8 369.2h-11.3c-.3 0-.5-.2-.5-.5s.2-.5.5-.5h11.3c.3 0 .5.2.5.5s-.3.5-.5.5z"></path><path fill="#fff" d="M225.8 373c-.2-.2-.2-.5 0-.7l8-8c.2-.2.5-.2.7 0s.2.5 0 .7l-8 8c-.2.2-.5.2-.7 0z"></path><path fill="#fff" d="m233.8 373-8-8c-.2-.2-.2-.5 0-.7s.5-.2.7 0l8 8c.2.2.2.5 0 .7s-.5.2-.7 0zM142.8 412.3c-1.7 2.1-.9 4.6-3.3 7.4-2.4 2.8-4.6 1.6-7.7 3.6-3.1 2-2.2 4.2-4.6 8.8-2.5 4.6-4.4 4.3-7.3 5.9-2.9 1.6-4.4 7.9-4.4 7.9h-11.2l6-26.7s8.6 2.2 11.3-4.6c2.7-6.8 7.4-10.3 15.8-8.3 0 0 8.8-8.2 12.3-4.9 3.4 3.1-5.2 8.8-6.9 10.9z"></path><path fill="#0acf83" d="M115.3 405.4c-3.4 3.4-5.2 5.9-5.6 9.4-.4 3.6 3.5 11.5-.7 17s-.5 14.1-.5 14.1H88.3s-.5-11.8-.2-16.2c.3-4.3 1.6-9.2 5.5-12.3 3.8-3.1.4-6.8-.5-13.7-.9-6.9 6.5-11 8.1-13.1 1.5-2 1.8-14 10.2-12.9 8.4 1 2.9 11.2 3 13.7 0 2.5 4.3 10.6.9 14z"></path><path fill="#eeecf0" d="M100 445.8H84.9s-1.1-5-7.1-6.5c-6-1.4-4.4-6-6.3-10.2-2-4.2-6.3-3.7-10.7-7-4.5-3.3-.2-5.2-4.8-7.8-4.5-2.6-9.2-6.9-7.3-9.9 2-3 7.5.7 11.2 3 3.8 2.2 10.2-3.1 12.8.7 2.5 3.8 4.5 10.4 7.8 11.3 3.2.9 10-.1 13.1 3.5 9.5 11.3 6.4 22.9 6.4 22.9z"></path><path fill="#ffd857" d="M120 445.8v16.8c0 9.4-7.6 17.1-17.1 17.1H98c-9.4 0-17.1-7.6-17.1-17.1v-16.8H120z"></path><path fill="#fff" d="M106.5 462.8c0 3.3-2.7 6-6 6s-6-2.7-6-6 2.7-6 6-6 6 2.7 6 6z"></path><path fill="#797885" d="M138 351.7c-.1 0-.3 0-.4-.1-.2-.2-.2-.5 0-.7l5.5-5.5c.2-.2.5-.2.7 0s.2.5 0 .7l-5.5 5.5c0 .1-.2.1-.3.1z"></path><path fill="#797885" d="M143.5 351.7c-.1 0-.3 0-.4-.1l-5.5-5.5c-.2-.2-.2-.5 0-.7s.5-.2.7 0l5.5 5.5c.2.2.2.5 0 .7-.1.1-.2.1-.3.1z"></path><path fill="#fff" d="m137.5 167.9-1 6.5c-.1.3.1.6.3.7l5.3 3.8-6.5-1c-.3 0-.6.1-.7.3l-3.8 5.3 1-6.5c.1-.3-.1-.5-.3-.7l-5.3-3.8 6.5 1c.3 0 .6-.1.7-.3l3.8-5.3"></path><path fill="#797885" d="M131 184.1h-.2c-.2-.1-.3-.3-.3-.5l1-6.5c0-.1 0-.2-.1-.2l-5.3-3.8c-.2-.1-.3-.4-.2-.6.1-.2.3-.3.5-.3l6.5 1c.2 0 .2 0 .2-.1l3.9-5.3c.1-.2.4-.3.6-.2.2.1.3.3.3.5l-1 6.5c0 .1 0 .2.1.3l5.3 3.8c.2.1.3.4.2.6-.1.2-.3.3-.5.3l-6.5-1c-.1 0-.2 0-.3.1l-3.8 5.3s-.2.1-.4.1zm-2.6-10.8 3.6 2.6c.4.3.6.8.5 1.2l-.7 4.4 2.6-3.6c.3-.4.7-.6 1.2-.5l4.4.7-3.6-2.6c-.4-.3-.6-.8-.5-1.2l.7-4.4-2.6 3.6c-.2.4-.7.6-1.2.5l-4.4-.7z"></path><path fill="#fff" d="M471.1 481.7h-29v-8.2c.2 0 .3.1.5.1.5.1 1 .2 1.7.3.4 0 .8.1 1.3.1.4 0 .8.1 1.3.1 2.4.2 5.5.3 9.3.3 7.4 0 12.2-.5 14.4-1.1.1 0 .3-.1.4-.1h.1v8.5zM431.1 491.5c-.1 0-.3-.1-.3-.2-.9-2.1-2.3-3.4-4.3-4.1-.2-.1-.3-.3-.2-.4.1-.2.3-.3.4-.2 2.2.7 3.7 2.2 4.7 4.4.1.2 0 .4-.2.5h-.1zM435.9 488.9c-.1 0-.3-.1-.3-.2-.9-2.1-2.3-3.4-4.3-4.1-.2-.1-.3-.3-.2-.4.1-.2.3-.3.4-.2 2.2.7 3.7 2.2 4.7 4.4.1.2 0 .4-.2.5 0-.1 0 0-.1 0zM440.7 486.7c-.1 0-.3-.1-.3-.2-.7-2.2-2.4-4-4.3-4.7-.2-.1-.3-.3-.2-.4.1-.2.3-.3.4-.2 2.1.7 3.9 2.7 4.7 5.1.1.2 0 .4-.2.4h-.1zM458.3 497.8c-.2 0-.3-.1-.3-.3v-.1c-.3-5.6 4.5-10.4 10.7-10.8.8 0 1.6 0 2.4.1.2 0 .3.2.3.4s-.2.3-.4.3c-.8-.1-1.5-.1-2.3-.1-5.9.4-10.4 4.9-10.1 10v.1c0 .2-.1.3-.3.4zM548.4 462.7l-26.8 11-2.8-6.7-.4-1h.5c.6-.1 1.4-.2 2.2-.4.5-.1 1-.2 1.5-.4.5-.1.9-.3 1.4-.4 7.1-2.3 17.3-7.1 20.5-10.1l.3-.3.1-.1.4 1 1.3 3 .1.2 1.7 4.2zM515 487c-.1 0-.2 0-.2-.1-1.6-1.6-3.5-2.3-5.5-2.1-.2 0-.4-.1-.4-.3 0-.2.1-.4.3-.4 2.3-.1 4.2.6 6 2.3.1.1.1.4 0 .5 0 .1-.1.1-.2.1zM518.5 482.7c-.1 0-.2 0-.2-.1-1.6-1.6-3.4-2.3-5.5-2.1-.2 0-.4-.1-.4-.3 0-.2.1-.4.3-.4 2.3-.1 4.2.6 6 2.3.1.1.1.4 0 .5 0 .1-.1.1-.2.1zM522.1 478.9c-.1 0-.2 0-.3-.1-1.5-1.8-3.8-2.8-5.7-2.7-.2 0-.4-.1-.4-.3 0-.2.1-.4.3-.4 2.2-.1 4.6 1 6.3 2.9.1.1.1.4 0 .5 0 .1-.1.1-.2.1zM542.5 482.5c-.1 0-.3-.1-.3-.2v-.1c-1.2-2.4-1.2-5.2-.1-7.9 1.1-2.6 3.2-4.8 5.9-6.2.7-.3 1.4-.6 2.2-.8.2-.1.4.1.4.2 0 .2-.1.4-.2.4-.8.2-1.4.5-2.1.8-2.6 1.3-4.6 3.3-5.6 5.8s-1 5.1.1 7.3v.1c.1.2 0 .4-.2.5 0 0 0 .1-.1.1zM394.8 241.8c-.1.1-5.1 5-4.9 4.9-.1.1-5.2 5.2-7 6.9-.6-.2-1.4-.5-2-.9-2.8-1.4-5.8-3.6-8.9-6.5-5.7-5.5 5.6-12 5.6-12s-8.8-7.3-6.7-9.4c3.3-3.3 12.6 6.1 15.8 9.2-1.8-4 .4-5.2 2.5-4.9 2.2.4 2.4 5.2 4.3 9.5.3.7.6 1.3.8 2 0 .1.1.1.1.2.1.3.4 1 .4 1z"></path><path fill="#fff" d="m516.8 466-17.6-45.3-19.5-44.3-7.3 96.5c0 2.8-32.5 2.8-32.5 0l2.1-67.2 2.1-69.4v-1.2c.1.1.2.2.3.2h.2v.2l.1.1c.3.2.6.4 1 .6 1.7.6 4.6 1.5 8.6 2.5 1.1.2 2.3.4 3.6.5 19 2.4 50.1.1 59.2-5.7.4-.2.7-.5 1-.7.1-.1.2-.1.2-.2.1-.1.2-.1.2-.2l.1 1.3.1 2.4v.3l.1 2.1 4.9 56.5 22 58.3c1.8 3.1-27.3 16-28.9 12.7z"></path><path fill="#ffd857" d="M520.1 330.2c.5 11.8-77.1 14.6-77.5 2.8l6.2-59.7s-13 17.4-22.3 16.4c-13.1-1.4-45-35.3-45-35.3l14.1-14 26.8 19c1 .7 2.4.5 3.1-.6 4.5-6.6 19.8-28.9 25-34.1 12.5-12.7 54.8-16.2 67.7-1.8 12.2 13.6 2.8 41 2.2 54.2-.6 12.3-.3 53.1-.3 53.1z"></path><path fill="#fff" d="m479.7 376.4-3.8-20.7c-1.2.8-4 .8-5.2 0M459.2 416.7c-1.8 1.6-4.5 1.4-6.1-.5-1.5-1.9-1.3-4.6.5-6.2M511.6 404.9c-1.6 1.8-4.3 2-6.1.4-1.8-1.6-2-4.4-.4-6.2M509 169.1h-.8c-1.4-6.2-4.4-10.8-7.1-13.8-.5-.5-1-1.1-1.5-1.6 0-.1.1-.2.1-.3 4.3 2.8 8.8 6.5 9.3 15.7zM497.2 187.8s-4.5 20.7-1.2 26.2c0 0-3 13.8-15.2 13.6-12.1-.2-6.1-12.8-6.1-12.8s.7-7.7-.7-18.4l23.2-8.6z"></path><path fill="#fff" d="M487.5 204.5c-3.4 3.1-8 5.3-14.2 4.9-18.6-1.2-17.5-32.5-15.4-41.8 14.9-13 26.6-13.2 40.9 6.7 1.1 1.6 5.1.5 6.1 4.5.2.8 2 8.5-8.7 10.4M498.7 177.7s3.3.2 3.1 4.1"></path><path fill="#fcad88" d="M479.3 190.4c-.9.5-2 .4-2.4-.4-.4-.7 0-1.7 1-2.2.9-.5 2-.4 2.4.4.3.7-.1 1.7-1 2.2zM461.5 191.5c.9.6 2 .6 2.4-.1.5-.7.2-1.7-.7-2.3-.9-.6-2-.6-2.4.1-.5.6-.2 1.7.7 2.3z" opacity=".5"></path><path fill="#fff" d="M472.8 178.1c2.1-2 4.7-.6 6.2 1M461.3 177.5c2.1-2 4.7-.6 6.2 1M475.6 259.5c-.1.1-.2.3-.3.4-.3.3-.6.7-.8 1.1-.3.4-.5.8-.8 1.2-.3.4-.6.9-.9 1.4-4.2 6.5-5.3 10.5-5.3 10.6 0 .1 0 .1-.1.3l-1-.1c-.6-.1-.9-.1-1.6-.3-3.3-.8-6.3-1.8-10.7-4.3-7.1-4.1 2.7-13.3 2.7-13.3s-10.6-5.2-9-7.7c2.5-4.1 14.1 3 18 5.3-2.8-3.5-.8-5.3 1.3-5.5 2.3-.2 3.6 4.6 6.6 8.5.5.6.9 1.2 1.3 1.8.1.1.1.1.1.2.1.1.1.2.2.2s.2.1.3.2z"></path><path fill="#ffd857" d="m515.5 247.9-16.7 23.7-21.9-13.4c-1.7-1.3-12.2 16.6-10 18.3 0 0 21.3 18.9 32.2 18.1 3.7-.3 14.6-8.5 18.3-14.7"></path><path fill="#fff" d="m448.7 273.3 2.2-3M468.1 331.3c-.3 0-.5-.3-.5-.5 0-.3.3-.5.5-.5 3.9.3 7.9.5 11.8.4 1.6 0 3.2-.1 4.4-.9 1.5-.9 2.3-2.8 3.1-4.4 2.3-4.2 6-7.6 10.4-9.6s9.3-2.6 14-1.6c.3.1.4.3.4.6-.1.3-.3.4-.6.4-4.5-.9-9.3-.4-13.4 1.5-4.2 1.9-7.7 5.2-9.9 9.2-.9 1.7-1.8 3.6-3.5 4.7-1.5.9-3.2 1-4.9 1.1-3.7.1-7.8 0-11.8-.4zM477.9 319.9c-1.9 0-4-.8-5.5-1.9-2.5-1.8-4.5-4.4-6.9-6.1-3.4-2.3-7.9-2.9-11.8-1.5-.7.2-2.8 1.1-2.9 2.8 0 .3-.2.5-.5.5s-.5-.2-.5-.5c0-1.6 1.4-3 3.5-3.8 4.2-1.5 9-.9 12.7 1.7 2.6 1.8 4.5 4.4 6.9 6.1 2.3 1.6 5.7 2.5 7.9.7.2-.2.5-.2.7.1.2.2.2.5-.1.7-.9.9-2.2 1.2-3.5 1.2zM403.5 265.2c-1.6-1.7-2.8-3.8-4.1-5.7-1.1-1.6-2.6-3.6-4.7-4.7-1.7-.9-4.3-1.2-6 .3-.2.2-.5.1-.7-.1-.2-.2-.1-.5.1-.7 2.1-1.7 5.1-1.4 7.1-.4 2.3 1.2 3.9 3.3 5.1 5 1.3 1.9 2.4 4 4 5.6 1 1.1 3.1 2.9 5.7 2.8.3 0 .5.2.5.5s-.2.5-.5.5c-2.5.1-4.8-1.3-6.5-3.1zM501.8 326.7c-.3-2.1 1.8-4 4.8-4.4 3-.4 5.5.9 5.8 3 .3 2.4-2.3 4.1-4.8 4.5-2.5.2-5.5-.7-5.8-3.1zm4.9-3.5c-2.4.3-4.1 1.8-3.9 3.3.2 1.8 2.8 2.4 4.7 2.1 1.8-.2 4.1-1.5 3.9-3.3-.3-1.7-2.8-2.3-4.7-2.1zM504.1 300.2c-.6-1.7 1-3.4 2.8-4.1 1.8-.6 4.2-.4 4.8 1.4.6 1.7-1 3.4-2.8 4.1-1.8.6-4.2.3-4.8-1.4zm3.2-3.1c-1.2.4-2.7 1.6-2.2 2.8.4 1.2 2.3 1.2 3.5.8.8-.3 1.5-.8 1.9-1.3.4-.5.5-1 .3-1.5-.4-1.3-2.3-1.3-3.5-.8zM477.3 306c-.3-1.6 1.2-3.2 3.5-3.6 1.9-.3 4.2.3 4.5 2.1.3 1.6-1.2 3.2-3.5 3.6-1.9.4-4.2-.3-4.5-2.1zm3.6-2.6c-1.6.3-2.9 1.4-2.7 2.4.2 1.2 2 1.6 3.3 1.3 1.6-.3 2.9-1.4 2.7-2.4-.2-1.1-2-1.5-3.3-1.3zM455.8 295.8c-1.3-1.5-1.9-3.8-.5-5 1.2-1.1 3.4-.6 4.9 1.1 1.3 1.5 1.9 3.8.5 5-1.4 1.2-3.5.3-4.9-1.1zm.2-4.3c-.9.8-.3 2.6.6 3.5 1.1 1.2 2.7 1.7 3.4 1 .9-.8.3-2.6-.6-3.5-.8-.9-2.5-1.7-3.4-1zM454.9 330.9c-.3 0-.6 0-.9-.1-1.3-.2-2.5-.8-3.1-1.7-.4-.6-.6-1.2-.5-1.8.2-1.6 2.2-2.6 4.5-2.3 1.3.2 2.5.8 3.1 1.7.4.6.6 1.2.5 1.8-.2 1.4-1.7 2.4-3.6 2.4zm-.8-4.9c-1.4 0-2.5.6-2.6 1.5-.1.4.1.8.3 1.1.5.7 1.4 1.1 2.4 1.3 1.6.3 3.2-.4 3.3-1.4.1-.4-.1-.8-.3-1.1-.5-.6-1.4-1.1-2.4-1.3-.3-.1-.5-.1-.7-.1zm3.9 2.5zM489.5 254s-.1 0 0 0c-2 0-4.1-1.1-4.1-3 0-1.6 1.8-2.9 4.1-2.9 1.9 0 4 1.1 4 3 0 1.7-1.8 2.9-4 2.9zm-.1-4.8c-1.6 0-3 .8-3 1.9 0 1.2 1.7 1.9 3 2 1.7 0 3.1-.8 3.1-1.9 0-1.3-1.7-2-3.1-2 .1 0 0 0 0 0zM509.5 228.6c-2.7-1.6-4.9-5-3.4-7.5.3-.6 1.2-.1.9.5-1.2 2 .8 4.8 3.1 6.2 2.7 1.6 5.8 1.5 6.9-.3.1-.2.4-.3.7-.2.2.1.3.4.2.7-1.7 2.6-5.6 2.3-8.4.6zM453.3 228.4c-.1-.2-.1-.5.2-.7.2-.1.5-.1.7.2 1.1 1.8 4.1 1.9 6.9.3 1.7-1 2.9-2.5 3.3-3.9.2-.8.1-1.6-.2-2.2-.1-.2-.1-.5.2-.7.2-.1.5-.1.7.2 1.5 2.6-.6 5.9-3.4 7.5-2.9 1.6-6.9 1.8-8.4-.7z"></path><path fill="#ffd857" d="M427.7 289.8c-3.5-3.5-3.5-7.2-.5-11.1"></path><path fill="#fff" d="M433.5 269.1c-.2-.2-.1-.5.1-.7.2-.2.5-.1.7.1.6.8 1.8.8 2.5.3.8-.5 1.3-1.4 1.5-2.6.2-1 .1-2.1 0-3.4-.2-5.5 1.1-11.1 3.7-15.9.1-.2.4-.3.7-.2.2.1.3.4.2.7-2.6 4.7-3.8 10-3.6 15.4.1 1.3.1 2.5 0 3.6-.7 4.1-4.5 4.5-5.8 2.7zM482.1 296c-4.4-2.7-8.9-4.1-12.9-5.3-5.1-1.5-9.5-2.8-12.2-6.4-.2-.2-.1-.5.1-.7.2-.2.5-.1.7.1 2.5 3.3 6.7 4.6 11.7 6.1 4.1 1.2 8.7 2.6 13.2 5.4.2.1.3.5.2.7-.2.2-.5.2-.8.1zM116.1 246.8c-2.3-11.4-13.4-18.9-24.8-16.6-11.4 2.3-18.9 13.4-16.6 24.9l1.3 6.6.2 1c.1 0 6.6-1.3 6.2-1.2l.5-.1-.2-1-1.3-6.6c-1.5-7.7 3.5-15.3 11.2-16.8 7.7-1.5 15.3 3.5 16.8 11.2 0 .1 1.6 8.1 1.5 7.6 12.5-2.5 1.8-.4 6.7-1.3.1-.2-1.6-8.2-1.5-7.7z"></path><path fill="#fff" d="m122.9 255.3 7.7 38.6c.3 1.3-.6 2.5-1.9 2.8L82.3 306c-1.3.3-2.6-.6-2.8-1.9l-7.7-38.6c-.3-1.3.6-2.6 1.9-2.8l46.5-9.3c1.2-.2 2.5.6 2.7 1.9z"></path><path fill="#fff" d="m104.7 280.8 2.6 7.4-8.6 1.7-.4-7.9c-1.5-.7-2.6-2.1-3-3.8-.6-2.9 1.3-5.8 4.3-6.4 2.9-.6 5.8 1.3 6.3 4.3.4 1.7-.1 3.4-1.2 4.7zM539.8 134.5c-9 .3-16.5-6.7-16.8-15.7-.3-9 6.7-16.5 15.7-16.8 9-.3 16.5 6.7 16.8 15.7.3 9-6.8 16.5-15.7 16.8z"></path><path fill="#2f304c" d="M556 497.5h-48.6l37.8-15.6 9.8-4c.5-.2 1-.7 1.2-1.2.2-.6.1-1.2-.2-1.7l-7.3-12.8-3-7.2c.1-.1.2-.3.3-.4.4-.6.5-1.1.3-1.5l-22-58.3-4.9-56.4-.2-5.1.1-.1c.9-.9 1.4-1.9 1.4-3 0-.7-.4-41 .2-53.1.1-3.3.9-7.5 1.6-12 2.4-14.3 5.4-32.1-3.9-42.5-4.3-4.8-12.1-7.9-22.1-9.1-1.8-3.4-1-11.9 0-18.2 1.9.1 4-.2 5.9-1.4 3.9-2.2 6.1-7.1 6.6-14.4.3-3.8 0-7.1-.7-10.1 1.9.2 3.8 0 5.7-.7 6.6-2.2 10.1-8.7 8.1-14.7-2-5.9-8.6-9.2-15.4-6.9-3.3 1.1-6 3.3-7.5 6.2-4.8-4.5-10.8-7.3-16.4-7.5-6.8-.3-21.4 1.4-27.4 10.1-3.5 5-3.6 11.5-.3 19.2.1.3.5 2.4 1.3 5.2.1 8.1 1.5 17.5 6 23.5 2.8 3.7 6.5 5.8 11 6.1.4 0 .8 0 1.2.1 0 2-.1 3.5-.1 4.3-10.5 1.7-19.5 5.4-24.2 10.2-5.2 5.3-20.5 27.5-25.1 34.2-.3.4-.7.6-1.1.7-.5.1-.9 0-1.3-.3l-13.8-9.8V141.4c0-11.3-9.2-20.5-20.4-20.5H185.7c-11.3 0-20.5 9.2-20.5 20.5V478c0 9.1 6 16.8 14.2 19.5H123c1.1-.5 2.2-1.3 3-2.3 1.9-2.1 2.8-4.8 2.5-7.6l-4.1-30.9c0-.3-.3-.4-.5-.4h-3.5v-10.4c0-.3-.2-.5-.5-.5h-4c.5-1.6 1.9-5.8 4-6.9.7-.4 1.3-.6 1.9-.9 1.9-.8 3.6-1.5 5.6-5.2 1-1.9 1.5-3.4 1.8-4.6.6-1.9.9-3 2.6-4 1.2-.8 2.3-1 3.4-1.3 1.5-.3 2.9-.7 4.4-2.4 1.4-1.6 1.8-3.2 2.1-4.5.3-1.1.5-2 1.2-2.9.4-.4 1.1-1.1 1.9-1.8 2.4-2.1 5.8-5.1 5.8-7.6 0-.8-.3-1.6-1-2.2-3.5-3.3-11.4 3.5-12.8 4.7-7.9-1.7-13.1 1.1-16.1 8.7-2.3 5.6-8.8 4.7-10.4 4.3-.3-1.6-.5-2.9-.4-3.8.2-1.7.7-3.2 1.6-4.6.9-1.5 2.2-2.9 3.8-4.5 2.7-2.7 1.1-7.6 0-11.2-.4-1.3-.8-2.5-.8-3.1 0-.5.3-1.5.6-2.7.8-2.8 1.9-6.7.2-9.2-.8-1.2-2.3-2-4.2-2.2-6.7-.8-8.6 6.1-9.7 10.2-.4 1.3-.7 2.5-1 2.9-.3.4-1 1-1.7 1.6-2.7 2.3-7.1 6.2-6.4 11.8.3 2.3.9 4.2 1.4 5.9 1 3.4 1.6 5.5-.7 7.3-1.2 1-2.2 2.1-2.9 3.3-1.9-.6-4.1-.8-6-.9-1.4-.1-2.7-.2-3.6-.5-2-.5-3.7-3.8-5.2-6.9-.7-1.5-1.5-3-2.3-4.2-1.6-2.4-4.4-1.7-7.1-1-2.1.5-4.3 1.1-5.8.1-.3-.2-.7-.4-1.1-.6-3.9-2.3-8.7-5.3-10.8-2.2-.5.8-.7 1.7-.4 2.7.7 2.9 4.5 6 7.9 7.9 2.1 1.1 2.1 2.1 2.2 3.2.1 1.2.1 2.8 2.6 4.5 1.8 1.4 3.6 2.1 5.2 2.7 2.4 1 4.2 1.7 5.3 4.1.5 1.2.8 2.5 1 3.7.6 2.9 1.1 5.7 5.6 6.8 4.5 1.1 6.1 4.1 6.6 5.5H81c-.3 0-.5.2-.5.5v10.4h-4.4c-.3 0-.5.2-.5.4l-4.1 30.9c-.3 2.8.6 5.5 2.5 7.6.9 1 1.9 1.7 3 2.3H44c-.3 0-.5.2-.5.5s.2.5.5.5h512c.3 0 .5-.2.5-.5s-.2-.5-.5-.5zm-432.4-40.3.7 5.1h-3.7v-5.1h3zm-1.6-42.5c2.9-7.2 7.7-9.8 15.2-8.1.2 0 .3 0 .5-.1 2.4-2.2 9-7.4 11.6-4.9.5.4.7.9.7 1.5 0 2.1-3.3 5-5.5 6.9-.9.8-1.6 1.4-2 1.9-.8 1-1.1 2.1-1.4 3.3-.3 1.3-.7 2.7-1.9 4.1-1.3 1.4-2.5 1.7-3.9 2-1.1.3-2.3.5-3.7 1.4-2 1.3-2.5 2.7-3.1 4.6-.4 1.2-.8 2.6-1.8 4.4-1.8 3.4-3.3 4-5.1 4.8-.6.3-1.3.6-2 1-2.7 1.4-4.2 6.4-4.6 7.8h-6.1c-.6-1.5-3-8.7.5-13.3 2.9-3.7 2.2-8.4 1.5-12.3 2.2.4 8.7.9 11.1-5zm-28.1 3.1c2.8-2.3 2-5 1-8.4-.5-1.7-1.1-3.5-1.4-5.7-.7-5 3.4-8.6 6.1-10.9.8-.7 1.5-1.3 1.9-1.8.5-.6.8-1.8 1.2-3.3 1.1-4.1 2.8-10.2 8.6-9.5 1.7.2 2.8.8 3.5 1.8 1.4 2.1.4 5.8-.3 8.4-.4 1.3-.6 2.3-.6 3 0 .8.4 1.9.8 3.4.7 2.1 1.4 4.6 1.4 6.7 0 1.4-.3 2.6-1.2 3.4-3.4 3.4-5.4 6-5.7 9.7-.1 1.1.1 2.6.5 4.4v.2c.1.7.3 1.5.4 2.3.5 3.3.7 7-1.6 9.8-.4.5-.7 1.1-1 1.6-.8 1.6-1.1 3.3-1.1 5-.1 3.1.8 6 1.3 7.3h-7.2c.5-2.6 1.7-12.9-6.6-22.7-.7-.9-1.7-1.5-2.7-1.9.8-.9 1.6-1.9 2.7-2.8zm-16 21.1c-3.9-.9-4.3-3.2-4.9-6-.3-1.3-.5-2.6-1.1-3.9-1.3-2.7-3.4-3.6-5.9-4.6-1.5-.6-3.3-1.4-5-2.6-2.1-1.5-2.1-2.6-2.2-3.8-.1-1.3-.1-2.6-2.7-4.1-3.3-1.8-6.8-4.8-7.4-7.3-.2-.7-.1-1.4.3-1.9 1.6-2.3 6.1.5 9.5 2.5.4.2.7.4 1.1.6 1.9 1.1 4.3.5 6.6 0 2.6-.6 4.8-1.2 6 .6.8 1.2 1.5 2.6 2.2 4.1 1.7 3.3 3.4 6.8 5.8 7.4 1 .3 2.4.4 3.8.5 1.8.1 3.8.3 5.6.8.3.1.6.2.9.4 1 .4 1.8.9 2.5 1.7 8.2 9.8 6.8 20 6.4 22.1H85.3c-.4-1.3-2-5.3-7.4-6.5zm3.6 7.4h38.1v17c-.4 8.8-7.7 15.9-16.6 15.9h-4.9c-8.9 0-16.2-7-16.6-15.9v-17zm-5 10.9h4v5.1h-4.6l.6-5.1zm-1.8 37.3c-1.7-1.9-2.5-4.4-2.2-6.8l3.2-24.3h4.8c.4 9.4 8.1 16.9 17.6 16.9h4.9c9.5 0 17.2-7.5 17.6-16.9h3.9l3.2 24.3c.3 2.5-.6 5-2.2 6.9-1.7 1.8-4 2.9-6.5 2.9H81.2c-2.5-.1-4.8-1.1-6.5-3zm334.1-214c6.7 5.2 13.1 9.3 17.6 9.7 8.1.9 18.4-11.1 21.7-15.3l-6 58c0 1 .6 2 1.6 2.8v.1l-2.1 69.8-2.1 67.2c0 .5.3 1 2.2 1.5v3.7c-2.1 1.1-11.6 6.3-17.8 9.8l-1.2.7c-1.1.6-2.1 1.2-2.9 1.6-2.4 1.4-3.5 3.4-3.5 6.1 0 .5.2.9.5 1.3h-22.2c8.2-2.7 14.2-10.4 14.2-19.5V280.5zm40.5 194.8c5.6 1.4 11.6 2 17.8 2 1.1 0 2.3 0 3.5-.1v2.1c-10.1 1.8-20.4 2.8-28-1.4v-3.4c.6.1 1.4.2 2.4.4 1.2.2 2.7.3 4.3.4zm24.1 20.6-1.8-14.6v-7.2c.8-.3 1.3-.7 1.3-1.2l7.1-94.5 18.7 42.5 17.6 45.3c.2.5.8.8 1.6.8h.5l1.4 3.5c-1.5 1.8-8.3 10.2-12.8 15.8l-.9 1.1c-.8 1-1.5 1.9-2 2.6-1.7 2.2-2 4.5-.9 7 .1.2.2.3.3.5H473c.3-.5.5-1 .4-1.6zm53.4-31h.1c6.4-1.1 12.9-3.1 19.4-6.1l.8 1.9c-8.7 5.5-17.8 10.3-26.4 9.4l-1.3-3.2c1.8-.2 4.5-.9 7.4-2zm-3.5-70v.1l22.1 58.4c0 .1 0 .3-.2.5v.1l-.2.2-.1.1-.1.1-.3.3c-3.2 3-13.4 7.8-20.5 10.1-.5.2-1 .3-1.4.4-.5.1-1 .3-1.5.4-.8.2-1.6.3-2.2.4h-1.1c-.4 0-.6-.1-.7-.2l-17.6-45.3-19.4-44.1v-.1l-3.8-20.7c0-.2-.1-.3-.3-.4-.2-.1-.3 0-.5 0-1.1.7-3.6.7-4.7 0-.2-.2-.5-.1-.7.1-.2.2-.1.5.1.7 1.2.8 3.6.9 5.2.3l3.6 19.8v.1l-7.3 96.5c0 .1-.1.2-.3.2h-.1c-.1 0-.2.1-.3.1H470.7c-.1 0-.3.1-.4.1-2.2.5-7 1.1-14.4 1.1-3.8 0-6.9-.1-9.3-.3-.5 0-.9-.1-1.3-.1-.5 0-.9-.1-1.3-.1-.6-.1-1.2-.2-1.7-.3-.2 0-.3-.1-.5-.1s-.3-.1-.5-.1c-.7-.2-1.1-.4-1.2-.5l2.1-67.2 2.1-69.1h.1c.2.1.5.3.7.4 3.6 1.9 10 3.1 17.6 3.6 5.9 1 12.9 1.8 20.5 1.8 10.7 0 22.7-1.5 34.9-5.9l.1 2 5.1 56.6zm-47.8-185c4.7-.1 8.9-1.8 12.4-5.1.2-.2.2-.5 0-.7-.2-.2-.5-.2-.7 0-3.3 3.1-7.2 4.6-11.7 4.8h-1c-.4 0-.8 0-1.2-.1-4.2-.3-7.7-2.2-10.3-5.7-5.8-7.7-6.4-22-5.4-31 7.8 1.9 26.3-3.6 30.2-4.8 0 9.5 7.5 12.8 7.5 12.9h.2c.1 0 .2 0 .3-.1.1-.1.2-.3.2-.5-.1-.8 1.9-3 3.4-4.3.4.2.8.3 1.2.4 1.5.4 3.1.9 3.6 3 .4 1.7 1.1 7.3-6.6 9.4-.2.1-1.6.4-1.7.4-.6.1-.6 1.2.4.9-1.1 5.5-3.2 18.6-1.1 23.9.1.2.2.5.3.7 0 .1-.1.2-.1.4-.7 2.5-4.2 12.7-14.3 12.7h-.2c-3.1-.1-5.2-.9-6.3-2.7-2.1-3.3.3-8.8.6-9.4V214.7s0-.3.1-.8c.1-.7.2-2.1.2-4zm-53.5 50c.6.4 1.3.6 2.1.5.7-.1 1.3-.5 1.8-1.1 4.5-6.7 19.8-28.8 25-34.1 4.5-4.6 13.1-8.1 23.2-9.8-.7 1.8-2.3 6.5-.3 9.7 1.3 2 3.6 3.1 7.1 3.1h.3c11 0 14.6-11.2 15.3-13.6 9.7 1.1 17.3 4.2 21.3 8.7 9 10 6.1 27.6 3.7 41.7-.8 4.7-1.5 8.8-1.6 12.1-.6 12.1-.2 52.7-.2 53.1 0 .5-.1 1-.4 1.4 0 0 0 .1-.1.1v-.1c-.1.1-.2.2-.2.3-.1.1-.1.2-.2.3-.1.1-.1.2-.2.2l-.2.2c-.3.2-.6.5-.9.7-9.1 5.8-40.2 8.1-59.2 5.7-1.3-.2-2.5-.3-3.6-.5-4-1-6.9-1.9-8.6-2.5-.4-.2-.7-.4-1-.6 0 0-.1 0-.1-.1v-.2h-.2c-.1-.1-.2-.2-.3-.2l-.5-.5c-.4-.5-.6-1-.7-1.5l6.1-59.5 2.1-2.9c.2-.2.1-.5-.1-.7-.2-.2-.5-.1-.7.1l-2.2 3c-.3.4-11.7 15.4-20.4 16.2-3.1-3.2-3.2-6.5-.3-10.3.2-.2.1-.5-.1-.7-.2-.2-.5-.1-.7.1-3 3.9-3 7.6-.2 10.9h-.1c-4.4-.5-10.9-4.7-17.7-10-.3-.3-.7-.5-1-.8-4.2-3.3-8.3-7.1-12.1-10.6-.3-.3-.7-.6-1-.9-6.3-5.9-11.3-11.1-12.6-12.4l12.3-12.3 1.1-1.1c18.6 13.2 9.7 6.9 12.2 8.7l1 .7 13.1 9.5zm-33.7 224.4H194.9c-3.2-.3-5.7-3-5.7-6.3v-81.9c11.7 14.5 24.8 24.1 49.7 24.1h155.8V478c0 3.2-2.4 5.8-5.5 6.3h-.9zm6.4-65.1H238.9c-25.1 0-38-9.9-49.7-24.7V141.4c0-3.5 2.8-6.3 6.3-6.3h64.2v6.4c0 5.8 4.7 10.5 10.5 10.5h43.5c5.8 0 10.5-4.7 10.5-10.5v-6.4h64.2c3.5 0 6.4 2.8 6.4 6.3v98.8c-1-2.5-1.2-2.4-2.2-6.2-.8-2.8-1.4-4.9-3.1-5.2-2.4-.4-4.1 1-3.7 3.6-4.3-4.1-11.8-11-15-7.8-.3.3-.5.8-.5 1.3.1 2.5 5 6.9 6.7 8.4-1.7 1.1-6.4 4.4-6.8 8.1-.2 1.6.4 3 1.7 4.3 3.1 2.9 6.2 5.1 9.2 6.6l.6.3-.4.4c-.2.2-.2.5 0 .7.6.6 6.2 6.6 13.6 13.5v151zM378 234c-1.9-1.6-6.8-6.1-6.9-8.1 0-.3.1-.4.2-.5.4-.4.9-.6 1.4-.6 3.7 0 10.9 7 13.6 9.6.5 1.3 1.2 2.5 2.1 3.8.2.2.5.3.7.1.2-.2.3-.5.1-.7-1.4-1.9-1.7-3-2-3.7-.7-1.6-.8-2.8-.3-3.5.4-.6 1.3-.8 2.2-.7 1.1.2 1.7 2.2 2.3 4.5 1.3 4.5 1.5 4.2 2.5 6.8-3.8 2.5-8 6.2-12.7 11.3-2.9-1.4-5.9-3.6-8.9-6.4-1.1-1.1-1.6-2.2-1.4-3.5.5-4 6.9-7.7 6.9-7.7.1-.1.2-.2.3-.4.1 0 0-.2-.1-.3zm10.3-112.1c10.7 0 19.4 8.7 19.4 19.5v107.2c-12.5-8.9-12-8.6-12.1-8.6v-98.6c0-4-3.3-7.3-7.4-7.3h-64.7c-.3 0-.5.2-.5.5v6.9c0 5.2-4.3 9.5-9.5 9.5H270c-5.2 0-9.5-4.3-9.5-9.5v-6.9c0-.3-.2-.5-.5-.5h-64.7c-4.1 0-7.3 3.3-7.3 7.3V478c0 3.8 2.9 6.9 6.6 7.3H388.2c.4 0 .8 0 1.2-.1 3.5-.6 6.1-3.6 6.1-7.2V269.2c3.8 3.5 8 7.2 12.1 10.5V478c0 10.7-8.7 19.5-19.4 19.5H195.5c-10.7 0-19.5-8.7-19.5-19.5V141.4c0-10.6 8.6-19.3 19.1-19.5H388.3zM166.3 478V141.4c0-10.7 8.7-19.5 19.5-19.5h3.4c-8.2 2.7-14.1 10.4-14.1 19.5V478c0 9.1 6 16.8 14.2 19.5h-3.5c-10.8-.1-19.5-8.8-19.5-19.5z"></path><path fill="#2f304c" d="M272.1 144.7c1.8 0 3.2-1.4 3.2-3.2 0-1.8-1.4-3.2-3.2-3.2-1.8 0-3.2 1.4-3.2 3.2 0 1.8 1.4 3.2 3.2 3.2zm0-5.4c1.2 0 2.2 1 2.2 2.2 0 1.2-1 2.2-2.2 2.2-1.2 0-2.2-1-2.2-2.2 0-1.2 1-2.2 2.2-2.2zM282.1 142h29.3c.3 0 .5-.2.5-.5s-.2-.5-.5-.5h-29.3c-.3 0-.5.2-.5.5s.2.5.5.5zM375.2 433.2h-28.1c-1.6 0-2.9 1.3-2.9 2.8v29.5c0 1.6 1.3 2.9 2.9 2.9h28.1c1.6 0 2.9-1.3 2.9-2.9V436c0-1.6-1.3-2.8-2.9-2.8zm1.9 32.3c0 1-.8 1.9-1.9 1.9h-28.1c-1 0-1.9-.8-1.9-1.9V436c0-1 .8-1.8 1.9-1.8h28.1c1 0 1.9.8 1.9 1.8v29.5zM307.4 433.2h-28.1c-1.6 0-2.9 1.3-2.9 2.8v29.5c0 1.6 1.3 2.9 2.9 2.9h28.1c1.6 0 2.9-1.3 2.9-2.9V436c0-1.6-1.3-2.8-2.9-2.8zm1.9 32.3c0 1-.8 1.9-1.9 1.9h-28.1c-1 0-1.9-.8-1.9-1.9V436c0-1 .8-1.8 1.9-1.8h28.1c1 0 1.9.8 1.9 1.8v29.5zM239.6 433.2h-28.1c-1.6 0-2.9 1.3-2.9 2.8v29.5c0 1.6 1.3 2.9 2.9 2.9h28.1c1.6 0 2.8-1.3 2.8-2.9V436c.1-1.6-1.2-2.8-2.8-2.8zm1.9 32.3c0 1-.8 1.9-1.8 1.9h-28.1c-1 0-1.9-.8-1.9-1.9V436c0-1 .8-1.8 1.9-1.8h28.1c1 0 1.8.8 1.8 1.8v29.5zM170.1 160.1c-.3 0-.5.2-.5.5v20.7c0 .3.2.5.5.5s.5-.2.5-.5v-20.7c0-.2-.3-.5-.5-.5zM170.1 190.3c-.3 0-.5.2-.5.5v20.7c0 .3.2.5.5.5s.5-.2.5-.5v-20.7c0-.2-.3-.5-.5-.5zM262.1 273.5c20 11.7 45.7 8.8 62.6-7.9 12.8-9.5 21.2-24.7 21.2-41.9 0-28.7-23.3-52-52-52-14.2 0-27 5.7-36.4 14.9-12.8 9.5-21.2 24.7-21.2 41.9 0 18.5 9.9 35.7 25.8 45zm52.6-50.2-.1.1c-.8-2.6-1.9-5.2-3.3-7.6l-1.2-2.3 1.6-2c.2-.2.1-.5-.1-.7-.2-.2-.5-.1-.7.1l-1.8 2.2c-9.7 10.3-28.2 9.1-29.5 9l-3.7-1.6c-.3-.1-.5 0-.7.3-.1.3 0 .5.3.7l3.5 1.5c0 1.7-.1 9 .3 12.7-1.8-1.4-5.6-3.8-8.4-2.3-1.7.9-3.1 2-3.9 3.2-2.1-3.4-10.3-17.9-4.9-24.3 3.8-4.4 10.2-5.7 15.4-6.7 3.8-.7 6.8-1.3 8.1-2.9.3-.3.6-.7 1-1.2 3.8-4.6 12.7-15.4 24.3-11.5 7.4 2.5 13 8.9 13 16.5-.2 5.8-3.3 11.7-9.2 16.8zm-47.6 14.9c.1-.2.1-.3.2-.4.1-.1.2-.3.3-.4.9-1.4 2.4-2.4 3.7-3.1 3.1-1.6 8.3 3 8.3 3 .2.1.4.2.6.1.2-.1.3-.3.2-.5-.6-2.5-.5-11.4-.5-13.6 3.2.2 19.9.7 29.4-8.8l1.1 2c3.2 5.9 5 12.4 5.2 19 .3 11.3-1.3 25.2-11.1 27.5-4 .8-7.3.5-9.9-.4-.2-.1-.4-.1-.7-.3-.2-.1-.5-.2-.7-.3-2.4-1.1-4.3-2.7-5.9-4.2-.2-.2-.5-.2-.7 0s-.2.5 0 .7c1.8 1.8 4 3.6 7 4.8l-4.1 11.2c-6.3-.1-12.4-2.1-18.1-4.8-.2-.1-.5-.2-.7-.3.3-1-1.5 5.2 5.9-19.9.1-.4-.3-.7-.6-.6-2 .5-3.8.2-5.4-.8-2.2-1.4-3.5-4-3.9-5.9-.3-1.7-.1-2.9.4-4zm26.8-65.4c28.1 0 51 22.9 51 51 0 16.9-8.4 32.1-20.9 41.1-10.2 7.5-22.8 10.7-33.6 9.7l4.1-11.2c2.8.9 6.1 1.2 10.2.4 10.4-2.5 12.2-16.9 11.8-28.5-.1-3.6-.7-7.3-1.7-10.8.2-.1.3-.3.5-.4 7.3-6.3 10.5-13.7 9.1-20.8-1.3-6.4-6.4-11.9-13.4-14.3-12.2-4.1-21.4 7.1-25.4 11.8-.4.5-.7.9-1 1.2-1.1 1.3-4.1 1.9-7.5 2.5-5.3 1.1-12 2.4-15.9 7-6.2 7.3 3.5 23.3 5.1 25.9-.7 1.4-.9 3-.6 4.6.6 2.8 2.2 5.2 4.3 6.5 1.6 1 3.3 1.3 5.3 1l-5.6 18.9c-.5-.3-1-.5-1.5-.8-15.6-9.1-25.3-26-25.3-44.1 0-14.2 5.8-27.1 15.2-36.3.9-.9 1.8-1.7 2.7-2.5.8-.7 1.7-1.4 2.6-2.1 8.6-6.1 19.1-9.8 30.5-9.8z"></path><path fill="#2f304c" d="M270.1 243.6c.3 0 .5-.2.5-.5.1-2.3 1.5-3.7 4.4-4.1.3 0 .5-.3.4-.6 0-.3-.3-.5-.6-.4-3.4.5-5.2 2.2-5.3 5 .1.3.3.6.6.6zM306.9 242.9c0 .7-.6 1.3-1.4 1.3h-4.9c-.3 0-.5.2-.5.5s.2.5.5.5h4.9c1.3 0 2.4-1 2.4-2.3 0-4.2-.7-8-2.3-11.8-.1-.3-.4-.4-.7-.3-.3.1-.4.4-.3.7 1.6 3.7 2.4 7.4 2.3 11.4zM296.4 231.2l5.2-1.6c.3-.1.4-.4.3-.6-.1-.3-.4-.4-.6-.3l-5.2 1.6c-.3.1-.4.4-.3.6.1.2.4.4.6.3zM301.6 234.2l-2.3.7c-.3.1-.4.4-.3.6.1.3.4.4.6.3l2.3-.7c.3-.1.4-.4.3-.6 0-.2-.3-.4-.6-.3zM312.6 234.3l-2.3-.7c-.3-.1-.5.1-.6.3-.1.3.1.5.3.6l2.3.7h.2c.2 0 .4-.1.5-.3 0-.2-.1-.5-.4-.6zM308.6 230l4.6.8c.3 0 .5-.1.6-.4 0-.3-.1-.5-.4-.6l-4.6-.8c-.3 0-.5.1-.6.4s.1.6.4.6zM309.3 251.2c-3.8.8-9.9-2.8-10-2.8-.2-.1-.5-.1-.7.2s-.1.5.2.7c2.8 1.6 7.5 3.6 10.7 2.9.3-.1.4-.3.4-.6s-.3-.5-.6-.4zM304.5 254.5c-1.1 0-2.3-.4-3.7-1.2-.2-.1-.5-.1-.7.2-.1.2-.1.5.2.7 1.3.7 2.7 1.3 4.2 1.3.3 0 .5-.2.5-.5s-.2-.5-.5-.5zM364.7 307.4H221c-5.9 0-10.8 3.4-13.1 8.1-1.8 2.4-2.9 5.3-2.9 8.5 0 7.8 6.3 14 14 14h143.7c3.7 0 7.1-1.5 9.6-3.8 4.1-2.6 6.8-7.1 6.8-12.3.1-8-6.4-14.5-14.4-14.5zm10.8 22.7c-2.5 3.3-6.4 5.4-10.8 5.4H221c-7.5 0-13.5-6.1-13.5-13.6s6.1-13.5 13.5-13.5h143.7c7.5 0 13.5 6.1 13.5 13.5 0 3.1-1 5.9-2.7 8.2zM364.7 354.2H221c-5.8 0-10.7 3.4-13.1 8.1-1.8 2.4-2.9 5.3-2.9 8.5 0 7.8 6.3 14 14 14h143.7c3.7 0 7.1-1.5 9.6-3.8 4.1-2.6 6.8-7.1 6.8-12.3.1-8-6.4-14.5-14.4-14.5zm10.8 22.7c-2.5 3.3-6.4 5.4-10.8 5.4H221c-7.5 0-13.5-6.1-13.5-13.6s6.1-13.5 13.5-13.5h143.7c7.5 0 13.5 6.1 13.5 13.5 0 3.1-1 5.9-2.7 8.2zM100.5 469.3c3.6 0 6.5-2.9 6.5-6.5s-2.9-6.5-6.5-6.5-6.5 2.9-6.5 6.5 2.9 6.5 6.5 6.5zm0-12c3 0 5.5 2.5 5.5 5.5s-2.5 5.5-5.5 5.5-5.5-2.5-5.5-5.5 2.5-5.5 5.5-5.5zM57.9 156.8c.3 0 .5-.2.5-.5 0-.1-.2-10 6.5-20.6 6.1-9.7 19.4-21.9 47.8-25.6l-6.6 7.8c-.2.2-.2.5.1.7.1.1.2.1.3.1.1 0 .3-.1.4-.2l7.5-8.8c0-.1.1-.1.1-.2V109.2s0-.1-.1-.1c0 0 0-.1-.1-.1 0 0-.1 0-.1-.1l-10.5-4.9c-.3-.1-.5 0-.7.2-.1.3 0 .5.2.7l9 4.2c-28.6 3.9-42 16.3-48.2 26.1-6.9 10.9-6.7 21.1-6.7 21.2.1.2.3.4.6.4zM458.9 416.3c-.8.7-1.8 1-2.8.9-1-.1-1.9-.6-2.6-1.4-1.4-1.6-1.2-4.1.4-5.5.2-.2.2-.5 0-.7-.2-.2-.5-.2-.7 0-2 1.7-2.3 4.9-.6 6.9.8 1 2 1.6 3.3 1.7h.4c1.1 0 2.2-.4 3.1-1.2.2-.2.2-.5 0-.7 0-.1-.3-.1-.5 0zM511.2 404.5c-.7.8-1.6 1.2-2.6 1.3-1 .1-2-.3-2.7-1-1.6-1.4-1.7-3.9-.4-5.5.2-.2.2-.5-.1-.7-.2-.2-.5-.2-.7.1-1.7 2-1.5 5.1.4 6.9.9.8 2 1.2 3.2 1.2h.3c1.3-.1 2.4-.7 3.3-1.7.2-.2.2-.5-.1-.7-.1-.1-.4-.1-.6.1zM498.7 178c.1 0 3.1.2 2.9 3.8 0 .1.1.3.2.3s.2-.1.3-.2c.2-4.1-3.3-4.4-3.4-4.4-.1 0-.3.1-.3.2.1.2.2.3.3.3zM472.6 177.8c-.1.1-.2.4 0 .5.1.1.4.2.5 0 2.2-2.1 4.9.2 5.7 1 .3.3.9-.2.5-.5-1.8-1.8-4.6-3-6.7-1zM477.1 182.2c.1-1.1-.7-2.1-1.6-2.1-1-.1-1.8.8-1.9 1.9-.1 1.1.7 2.1 1.6 2.1 1 .1 1.9-.8 1.9-1.9zM467.2 178.8c.1.1.4.1.5 0 .1-.1.1-.4 0-.5-1.9-1.9-4.6-3.1-6.8-1-.1.1-.2.4 0 .5.1.1.4.2.5 0 2.3-2.2 5.1.2 5.8 1zM463.9 179.4c-1-.1-1.8.8-1.9 1.9-.1 1.1.7 2.1 1.6 2.1 1 .1 1.8-.8 1.9-1.9.1-1.1-.6-2-1.6-2.1zM478 195.7c0-.2-.2-.4-.4-.3l-9.5 2c-.1 0-.2.1-.3.2-.1.1-.1.2 0 .3 1.4 2.8 4.2 4.2 6.6 3.7 2.6-.5 4.1-3 3.6-5.9zm-3.7 5.2c-2 .4-4.3-.8-5.5-2.9l8.6-1.8c.1 2.4-1.1 4.3-3.1 4.7zM479.2 201.9c-.2-.1-.4 0-.5.2-.5 1.1-1.6 1.6-3 1.4-.2 0-.4.1-.4.3 0 .2.1.4.3.4h.7c1.4 0 2.6-.7 3.1-1.9 0-.1-.1-.3-.2-.4zM468.9 193c.5-.2.2-.9-.3-.7-.6.2-1.4-.3-1.6-.9-.3-.9.1-1.8.3-2.3.4-.8 1-1.5 1.5-2.2 1.2-1.8 1.6-4.1 1.3-6.3 0-.2-.2-.4-.4-.3-.2 0-.3.2-.3.4.3 2-.1 4.1-1.2 5.8-.5.8-1.1 1.4-1.5 2.3-.5 1-.7 2-.4 2.9.3.8 1.1 1.5 2 1.5.2-.1.4-.1.6-.2zM455.8 256.5c-1.4 1.5-5.3 5.9-4.9 9.8.2 1.6 1.1 2.9 2.8 3.9 3.8 2.2 7.4 3.6 10.8 4.4.8.2 1.1.2 1.6.3-.2 1-.1 1.8.3 2.1.9.8 20.7 18.3 31.9 18.3h.7c3.9-.3 15-8.6 18.7-14.9.1-.2.1-.5-.2-.7s-.5-.1-.7.2c-3.6 6.2-14 13.8-17.6 14.4-2-2.9-1.9-5.6.2-8.6.2-.2.1-.5-.1-.7-.2-.2-.5-.1-.7.1-2.2 3.1-2.4 6.2-.5 9.3-10.8-.2-30.8-17.8-31-18 0 0-.2-.2 0-1.2 0 0 0 .1.1-.5.1-.2.1-.2.1-.3v-.2c.9-3 3.2-7.2 5.3-10.4.3-.5.6-1 .9-1.4.3-.4.6-.8.8-1.2.3-.4.6-.8.8-1.1.1-.1.2-.3.3-.4.1-.1.2-.3.3-.4.3-.3.5-.4.7-.5l21.9 13.4c.2.1.5.1.7-.1l16.7-23.7c.2-.2.1-.5-.1-.7-.2-.2-.5-.1-.7.1L498.6 271l-21.5-13.1c-.4-.3-1-.2-1.8.5-.4-.6-.9-1.2-1.3-1.8-1.1-1.4-1.9-2.9-2.7-4.3-1.5-2.5-2.6-4.5-4.4-4.4-1.4.1-2.5.8-2.9 1.8-.3.6-.4 1.5.2 2.7-5.3-3-14.5-8.1-16.9-4.1-.3.4-.3.9-.2 1.4.7 2.5 6.7 5.7 8.7 6.8zm-7.7-7.6c2.1-3.4 12.6 2.7 16.6 5l.6.4c.8 1.2 1.8 2.2 3.1 3.3.1.1.2.1.3.1.1 0 .3-.1.4-.2.2-.2.2-.5-.1-.7-1.2-1-2.2-2.1-2.9-3.2-1.1-1.4-1.5-2.6-1.1-3.4.3-.7 1.1-1.1 2.1-1.2 1.1-.1 2.2 1.8 3.4 3.9.8 1.4 1.7 2.9 2.8 4.4.5.6.9 1.2 1.4 1.8-3.3 3.4-6.5 8.1-9.9 14.4-3.2-.7-6.8-2.2-10.4-4.3-1.4-.8-2.1-1.8-2.3-3.1-.5-4.1 5-9.4 5.1-9.4.1-.1.2-.3.1-.4 0-.2-.1-.3-.3-.4-2.3-1.1-8.3-4.4-8.8-6.5-.2-.3-.2-.4-.1-.5zM476.8 237.2c1.3.2 2.7.3 4.1.3 5.8 0 11.8-1.9 16.2-5.4.2-.2.3-.5.1-.7-.2-.2-.5-.3-.7-.1-5.3 4.1-12.9 6-19.5 4.8-3.9-.7-6.9-2.3-8.4-4.7-.1-.2-.5-.3-.7-.2-.2.1-.3.5-.2.7 1.7 2.8 4.9 4.6 9.1 5.3zM91.2 229.8c-11.7 2.3-19.3 13.8-16.9 25.4l1.3 6.7-2.1.4c-1.6.3-2.6 1.9-2.3 3.4l7.7 38.6c.3 1.6 1.9 2.6 3.4 2.3l46.5-9.3c1.6-.3 2.6-1.8 2.3-3.4l-7.7-38.6c-.3-1.6-1.8-2.6-3.4-2.3l-2.1.4-1.3-6.6c-2.3-11.8-13.7-19.4-25.4-17zm29 24.1c1.2-.2 2 .6 2.2 1.5l7.7 38.6c.2 1-.5 2-1.5 2.2l-46.5 9.3c-1.1.2-2-.5-2.2-1.5l-7.7-38.6c-.2-1 .4-2 1.5-2.2.1 0 2.7-.5 2.6-.5.1 0 6.6-1.3 6.2-1.2.1 0 1.1-.2 1-.2 0 0 36.8-7.4 36.7-7.4zm-38.3-.2c-1.5-7.4 3.3-14.7 10.8-16.2 7.5-1.5 14.7 3.4 16.2 10.8l1.3 6.6-27.1 5.4-1.2-6.6zm35.1-.1-5.7 1.1-1.3-6.6c-1.6-8-9.4-13.2-17.4-11.6-8 1.6-13.2 9.4-11.6 17.4l1.3 6.6-5.7 1.1-1.3-6.7c-2.2-11.1 5-22 16.2-24.3 10.9-2.2 22 4.8 24.3 16.2l1.2 6.8z"></path><path fill="#2f304c" d="M105.3 280.9c1.1-1.4 1.5-3.2 1.2-4.9-.6-3.2-3.7-5.3-6.9-4.7-3.2.6-5.3 3.8-4.6 7 .3 1.7 1.4 3.2 3 4l.4 7.6c0 .3.3.5.6.5l8.6-1.7c.3-.1.5-.4.4-.7l-2.7-7.1zm-6 8.4-.4-7.4c0-.2-.1-.3-.3-.4-1.4-.6-2.4-1.9-2.7-3.4-.5-2.7 1.2-5.3 3.9-5.8s5.2 1.2 5.7 3.9c.3 1.5-.1 3.1-1.2 4.3-.1.1-.2.3-.1.5l2.4 6.9-7.3 1.4zM539.8 135c9.3-.3 16.5-8 16.2-17.3-.3-9.2-8-16.5-17.3-16.2-9.2.3-16.5 8.1-16.2 17.3.3 9.2 7.9 16.5 17.3 16.2zm-1.1-32.5c8.7-.3 16 6.5 16.3 15.2.3 8.7-6.5 16-15.2 16.3-8.7.3-16-6.5-16.3-15.2-.3-8.7 6.5-16 15.2-16.3z"></path><path fill="#2f304c" d="M536.3 123.5c.2.2.5.2.7 0l9.3-9.8c.2-.2.2-.5 0-.7-.2-.2-.5-.2-.7 0l-8.9 9.4-3.9-3.7c-.2-.2-.5-.2-.7 0-.2.2-.2.5 0 .7l4.2 4.1z"></path><path fill="#fff" d="M431.1 491.5c-.1 0-.3-.1-.3-.2-.9-2.1-2.3-3.4-4.3-4.1-.2-.1-.3-.3-.2-.4.1-.2.3-.3.4-.2 2.2.7 3.7 2.2 4.7 4.4.1.2 0 .4-.2.5h-.1zM435.9 488.9c-.1 0-.3-.1-.3-.2-.9-2.1-2.3-3.4-4.3-4.1-.2-.1-.3-.3-.2-.4.1-.2.3-.3.4-.2 2.2.7 3.7 2.2 4.7 4.4.1.2 0 .4-.2.5 0-.1 0 0-.1 0zM440.7 486.7c-.1 0-.3-.1-.3-.2-.7-2.2-2.4-4-4.3-4.7-.2-.1-.3-.3-.2-.4.1-.2.3-.3.4-.2 2.1.7 3.9 2.7 4.7 5.1.1.2 0 .4-.2.4h-.1zM458.3 497.8c-.2 0-.3-.1-.3-.3v-.1c-.3-5.6 4.5-10.4 10.7-10.8.8 0 1.6 0 2.4.1.2 0 .3.2.3.4s-.2.3-.4.3c-.8-.1-1.5-.1-2.3-.1-5.9.4-10.4 4.9-10.1 10v.1c0 .2-.1.3-.3.4zM515 487c-.1 0-.2 0-.2-.1-1.6-1.6-3.5-2.3-5.5-2.1-.2 0-.4-.1-.4-.3 0-.2.1-.4.3-.4 2.3-.1 4.2.6 6 2.3.1.1.1.4 0 .5 0 .1-.1.1-.2.1zM518.5 482.7c-.1 0-.2 0-.2-.1-1.6-1.6-3.4-2.3-5.5-2.1-.2 0-.4-.1-.4-.3 0-.2.1-.4.3-.4 2.3-.1 4.2.6 6 2.3.1.1.1.4 0 .5 0 .1-.1.1-.2.1zM522.1 478.9c-.1 0-.2 0-.3-.1-1.5-1.8-3.8-2.8-5.7-2.7-.2 0-.4-.1-.4-.3 0-.2.1-.4.3-.4 2.2-.1 4.6 1 6.3 2.9.1.1.1.4 0 .5 0 .1-.1.1-.2.1zM542.5 482.5c-.1 0-.3-.1-.3-.2v-.1c-1.2-2.4-1.2-5.2-.1-7.9 1.1-2.6 3.2-4.8 5.9-6.2.7-.3 1.4-.6 2.2-.8.2-.1.4.1.4.2 0 .2-.1.4-.2.4-.8.2-1.4.5-2.1.8-2.6 1.3-4.6 3.3-5.6 5.8s-1 5.1.1 7.3v.1c.1.2 0 .4-.2.5 0 0 0 .1-.1.1zM509 169.1h-.8c-1.4-6.2-4.4-10.8-7.1-13.8-.5-.5-1-1.1-1.5-1.6 0-.1.1-.2.1-.3 4.3 2.8 8.8 6.5 9.3 15.7z"></path><path fill="#797885" d="M426.4 121.8c-.2-.2-.2-.5 0-.7l6.7-6.7c.2-.2.5-.2.7 0s.2.5 0 .7l-6.7 6.7c-.2.2-.5.2-.7 0z"></path><path fill="#797885" d="m433.1 121.8-6.7-6.7c-.2-.2-.2-.5 0-.7s.5-.2.7 0l6.7 6.7c.2.2.2.5 0 .7-.2.2-.5.2-.7 0z"></path><path fill="#fff" d="m547.9 337.5-1.7 1.7c-.5.5-1.4.5-2 0l-1.7-1.7c-.5-.5-.5-1.4 0-2l1.7-1.7c.5-.5 1.4-.5 2 0l1.7 1.7c.5.6.5 1.5 0 2z"></path><path fill="#797885" d="m543.9 339.5-1.7-1.7c-.7-.7-.7-1.9 0-2.7l1.7-1.7c.8-.7 1.9-.7 2.7 0l1.7 1.7c.7.7.8 1.9 0 2.7l-1.7 1.7c-.8.7-2 .7-2.7 0zm.7-5.3-1.7 1.7c-.4.4-.3.9 0 1.3l1.7 1.7c.3.3.9.3 1.3 0l1.7-1.7c.3-.3.3-.9 0-1.3l-1.7-1.7c-.4-.3-1-.3-1.3 0z"></path></svg>